<svg xmlns="http://www.w3.org/2000/svg" viewBox="0 0 694.62 369.69"><defs><style>.cls-1{fill:#f79c0b;}.cls-2{fill:#feb01b;}.cls-3{fill:#ffb640;}.cls-4{fill:#1e1d35;}.cls-5{fill:#2c2945;}.cls-6{fill:#fcceb6;}.cls-7{fill:#fcbfa4;}.cls-8{fill:#64ad99;}.cls-9{fill:#6b4e45;}.cls-10{fill:#826459;}.cls-11{fill:#bf674f;}.cls-12{fill:#cd7659;}.cls-13{fill:#2c8599;}.cls-14{fill:#3793b5;}.cls-15{fill:#e95f33;}.cls-16{fill:#f9b28f;}.cls-17{fill:#f2a381;}.cls-18{fill:#db4d28;}.cls-19{fill:#ef6843;}.cls-20{fill:#fad8b4;}</style></defs><g id="Layer_2" data-name="Layer 2"><g id="OBJECTS"><path class="cls-1" d="M479.52,104.77c-19.95-2.1-40.95,0-60.9-5.25,0,35-9.69,67.55-23.4,99.11,13.78,3,35,7.06,46.76,6.39,18.38-1,41.74-6.49,41.74-6.49l-2-14,8.44,12.54h0C473.84,171.22,474.26,135.58,479.52,104.77Z"/><path class="cls-2" d="M460,49.21c-10.1-3.16-35.62-9-49.19,6.73a74.09,74.09,0,0,0-5.23,6.83C425,63.19,444.27,59.33,460,49.21Z"/><path class="cls-3" d="M465.15,50.74l-.83-.05s-1.61-.64-4.29-1.48c-15.76,10.12-35,14-54.42,13.56a59.36,59.36,0,0,0-8.56,19.15C422.48,79.09,447.4,68.63,465.15,50.74Z"/><path class="cls-2" d="M486.61,146.49c-.27-13.91,7.34-35.43,10.49-46.71s7.08-46.74-32-49c-17.75,17.89-42.67,28.35-68.1,31.18-2.61,10.59-2.11,20.91-1.53,31.07,1.05,18.28-13.47,82.59-13.47,82.59s5.4,1.36,13.17,3c13.71-31.56,23.4-64.12,23.4-99.11,19.95,5.25,40.95,3.15,60.9,5.25-5.26,30.81-5.68,66.45,10.67,92.31.3-.16,10.13-5.28,14.52-11.74C504.71,185.34,486.88,160.41,486.61,146.49Z"/><path class="cls-4" d="M472.43,256.72s-37.9-8-53.9,0c0,0-3.47,9.53-6.41,21.55,20.07-8.76,41.72-12.93,63.43-15.25A64.26,64.26,0,0,0,472.43,256.72Z"/><path class="cls-5" d="M475.55,263c-21.71,2.32-43.36,6.49-63.43,15.25-2.39,9.78-4.44,21.2-4,30.48,1,20.69,7.06,59.33,7.06,59.33l28.27.25s2.93-42,1.46-51.83l5.54-2.19s3.85,53.22,4.55,53.77,26.7,0,26.7,0,7.24-35.49,4.09-64.88A136.48,136.48,0,0,0,475.55,263Z"/><path class="cls-6" d="M421.07,153.51a11.91,11.91,0,0,1-5.73,3.36c-.46.1-.89.21-1.33.32,1.17,7.29,2.57,17.32,2.25,21.6,0,0,20.47,10.5,26,10.76s18.12-7.88,20.48-11c1.43-1.91-.13-12.43-1.58-20.43-3.7-1.16-5.61-3.27-6.34-8.61A110.62,110.62,0,0,1,421.07,153.51Z"/><path class="cls-7" d="M430.51,135s-3.09,12.28-9.44,18.53a110.62,110.62,0,0,0,33.73-4,51.89,51.89,0,0,1-.35-7.38Z"/><path class="cls-7" d="M411.8,180.37a71.29,71.29,0,0,0-1.91-21.88c-6.64,2.67-10.32,7.47-13,17.33-3.33,12.28-4,32.1-4,32.1s-.77,26,15.24,28.56c.16-11,1.26-25.95,2-31.45C411.08,197.86,411.8,180.37,411.8,180.37Z"/><path class="cls-8" d="M480.76,208.55c-1.94-15.06-11.22-27.14-12.53-31.34-.86-2.76-2.73-12.23-3.91-18.38a26.81,26.81,0,0,1-3.18-.74c1.45,8,3,18.52,1.58,20.43-2.36,3.15-15,11.29-20.48,11s-26-10.76-26-10.76c.32-4.28-1.08-14.31-2.25-21.6a32.21,32.21,0,0,0-4.12,1.3,71.29,71.29,0,0,1,1.91,21.88s-.72,17.49-1.67,24.66c-.73,5.5-1.83,20.44-2,31.45l.25.05s3.74,18.08,10.14,20.19c0,0,28.7-2.87,37.36-1.82s15.23,3.12,16.54,1.82,4-7,6.82-20.19c2.19-10.12,2.1-11,2.1-11l.32.34A104.15,104.15,0,0,0,480.76,208.55Z"/><path class="cls-7" d="M466.39,159.17c-.73-.11-1.42-.22-2.07-.34,1.18,6.15,3.05,15.62,3.91,18.38,1.31,4.2,10.59,16.28,12.53,31.34a104.15,104.15,0,0,1,.91,17.3,102.07,102.07,0,0,0,9.49,8.85,300.18,300.18,0,0,0-22.87-75.21C467.69,159.37,467.06,159.27,466.39,159.17Z"/><path class="cls-6" d="M516,221.57S499.72,203.2,489,183c-10-18.74-13-22-20.67-23.5a300.18,300.18,0,0,1,22.87,75.21c6.33,5.23,15.17,11.34,24.84,14.43Z"/><path class="cls-6" d="M421,89.42s-15.74-8.27-18.24,5.38,5.78,14.39,11.81,13.82c0,0,2,22.92,25.73,31.32s45.14-9.18,47.77-21.39,2.75-16.93,2.75-16.93-14.57-21.26-18.11-33.2C472.69,68.42,436.86,90.73,421,89.42Z"/><path d="M407.44,93.29c3.24-1.73,5.89-1.74,8.49,1,2.39,2.51,1,7.45-.23,10.25-.28.62.53,1.42,1,.79,2.49-3.17,2.88-8.93.24-12.06s-7.21-3.72-10-.57a.38.38,0,0,0,.46.6Z"/><path d="M412,98.19c2,.06,3.83.72,4.67,2.63.33.75,1.35.17,1.23-.51-.4-2.34-4.09-3.66-6.06-2.74-.32.15-.14.61.16.62Z"/><path d="M451.14,116.48c-.46,1.57.53,3.29,1.47,4.52s2.33,2.55,3.81,2.34c.61-.09.57-.93.16-1.2a15.51,15.51,0,0,1-2.78-2.06c-1-1-1.3-2.49-1.94-3.7a.4.4,0,0,0-.72.1Z"/><path d="M445.43,106.37c1.07-3.33,2.45-9-1.8-10.59-2.27-.88-4.64.46-6,2.19-1.25,1.55-2.88,4.48-2.74,6.54,0,.52.72.93,1.12.46,2.15-2.49,2.12-8.25,6.81-7.61,3.49.48,2.14,6.63,1.86,8.9-.05.47.66.52.79.11Z"/><path d="M473.82,112.66c1.13-2.27,2.86-6,6-5.48,3,.49.68,7,.46,8.71-.09.72,1.07,1,1.37.37,1.2-2.56,2.87-9.12-.91-10.57-4.23-1.62-7.15,3.32-7.61,6.78,0,.37.52.5.67.19Z"/><path d="M461.51,114.52c3.26-.87,9.05-5.6,4.06-8.25a2.78,2.78,0,0,0-2-.17c-3.74,1.26-2.58-3.1-2.07-5.54a40.73,40.73,0,0,1,6.72-14.93c.49-.68-.64-1.55-1.17-.89a39.33,39.33,0,0,0-7.73,18.72c-.12,1-.78,4.59.78,5.07a2,2,0,0,0,1.92-.08q2-1,2.34,3.35a8.59,8.59,0,0,1-3.19,2c-.43.18-.12.84.3.73Z"/><path d="M436.23,93.59c3.77-3.54,9-4.33,13.88-5.11.73-.12.47-1.15-.17-1.21-4.83-.45-11,2.24-14.27,5.76a.4.4,0,0,0,.56.56Z"/><path d="M481.8,94.29A42.39,42.39,0,0,1,485.05,99c1.1,2.09,1.92,4.34,2.94,6.48.29.62,1.11.24,1.16-.32.21-2.08-1.52-4.45-2.38-6.27a11.83,11.83,0,0,0-4.43-5.09c-.32-.19-.77.21-.54.53Z"/><path d="M407.34,103.63c-2.81.27-3.95,3.43-4.4,5.86a8.89,8.89,0,0,0,2.12,7.38c2.11,2.51,11.91,5.49,12,.06a.47.47,0,0,0-.8-.33c-2.85,2.51-6.72,2-9.61-.3-3.17-2.56-3.61-10.23.76-12,.34-.13.33-.73-.09-.69Z"/><path d="M433.93,226.53c3.85,1,8.67-.53,12.45-1.33,6-1.28,11.44-3.76,17.26-5.55a.82.82,0,0,0-.44-1.58c-4.66,1.13-9.14,3.49-13.82,4.82-4.4,1.26-10.75,3.6-15.36,3-.38,0-.44.55-.09.65Z"/><path d="M436.82,232.68c9,.61,18.07.27,26.58-2.92a.6.6,0,0,0-.32-1.16c-8.84,1.87-17.15,3.35-26.26,3.38a.35.35,0,0,0,0,.7Z"/><path d="M430.17,319.59c7.75,0,16-2.69,23.14-5.45,3.24-1.25,6.26-3.41,9.12-5.33,1.88-1.27,4.1-2.4,5.29-4.37.51-.83-.7-1.46-1.26-.74-1.53,2-4.25,3.28-6.28,4.65a46.28,46.28,0,0,1-10.67,5.44,112.89,112.89,0,0,1-19.46,4.88c-.53.09-.39.91.12.92Z"/><path d="M420,263.26a.14.14,0,0,0,0-.27.14.14,0,0,0,0,.27Z"/><path d="M419.85,262.49l-.26,0c.06.42.11.85.17,1.28,7.66-2.8,17.25-2.65,25.32-3.16,9.26-.59,17.69-.66,26.86,1.06a.87.87,0,0,0,.46-1.67c-9-2.73-18.11-1.86-27.32-1.32-7.91.46-18.59.29-25.82,3.9-.7.35-.18,1.32.5,1.19l.26-.05a.64.64,0,0,0-.17-1.25Z"/><path d="M445.07,254.2c.2,3.06-.41,6.39-.4,9.5,0,5,.21,10,.44,14.93.4,8.79,3,17.1,3.92,25.79a.74.74,0,0,0,1.48,0c.15-4-.82-7.7-1.73-11.54a90.53,90.53,0,0,1-2-16.15c-.25-5-.42-9.93-.57-14.9-.08-2.41.56-5.56-.52-7.79a.32.32,0,0,0-.6.16Z"/><path d="M449,297.35c5.36-.85,4-8.61,3.65-12.51-.71-8.12-2.34-16.3-3.63-24.35-.12-.77-1.45-.59-1.37.19.48,4.56,1.1,9.13,1.92,13.64.75,4.09,5,19.67-.82,22.12a.47.47,0,0,0,.25.91Z"/><path d="M481.52,285.35c-1,.24-3.19-2-4-2.61-2.74-2.08-4.75-5.35-6.45-8.3s-3.64-5.91-4.8-9.26c-.68-2-1-4.28-2.37-5.9-.56-.69-1.53.18-1.17.9,1.6,3.12,2.23,6.68,3.86,9.83a53.85,53.85,0,0,0,5.69,9.18c1.25,1.53,6.65,8.25,9.48,6.82.38-.19.11-.75-.28-.66Z"/><path d="M411.38,291.68c10.21-4,13.69-18.95,12.31-28.62-.16-1.14-1.9-.65-1.73.48,1.4,9.28-2,22.65-10.88,27.42-.39.21-.12.88.3.72Z"/><path class="cls-7" d="M445.9,117.89c-1,2.6-5.59,3.22-10.14,1.39s-7.39-5.43-6.34-8,5.58-3.22,10.14-1.39S447,115.29,445.9,117.89Z"/><path class="cls-7" d="M482.39,125.1c.06,2.8-3.87,5.16-8.77,5.26s-8.94-2.09-9-4.89,3.87-5.16,8.78-5.26S482.34,122.3,482.39,125.1Z"/><path d="M274.73,53.54s3.73-16.49-2-25.8-11.42-10.63-11.42-10.63A24.14,24.14,0,0,0,243.82.83C229.38-3,219.41,7.66,208.65,4.9S190,4.24,193.16,10c0,0-9-2.23-6.82,4.85,0,0-9.58-3.8-12.86,4.07S181.6,38.59,192,36.27s72.79,21.39,72.79,21.39Z"/><path class="cls-9" d="M271.64,117.66c-1.4,17.44,7.53,51.27,7.53,51.27,5.21,2.33,16.4,3.88,29.32,4.91a168.44,168.44,0,0,1-29.7-52.29C274.27,119.16,271.64,117.66,271.64,117.66Z"/><path class="cls-10" d="M373.48,175.81l-3.85-22.4c-31.67-2.2-74.16-23.07-90.84-31.86a168.44,168.44,0,0,0,29.7,52.29C336.83,176.08,373.48,175.81,373.48,175.81Z"/><path class="cls-10" d="M116.22,177.51l-2.32,14.66s31.1-2.92,53.46-6.65c9.55-16.89,16.63-35.29,18.64-54.81C172.69,140.94,136.13,168.42,116.22,177.51Z"/><path class="cls-9" d="M191,126.82s-1.86,1.46-5,3.89c-2,19.52-9.09,37.92-18.64,54.81,10.55-1.76,19.15-3.71,21.61-5.61C189,179.91,202.86,132.85,191,126.82Z"/><path class="cls-4" d="M281.05,270.66c-.08-.36-.15-.71-.22-1.06-46.2,1-85.92,13.39-85.92,13.39s-.27,13.45-.39,29.86a469.2,469.2,0,0,1,87-39.6C281.39,272.35,281.22,271.48,281.05,270.66Z"/><path class="cls-5" d="M194.52,312.85c-.18,22.31-.1,50.08,1.27,56.84h48.82s-4.2-36.57-4.73-39.46l7.35-1.84,2.62,41.3h44.62s-7.44-67.81-12.91-96.44A469.2,469.2,0,0,0,194.52,312.85Z"/><path class="cls-8" d="M209.42,117.66s-12.91,3.91-18.39,9.16c0,0,1.34,37.38-3.64,63.17,0,0,1.57,32.63,1.57,42.34s.35,41.73,5.95,50.66c0,0,31.58-6.21,42.87-6.39s37.8-2,43-7,.78-28.61,0-48.56-.27-45.88-.27-45.88-10-42.77-8.92-57.5L255.1,113.3Z"/><path class="cls-10" d="M209.42,117.66s-3.4,30.68,19.7,31.21,26-35.57,26-35.57-5.65.64-8.89-7.47c-10.56,4.46-22.67,9.5-33.28,9.69A10.85,10.85,0,0,1,209.42,117.66Z"/><path class="cls-9" d="M219.06,99.87s-.35,10.47-6.13,15.65c10.61-.19,22.72-5.23,33.28-9.69a33.49,33.49,0,0,1-2.05-9.89Z"/><path class="cls-10" d="M192.11,34.17s.79,21.17,0,32,4.2,27.33,19.95,32.32,44.36-1,53.54-23.1c0,0,15.23,5.25,16.28-13.38-3.15-14.18-17.33-6.83-17.33-6.83a45,45,0,0,1-10.5-23.36s-9.18-2.62-28.08,0A242.76,242.76,0,0,1,192.11,34.17Z"/><path d="M223.35,77.87c1.16,1,3.71.36,4.93-.27,1.93-1,3-3.49,3.54-5.47.17-.66-.84-1.14-1.14-.48a15.62,15.62,0,0,1-2.08,4.09c-1.24,1.42-3.22,1.58-5,1.49a.38.38,0,0,0-.26.64Z"/><path d="M221,70.76l-1.18-.52c-2.62-.82-2.84-2.34-.64-4.55a6.86,6.86,0,0,0,2.57.93c1.75,0,2.22-1.47,2.65-2.87,2-6.46-1.13-15.85-2.57-22.18-.21-1-1.7-.55-1.48.41a132.18,132.18,0,0,1,2.9,16.5c.31,3.1,0,7.58-4.44,5.55a3.75,3.75,0,0,0-2.43-.1c-1.69.26-1.42,2.57-1.11,3.6.69,2.23,3.44,3.43,5.48,3.83.34.07.61-.44.25-.6Z"/><path d="M266.58,71.51c-1.24-2.31-.73-6.4.57-8.55a9.82,9.82,0,0,1,4.5-3.37c2-.83,3.52-.05,5.13,1.06.72.5,1.41-.56.89-1.15-3.25-3.66-8-1.28-10.91,1.49-2.67,2.53-2.91,8-.82,10.9a.37.37,0,0,0,.64-.38Z"/><path d="M265.62,66.88c.77-3.6,5.7-2.31,8-1.54.56.18,1.08-.65.59-1a7.42,7.42,0,0,0-6.34-.93c-1.46.37-3.24,1.85-3,3.5.06.4.7.37.78,0Z"/><path d="M207.07,278.43c6.27,0,12.22.28,18.47-.51s12.56-2,18.8-3.21c10.48-2,21.9-5.33,30-12.68.5-.46-.17-1.36-.74-1-9.09,6.49-18.67,10.15-29.55,12.45-5.53,1.17-11.13,2.11-16.71,3-6.79,1.06-13.44.76-20.23,1.35a.3.3,0,0,0,0,.59Z"/><path d="M230.53,258.55c7.27-2,13.83-8.64,19.12-13.7a44.93,44.93,0,0,0,7.31-9.69c2.15-3.59,4.89-6.93,6.43-10.82.24-.61-.71-1-1-.43-1.56,2.55-3.48,4.82-5,7.39-2.4,4-4.46,7.86-7.62,11.39-5,5.59-12.24,12.63-19.4,15.13a.38.38,0,0,0,.2.73Z"/><path d="M225.64,257.85c7.25-4.06,12.5-13.15,16.25-20.28a110.05,110.05,0,0,0,5.82-13.37c1.41-3.84,3.12-8.77,3.14-12.87,0-1-1.38-.93-1.47,0-.79,8.74-5.09,17.7-8.85,25.45-3.47,7.16-8.59,15.85-15.28,20.42a.38.38,0,0,0,.39.65Z"/><path d="M227.65,335.33a137.38,137.38,0,0,0,22-8c6.07-2.68,14.13-7,17.64-12.92a.57.57,0,0,0-.89-.69c-10.16,10.86-25.18,16.18-38.94,20.89a.39.39,0,0,0,.21.75Z"/><path d="M245.61,328.7c1.68,1.18,5.62-.63,7.39-.93,3.89-.64,8-1.23,11.43-3.37.5-.31.18-1.22-.41-1a53.3,53.3,0,0,1-9,2.71c-1.56.32-3.11.6-4.66.93-1.38.29-3,1.32-4.48,1a.36.36,0,0,0-.27.65Z"/><path d="M242.68,61.42c0,1.67-.9,3-2,3s-2-1.35-2-3,.9-3,2-3S242.68,59.75,242.68,61.42Z"/><path d="M208,61.42c0,1.67-.9,3-2,3s-2-1.35-2-3,.9-3,2-3S208,59.75,208,61.42Z"/><path d="M251.6,46.24s-7.52-8.93-10.14-8.84c-2.86.1-1.58,2.19-1.58,2.19s-3.85,1.14-2.19,3.15,8.4,3.24,10.94,4.64,3.94,2.1,3.94,2.1Z"/><path d="M197.24,46.59s7.52-8.93,10.15-8.84c2.86.1,1.57,2.19,1.57,2.19s3.85,1.14,2.19,3.15-8.4,3.24-10.94,4.64-3.93,2.1-3.93,2.1Z"/><path class="cls-11" d="M281.78,70c.14,9.6,10.8,12.23,10.8,12.23s14.07,11.06,30.35,21.61c15.27-15.61,27.17-35,32.7-55.71C332.72,60.91,307.4,64.94,281.78,70Z"/><path class="cls-12" d="M379.52,68.55c-4.47-22.84-20-24.25-20.74-24.76-20.74-14.26-60.11-5.95-72.7,13.87-3.19,5-4.34,9-4.3,12.29,25.62-5,50.94-9,73.85-21.87-5.53,20.73-17.43,40.1-32.7,55.71,15.73,10.18,33.52,19.88,42.68,18.61C384.26,119.83,384,91.38,379.52,68.55Z"/><path class="cls-13" d="M397.56,305.92c-.32-.8-.65-1.54-1-2.23-7.87-16-10-14.7-10-14.7l-74.83,10.24s-.16,11.43-.26,25C339.81,318,369,305.26,397.56,305.92Z"/><path class="cls-14" d="M311.5,324.28c-.14,17.64-.2,39,.26,43.8h95.16s-2.26-44.33-9.36-62.16C369,305.26,339.81,318,311.5,324.28Z"/><path class="cls-15" d="M324.51,153.75s-10.95,1.68-12.75,7.71-14.92,13.39-17.29,20.74-9.39,43.31-11.13,55.12.9,35.43,6.41,48,17.25,22.57,22,25.46v-10s33.11,5.78,63.29-3.67c0,0,8.4,15.22,18.9,23.62,0,0,20.21-30.18,23.36-46.19s0-39.51-5-57.16-12.86-38.38-19.16-48.35-27-13.65-27-13.65-4.73-7.6-13.91-6.56S324.51,153.75,324.51,153.75Z"/><path class="cls-16" d="M355.58,148.48c-10.22.5-20.36,1.14-30.26,2.92a9.32,9.32,0,0,1-4.07,6.13s22.83,5.51,38.32-3.68A26.24,26.24,0,0,1,355.58,148.48Z"/><path class="cls-17" d="M352.58,137,325.8,142.7a26.71,26.71,0,0,1-.48,8.7c9.9-1.78,20-2.42,30.26-2.92A21.41,21.41,0,0,1,352.58,137Z"/><path class="cls-16" d="M292.58,82.18s1.22,14,.06,23.88,4.82,36.08,41.17,36.64c36.34-4.68,33.39-30.39,33.26-30.39s13.39,3.38,13.75-9.35-13.4-9.55-13.4-9.55S354.25,75.55,351.73,65C351.73,65,315.15,79.23,292.58,82.18Z"/><path d="M333.67,351.1c10.67,2.94,23.66,4.27,34.51,1.72a.48.48,0,0,0-.13-.93c-11.53,1-22.78.89-34.21-1.41a.32.32,0,0,0-.17.62Z"/><path d="M349.61,368.29a51.62,51.62,0,0,0-.21-7.35c-.11-2.45,0-4.9-.25-7.35a.52.52,0,0,0-1,0,67.13,67.13,0,0,0,.94,14.77c.05.34.52.22.55-.07Z"/><path d="M347,347.29c0-8.31-.71-16.69-1.17-25-.34-6.18-.23-13.29-1.77-19.3a.74.74,0,0,0-1.43.39c0,.06,0,.11,0,.17a.7.7,0,0,0,1.34,0l.05-.17a.74.74,0,0,0-1.43-.39c-.49,1.91.39,4.56.6,6.5.47,4.23.7,8.55,1,12.8.62,8.35,1.18,16.67,2.08,25a.34.34,0,0,0,.67,0Z"/><path d="M346.64,338.75c5.92-1.13,7-4.93,6.95-10.36-.12-8.67-1.81-18-3.53-26.44-.17-.83-1.56-.65-1.48.2l0,.35a.73.73,0,0,0,1.45,0c0-.12,0-.24,0-.35l-1.49.2c.95,5.16,1.52,10.43,2.37,15.61a73.21,73.21,0,0,1,1.1,10.43c.09,4.74-1.14,7.75-5.64,9.6a.39.39,0,0,0,.21.76Z"/><path d="M312.42,310.47c3.72,2.09,8.62,1.92,12.76,2.17,7,.42,14,.35,21,.23a99.39,99.39,0,0,0,18.54-1.71c3.8-.8,10.2-2.25,12.84-5.42a.63.63,0,0,0-.89-.89c-3.55,3.14-9.61,4.28-14.12,5.22-6,1.25-12.2,1.22-18.28,1.35-5.1.11-10.2.05-15.3-.06-5.28-.12-11.28.13-16.34-1.47a.32.32,0,0,0-.25.58Z"/><path d="M311.81,326.84c2.73-1,5.07-5.57,6.54-7.74,3.18-4.69,6.32-11.1,7.16-16.77.13-.88-1.22-1.25-1.35-.37-.69,4.79-3.12,9.48-5.26,13.78-1.4,2.81-4.45,8.85-7.38,10.4a.38.38,0,0,0,.29.7Z"/><path d="M373.71,297.77c1.84,2.74,4.11,5.13,5.9,7.92a52.91,52.91,0,0,0,4.71,7A76.44,76.44,0,0,0,400.8,326c.61.37,1.33-.53.77-1-4.95-4.13-10.42-7.57-15-12.11s-7.45-10.84-12.3-15.5c-.27-.27-.76.08-.53.41Z"/><path d="M310.46,298.91c.86-5.57-3.55-11.78-5.54-16.76-3.05-7.68-4.4-16-5.18-24.15-1.5-15.94,0-31.67,1.4-47.54.05-.51-.81-.63-.89-.12a212.57,212.57,0,0,0-1.82,44.1,109.63,109.63,0,0,0,3.18,21.24,59.15,59.15,0,0,0,2.87,8.61c1.95,4.59,5.12,9.41,5.32,14.53,0,.37.6.49.66.09Z"/><path d="M375.67,296.29c6.81-8.64,13.38-20.26,15.19-31.25.12-.75-1-1.09-1.17-.32a103.44,103.44,0,0,1-14.62,31.11c-.25.36.33.81.6.46Z"/><path d="M389.36,259.45c.09-7.75-2.43-15.76-4.71-23.09a182.75,182.75,0,0,0-8.91-23.15c-.44-.92-1.8-.12-1.37.8,6.54,13.9,13,30,14.38,45.44a.31.31,0,0,0,.61,0Z"/><path d="M314.59,166.53c3.92,1.23,7.65,3,11.6,4.12s8.62,1,12.82,1.06a41,41,0,0,0,11.87-2c2.76-.81,5.85-1.46,7.95-3.51a.57.57,0,0,0-.69-.89c-6.13,3.47-14.05,4.77-21,4.77-8,0-14.72-2.42-22.39-4.27a.35.35,0,0,0-.19.68Z"/><path d="M322.1,166.44a.83.83,0,0,0,.17.38.41.41,0,0,0,.69-.28c.08-1.07.21-2.13.35-3.19a4.79,4.79,0,0,0,0-2.63.43.43,0,0,0-.74,0,6.8,6.8,0,0,0-.31,2.63,28.26,28.26,0,0,0-.07,3.19l.68-.29a1,1,0,0,0-.38-.18.3.3,0,0,0-.36.37Z"/><path d="M331.57,167.54c.66-.09.7-1.77.77-2.21a26.28,26.28,0,0,0,.38-4,.55.55,0,0,0-.27-.47c-1.05-.59-.84,1.63-.86,2.07,0,.82-.1,1.64-.16,2.46,0,.28,0,1.44-.17,1.58s0,.56.31.52Z"/><path d="M339.93,167.23a1,1,0,0,0-.12.36l.78-.21c-.33-.59-.07-1.6,0-2.24.07-1.34.11-2.69.09-4a.59.59,0,0,0-1.17,0c0,1.41.09,2.81.09,4.22a4.24,4.24,0,0,0,.31,2.47c.22.31.81.24.78-.21a1.15,1.15,0,0,0-.11-.36.36.36,0,0,0-.61,0Z"/><path d="M348.81,166.54a32.34,32.34,0,0,0-.54-6.65c-.08-.64-1.07-.68-1,0,.14,2.24.9,4.38.86,6.65,0,.47.68.45.71,0Z"/><path d="M357.09,163.91c-.09-.86-.23-1.72-.4-2.57a11,11,0,0,1-.46-2.33.43.43,0,0,0-.64-.36c-.74.53-.3,1.15-.09,1.9a34.12,34.12,0,0,1,.78,3.47c.07.46.86.36.81-.11Z"/><path d="M360.11,155.76a28.36,28.36,0,0,1,1.43,2.59c.47,1,.46,2.25,1,3.18a.48.48,0,0,0,.87-.11c.73-2-1.41-4.78-2.57-6.25-.34-.44-1.05.13-.76.59Z"/><path d="M317,165.5l.1-.05a.34.34,0,0,0,.17-.41,13.33,13.33,0,0,1-.15-3.94,6,6,0,0,1,1.86-3.88.44.44,0,0,0-.43-.73c-1.55.39-2.13,2.22-2.35,3.63a15.75,15.75,0,0,0-.12,2.66c0,.19.21,2.55.51,2.18a.34.34,0,0,0,.41.54Z"/><path d="M368.9,108.53c-.45-2.55-1.15-5.15-.46-7.72a5.65,5.65,0,0,1,4.16-3.66c1.5-.17,2.48,1.24,3.54,2,.52.38,1.12-.34.84-.84-2-3.62-5.77-3.22-8.34-.5-2.92,3.09-1.48,7.33-.39,10.87a.34.34,0,0,0,.65-.18Z"/><path d="M367.4,105l.08.05a.3.3,0,0,0,.4-.11c.65-1.22.45-2.51,2-3.08a3.6,3.6,0,0,1,1.95-.12c.79.16,1.12.83,1.77,1.17a.47.47,0,0,0,.7-.4c0-1.94-2.78-2.26-4.18-2a3.47,3.47,0,0,0-2.06,1.21c-.16.24-1,2.87-.59,2.78a.25.25,0,0,0-.06.46Z"/><path d="M324,118.55c1,0,1.9.46,2.91.26a6.24,6.24,0,0,0,2.72-1.2,8.26,8.26,0,0,0,3.08-5.67c.06-.67-.93-.87-1.23-.33a8.84,8.84,0,0,0-.71,1.94,6.43,6.43,0,0,1-1.81,2.75,5.1,5.1,0,0,1-2.4,1.25c-.86.21-1.8-.12-2.69,0a.49.49,0,0,0,.13,1Z"/><path d="M319.06,109.2a7.9,7.9,0,0,1-2.66-2.76q2.09-3.9,4.5-1.84a5.94,5.94,0,0,0,2.53.91c1.37,0,1.85-.85,2.13-2,.69-2.81-.52-6.64-.84-9.45a74.65,74.65,0,0,0-2.27-12.57.8.8,0,0,0-1.56.21v.18a.8.8,0,0,0,1.59,0v-.18l-1.56.21c1.56,5.66,2.13,11.38,2.82,17.19.28,2.38.36,5.66-3.23,3.66a6.5,6.5,0,0,0-3.71-1c-5.3.17-.05,7.1,1.91,8a.34.34,0,0,0,.35-.59Z"/><path d="M346,101c0,1.88-.9,3.4-2,3.4s-2-1.52-2-3.4.9-3.39,2-3.39S346,99.15,346,101Z"/><path d="M308.47,102.49c0,1.87-.9,3.39-2,3.39s-2-1.52-2-3.39.9-3.4,2-3.4S308.47,100.61,308.47,102.49Z"/><path class="cls-11" d="M355.67,87.8s-7-8.75-10.89-9.1-7.52,2.1-5.95,3.67-2.83,2.93,1.58,3.68C350.69,87.8,359.52,92.05,355.67,87.8Z"/><path class="cls-11" d="M295.57,94.6s4.82-10.15,8.49-11.38,7.8.31,6.64,2.2,3.43,2.19-.69,3.94C300.41,93.44,292.81,99.62,295.57,94.6Z"/><path class="cls-6" d="M391.06,156.41s-15-.62-16.77,7.54-.18,14.06,1,14.51,3.8-12.12,3.8-12.12-2.63,12.12,0,12.75,4.26-12.51,4.26-12.51-1.44,12.79.82,13.33,3.9-13.33,3.9-13.33-1.27,13.42.54,13.78,3.9-13.42,3.9-13.42,1.55,9.52,3.36,10.16,4.27-8,3.13-12.64S396,156.57,391.06,156.41Z"/><path class="cls-18" d="M621.25,183.51c5.25-16.8-9.45-27.3-22-36.74-4.2-2.1-1.05-9.45,0-13.65a35.74,35.74,0,0,0,0-21c-2.1-4.2-5.25-9.45-10.5-11.55-11.55-2.1-17.85,9.45-25.19,12.6-9.45,5.25-23.1,0-33.6-6.3-7.35-4.2-16.8,1-17.85,8.4-2.1,11.55,10.5,20,4.2,31.5-3.15,6.3-9.45,14.69-5.25,19.94,14.7,14.7,11.55,35.7,1,51.45a13.39,13.39,0,0,0-2.22,7.82,69.12,69.12,0,0,0,19.28,3.2c27.82,1,68.09-1.52,79.32-6.53,4.86-2.17,8.61-3.79,8.61-3.79l-.79-14.81,5,14.81s1.31-.17,3.33-.46c-2.9-5.51-6.19-10.86-8.58-16C612.85,196.11,619.15,189.81,621.25,183.51Z"/><path class="cls-15" d="M578.2,67c7.29-3.64,15.19-6.65,22.82-7.78-5.19-.46-10.34,1.14-14.68-3.76-6-6.83-15.29-15.75-31.79-12.34a68.87,68.87,0,0,0-13.77,4.63c7.67,3.81,14.91,10.39,20.63,16.11C565.61,68,573,70.12,578.2,67Z"/><path class="cls-19" d="M557.21,77.47c16.9,20.67,38,4.36,56.56-7.58-1.13-3.79-2.71-6-6.69-8.69a12.53,12.53,0,0,0-6.06-2c-7.63,1.13-15.53,4.14-22.82,7.78-5.24,3.15-12.59,1-16.79-3.14-5.72-5.72-13-12.3-20.63-16.11-2.28,1-4.47,2.09-6.51,3.18C543.84,55.82,550,69.58,557.21,77.47Z"/><path class="cls-15" d="M626.24,138c3.67-9.89,4.46-17-2.63-30.1s-4.2-12.34-7.09-25.46c-1.26-5.74-1.87-9.62-2.75-12.57-18.55,11.94-39.66,28.25-56.56,7.58C550,69.58,543.84,55.82,534.27,50.9a124.53,124.53,0,0,0-13.81,8.46s-22.05,2.1-24.15,19.16,3.94,25.33,2.76,33.93S490.28,128,490.8,138s12.6,14.38,11.55,22.06-7.09,16.61-5.51,25,2.88,24.41-2.36,30.7c0,0,3.44,6.21,15.36,10.19a13.39,13.39,0,0,1,2.22-7.82c10.5-15.75,13.65-36.75-1-51.45-4.2-5.25,2.1-13.64,5.25-19.94,6.3-11.55-6.3-20-4.2-31.5,1.05-7.35,10.5-12.6,17.85-8.4,10.5,6.3,24.15,11.55,33.6,6.3,7.34-3.15,13.64-14.7,25.19-12.6,5.25,2.1,8.4,7.35,10.5,11.55a35.74,35.74,0,0,1,0,21c-1.05,4.2-4.2,11.55,0,13.65,12.6,9.44,27.3,19.94,22,36.74-2.1,6.3-8.4,12.6-5.25,18.9,2.39,5.13,5.68,10.48,8.58,16A173.16,173.16,0,0,0,642.51,215s-2.36-9.19,0-14.7,1.18-13-4.2-24.94S622.56,147.9,626.24,138Z"/><path class="cls-5" d="M604.63,138s12.59,5.77,20.64,14,9.28,16.68,9.28,16.68a33.48,33.48,0,0,1-16.62-8.61C610.58,152.89,604.63,138,604.63,138Z"/><path class="cls-17" d="M608.44,144.05c7.67,19.86,22,23.15,22,23.15,5.73-8.63,10.67-16.65,14.93-24.09a157.13,157.13,0,0,1-29-10.43C611.82,139.32,608.44,144.05,608.44,144.05Z"/><path class="cls-16" d="M676.54,70.12c4.9-3.5,20.13-21.17,17.85-22.92s-12.77,8.93-12.77,8.93,10-15.58,7.52-16.63-12.25,13.13-12.25,13.13,7.7-16.45,5.43-17.33-11.2,15.4-11.2,15.4,8-16.45,4-17S665,52.1,665,52.1s-1-13.82-3.5-12.42-3.15,22.92-3.15,22.92-13,22.92-21.53,38.32c-5,9-13.93,22.33-20.43,31.76a157.13,157.13,0,0,0,29,10.43C672,96.7,672.32,73.14,676.54,70.12Z"/><path class="cls-2" d="M522.81,233.78c-.22,3.94-.44,8.29-.62,12.72,21.25,1.91,57.95,2,87.81-14.56.18-4.07.31-8,.35-11.49C580,236.36,543.29,235.79,522.81,233.78Z"/><path class="cls-20" d="M522.81,233.78c20.48,2,57.22,2.58,87.54-13.33,0-.85,0-1.68,0-2.47,0-5.66,2.55-13.63,6.09-21.55-30.37,23.32-72.51,26.69-93,26.81C523.26,226.05,523,229.69,522.81,233.78Z"/><path class="cls-20" d="M522.19,246.5c-.13,3.39-.23,6.82-.3,10.13,20.09,2.06,56.91,2.89,87.5-12.75.22-3.81.44-7.92.61-11.94C580.14,248.49,543.44,248.41,522.19,246.5Z"/><path class="cls-2" d="M521.89,256.63c-.07,3.65-.09,7.17,0,10.35,0,0,71.74-3.15,86.44-6.3,0,0,.56-7.52,1.09-16.8C578.8,259.52,542,258.69,521.89,256.63Z"/><path class="cls-2" d="M611.45,148.93c-4.54-7.43-6.82-10.91-6.82-10.91s-6.55,7.43-13.68,14.15c-18.92,23.42-58.13,26.66-79.42,26.55-1,3.44-2.48,7.7-4.08,12C528.56,191.88,588.75,191.17,611.45,148.93Z"/><path class="cls-20" d="M591,152.17c-5.53,5.21-11.41,10-14.85,10.52-7.87,1.22-47,2.89-47,2.89s-14.7-.79-16.53,8.92c-.22,1.17-.59,2.61-1.06,4.22C532.82,178.83,572,175.59,591,152.17Z"/><path class="cls-2" d="M634.55,168.69a39.79,39.79,0,0,1-13-6.78c-32.1,50.57-97.08,47.17-120.1,44.16-1.42,3.52-2.4,5.83-2.4,5.83s16.67,6.3,24.8,5.38c0,0-.17,2.28-.42,6,20.5-.12,62.64-3.49,93-26.81C622.09,183.79,630.24,171.31,634.55,168.69Z"/><path class="cls-20" d="M621.57,161.91a29.55,29.55,0,0,1-7-7.8c-1.15-1.9-2.19-3.62-3.15-5.18-22.7,42.24-82.89,42.95-104,41.81-2.07,5.6-4.32,11.27-6,15.33C524.49,209.08,589.47,212.48,621.57,161.91Z"/><path class="cls-17" d="M543.56,151.75s1.91,8.64-8.21,12.95c13,2.64,24.5-.93,34.69-7.62a34.19,34.19,0,0,1-2-8.31Z"/><path class="cls-16" d="M535.35,164.7a27.79,27.79,0,0,1-6.23,1.75,19.77,19.77,0,0,0,2.54,1.84c14.87,4.83,33.16,4.46,44.44-4.2,0,0-3.51-.7-6.06-7C559.85,163.77,548.31,167.34,535.35,164.7Z"/><path class="cls-16" d="M509.09,111.07a178.7,178.7,0,0,1,5.42,20c2.1,10.32,19.77,24.14,42,21.35s30.44-24.15,31.67-38.24c0,0,15.22-.78,11.2-16.36S583.1,95.5,583.1,95.5,567.7,98,560.18,88.32s-1.92-15.4-15.4-16.1S528,77.3,528,77.3,526.93,88,519.76,94.1,508.56,105,509.09,111.07Z"/><path class="cls-16" d="M475.92,263.87s4.91,12.44,6.5,19.75c0,0,24.14-18.65,35.89-40.25A167.44,167.44,0,0,0,497,226.46C492,238.38,484,255.2,475.92,263.87Z"/><path class="cls-17" d="M523.87,217.28s-12.47-.8-21.59-4.25c0,0-2,5.68-5.28,13.43a167.44,167.44,0,0,1,21.31,16.91,56.07,56.07,0,0,0,4.92-11.84Z"/><path class="cls-14" d="M526,165.66s-3.76,35.35-2.1,51.62-4.46,29.4-6.91,36.92-1.75,100.66,2.62,114.13h39l-2.28-28.21a34.69,34.69,0,0,0,9.28-1.58s.7,20.21,1.4,29.79h50.21s3.33-37,2.45-46.76S608.12,260,608.3,260.68s-13.47-5.25-19.77-20-8.75-46-8.75-46l.43-33.81-5.33,1.44.52,42.52s-45.32,2.27-45.32,3l.36-42.31Z"/><path d="M514.83,110.92c1-3.24,3.93-6.06,6.09-8.58s4.5-4.57,6.84-6.8c.65-.61-.29-1.51-1-1a54.26,54.26,0,0,0-7.58,7.8c-2,2.44-4.37,5.26-5.22,8.31a.43.43,0,0,0,.82.23Z"/><path d="M551.43,90.19c7.3.47,14.51,4.85,21,8a.59.59,0,0,0,.59-1,51.63,51.63,0,0,0-10.53-5.08c-3.49-1.28-7.25-2.95-11-2.67a.38.38,0,0,0,0,.76Z"/><path d="M589.6,108.1a15.29,15.29,0,0,1-1.79-6.61c-.19-3.69,2.7-7.42,6.58-5.7.68.3,1.44-.5.84-1.09-2.85-2.83-6.51-.26-8.27,2.49-2.15,3.38-.54,8.76,2,11.43a.43.43,0,0,0,.68-.52Z"/><path d="M587.26,104.48h0a.3.3,0,0,0,.28-.22,5.16,5.16,0,0,0,.08-.78,2.51,2.51,0,0,1,.94-1.57,4.66,4.66,0,0,1,1.58-1c.64-.25,1.32-.08,2-.31a.63.63,0,0,0-.17-1.23,5,5,0,0,0-4.23,1.64,3.5,3.5,0,0,0-.72,3.25.24.24,0,0,0,.23.17Z"/><path d="M545,121.89c-.65-1.28-1.31-2.56-2-3.84a9.6,9.6,0,0,0,1.61-.08,5.3,5.3,0,0,0,1.64-.64,4.9,4.9,0,0,0,1-4.22c-1.07-6.42-4.84-12.51-8.72-17.62-.54-.71-1.77,0-1.23.71a77.61,77.61,0,0,1,6,9.74c.78,1.51,5.43,10.46-.23,10.75a5.78,5.78,0,0,0-3,.63c-3.75,2.2,3.3,5.32,4.93,5.24a.34.34,0,0,0,0-.67Z"/><path d="M520.4,273c5.83,2.09,11.82,2.27,17.94,2.61,7.6.42,15.22.45,22.82.36,14.05-.17,28.85-1.1,41.17-8.58a.47.47,0,0,0-.48-.81c-13,6.23-26.48,7.69-40.69,7.94q-10.47.18-20.94-.15c-6.51-.2-13.41,0-19.69-1.84-.31-.1-.43.36-.13.47Z"/><path d="M534.37,343.77c7.36.36,15-2.58,22.18-3.91,9-1.65,17.38-2.56,26-5.79.85-.32.52-1.66-.38-1.38a145.71,145.71,0,0,1-22.51,5.18c-8.4,1.27-16.87,4.72-25.33,5.07a.42.42,0,0,0,0,.83Z"/><path d="M556.45,326.56c.89-16.81-2.48-33.42-2.48-50.13a.7.7,0,0,0-1.4,0c0,16.71,3.45,33.35,3.29,50.13a.3.3,0,0,0,.59,0Z"/><path d="M589.13,273.64c1.23,4.29,5,8.65,7.81,12,4.2,5.1,9.25,10.53,15.36,13.29.55.24,1.22-.45.69-.9-8.55-7.21-17.92-14.45-23.18-24.72-.19-.38-.79-.11-.68.29Z"/><path d="M517.64,308c3.79-4.41,7.13-8.57,9.42-14,2.16-5.13,2.92-10.73,5.18-15.83.44-1-1-1.9-1.51-.88-1.89,4.15-2.81,8.68-4.14,13-2.06,6.72-6.2,11.23-9.68,17.09-.27.45.38,1,.73.57Z"/><path d="M613.71,366.54c2.47-9.78,2.54-20.61,3-30.67a122.62,122.62,0,0,0-.65-16.59c-.37-4.22-.49-8.89-2.06-12.85-.31-.8-1.58-.49-1.31.36,2.61,8.28,2.57,18.49,2.56,27.12,0,5.25-.63,10.51-1,15.74-.42,5.61-.24,11.14-1.21,16.71-.08.44.56.63.67.18Z"/><path d="M556.64,320.44l.22.3a.42.42,0,0,0,.58.15c5.23-2.89,3.56-12.32,3.6-17.17.08-8.78.07-18.72-2.27-27.24a.8.8,0,0,0-1.55.42c1.92,6.77,1.88,14.33,2.27,21.31.2,3.48.2,7,.2,10.44,0,1.26-.58,12.66-2.56,11.3-.29-.2-.71.2-.49.49Z"/><path d="M530.43,215.35c7.77.13,15.54.76,23.31.42a69,69,0,0,0,9.16-1.24c3.48-.62,7.05-.1,10.43-1.2.45-.15.4-.92-.11-.86-3,.36-6,.21-8.93.51-3.54.36-7,1.21-10.55,1.49-7.75.6-15.54-.19-23.31.19a.35.35,0,0,0,0,.69Z"/><path class="cls-15" d="M548.86,133.79a7.46,7.46,0,0,0,6.64-.54c3.57-2,3.78-5.34,3.27-8A16.94,16.94,0,0,0,548.86,133.79Z"/><path d="M544.61,130.49a10.65,10.65,0,0,0,4.25,3.3,16.94,16.94,0,0,1,9.91-8.5,14.51,14.51,0,0,0-1.3-3.72C551.83,122.88,544.61,130.49,544.61,130.49Z"/><path d="M562.55,107.81c.44,1.48,0,2.91-.89,3.19s-2.06-.7-2.5-2.18,0-2.91.89-3.19S562.11,106.33,562.55,107.81Z"/><path d="M529,114.81c.39,1.49-.07,2.9-1,3.15s-2-.77-2.41-2.27.07-2.91,1-3.15S528.61,113.31,529,114.81Z"/><path class="cls-17" d="M580.93,117.64c1.16,3.56-1.58,7.66-6.13,9.14s-9.18-.19-10.34-3.76,1.57-7.65,6.12-9.14S579.76,114.07,580.93,117.64Z"/><path class="cls-17" d="M537.78,130.33c0,3.75-3.85,6.8-8.63,6.82s-8.68-3-8.69-6.75,3.85-6.81,8.64-6.83S537.77,126.58,537.78,130.33Z"/><path class="cls-12" d="M95,51.37a18.89,18.89,0,0,0-9.58-.14c-10.54,2.54-20.31,7.41-21.71,20A73.21,73.21,0,0,0,95,51.37Z"/><path class="cls-11" d="M95,51.37A73.21,73.21,0,0,1,63.72,71.2c0,.4-.1.78-.13,1.2-.88,13.47,9.1,16.27,9.1,16.27C93.69,89,104.36,75,105.58,65.4,106.43,58.73,101.65,53.24,95,51.37Z"/><path class="cls-11" d="M58.05,113.77c0,13.25,6,15.59,7.3,19.06,25.14-10.75,56.35-21.58,63.24-48a32.77,32.77,0,0,1-2.18-6A282.12,282.12,0,0,1,58.05,113.77Z"/><path class="cls-11" d="M128.65,77.31l-2.24,1.58a32.77,32.77,0,0,0,2.18,6A42,42,0,0,0,129.76,78Z"/><path class="cls-12" d="M129.91,76.42c-.42.31-.84.6-1.26.89l1.11.73C129.81,77.5,129.88,77,129.91,76.42Z"/><path class="cls-11" d="M129.76,78a42,42,0,0,1-1.17,6.82c5.74,11.9,18.54,20.32,32.38,22.74a71.75,71.75,0,0,0-3.34-16.07C147.6,88.88,138.41,83.65,129.76,78Z"/><path class="cls-12" d="M128.65,77.31c.42-.29.84-.58,1.26-.89,0,.55-.1,1.08-.15,1.62,8.65,5.61,17.84,10.84,27.87,13.49-.2-.6-.38-1.2-.6-1.81-5.6-15.75-20.12-28-52-22,0,0-38.85,1.57-45.32,32.19a68.49,68.49,0,0,0-1.69,13.9,282.12,282.12,0,0,0,68.36-34.88,31.31,31.31,0,0,1-.7-3.52C126.68,76,127.66,76.67,128.65,77.31Z"/><path class="cls-12" d="M125.71,75.37a31.31,31.31,0,0,0,.7,3.52l2.24-1.58C127.66,76.67,126.68,76,125.71,75.37Z"/><path class="cls-12" d="M89.35,122.45c-8,3.77-16.28,7.08-24,10.38a4,4,0,0,1,0,2.74c-2.28,7-13.65,15.92-10.67,28.52S61,181.59,61,181.59s6.65,3,12.43,3.32l3-15.75,1.39,15.75s4.28-.38,10.82-1C93.14,163.56,95.39,142.13,89.35,122.45Z"/><path class="cls-11" d="M128.59,84.86c-4.77,18.28-21.22,29.1-39.24,37.59,6,19.68,3.79,41.11-.77,61.43,18.18-1.8,53.88-5.6,64.42-8.72v-9.85l3.33,8.93,5.56-1.6c-12.25-20.8-16.94-46.95-17.34-71.08A39.94,39.94,0,0,1,128.59,84.86Z"/><path class="cls-12" d="M164.2,152c-3.85-13.47-3.67-19.07-3.32-26.77A117.12,117.12,0,0,0,161,107.6a49.27,49.27,0,0,1-16.42-6c.4,24.13,5.09,50.28,17.34,71.08l4.76-1.38S168.05,165.49,164.2,152Z"/><path class="cls-18" d="M163.91,271.87l-52,4.73s-4.61,12.59-8.68,25.56c20.93-9.37,44.25-14.39,67.16-17C166.78,277.29,163.91,271.87,163.91,271.87Z"/><path class="cls-15" d="M170.43,285.12c-22.91,2.65-46.23,7.67-67.16,17a203.07,203.07,0,0,0-5.38,19.76c-3,15.05,2.62,47.77,2.62,47.77H185.2s2.45-21,0-41.65C183.71,315.45,176.12,297.34,170.43,285.12Z"/><path class="cls-17" d="M183,205.46l-11.13,19.82s2.32,5.43,5.78,12.1c4.93-7.51,7.52-16.11,8.83-25Z"/><path class="cls-16" d="M209.87,208.18c-.74-12.79-1.05-13.65-1.05-13.65s2.45-9.09-3.5-12.42c0,0,3.85-12.6.35-15.4S202,180.89,202,180.89s-2.63-15-5.08-14.49,1.58,16.41,1.58,16.41-4.2.18-3.85,8.05-1.05,35.7-1.05,35.7l-7.16-14.2c-1.31,8.91-3.9,17.51-8.83,25,5.44,10.48,13.73,24,20.36,24.35C208.82,262.25,211.27,233.91,209.87,208.18Z"/><path class="cls-2" d="M108.38,187.36s-19.94,4.2-26.42,16.8-10.32,32.72-10.32,32.72,7.7,9.8,26.25,13.47c0,0,5.42,11,5.59,15.93s1.4,11.19,4.9,13.12,8.4-1.57,18.9-2.1,28.87-4.2,34.12-4.55,10-10.15,11.73-19.42-1-25.72-1.75-27,7.87-6.47,12.25-23.27c0,0-7.18-16.62-14.7-22.05s-12.78-6.65-22.05-4.37S108.38,187.36,108.38,187.36Z"/><path class="cls-16" d="M108.38,187.36s4.38,3.85,19.43,0,19.07-10.67,19.07-10.67-5.85.05-8.67-8.82a88.33,88.33,0,0,1-21.2,7.2C115.74,179.68,113.24,184.49,108.38,187.36Z"/><path class="cls-17" d="M118.19,162.72A38.12,38.12,0,0,1,117,175.07a88.33,88.33,0,0,0,21.2-7.2,31.45,31.45,0,0,1-1.26-6.62Z"/><path class="cls-16" d="M87.21,120.34s-12.42-1.57-10.67,12.43,13.82,7.7,13.82,7.7S97.2,164,125.53,163c24.85-.88,36.75-18.55,34.12-36.22s-5.6-26.07-5.6-26.07-15.4-8.23-23.62-16.28C130.43,84.47,103.31,113.7,87.21,120.34Z"/><path class="cls-17" d="M123.26,142.57c0,3.05-4.15,5.53-9.28,5.53s-9.27-2.48-9.27-5.53S108.86,137,114,137,123.26,139.51,123.26,142.57Z"/><path class="cls-17" d="M156.51,135.84c.82,2.59-2,5.8-6.35,7.18s-8.5.4-9.32-2.18,2-5.79,6.34-7.17S155.68,133.26,156.51,135.84Z"/><path class="cls-16" d="M23.31,318.11l0,0Z"/><path class="cls-16" d="M65.34,275.9c-5.25,4.55-39.37,25-39.37,25s-16.8-3.32-20.12,0,7.87,6.48,7.87,6.48S-1.15,318.07.07,319.82s14.35-7.7,14.35-7.7-9.8,10-9.1,12.42,12.77-9.62,12.77-9.62-6.82,12.25-5.42,13.82,10.07-9.88,10.64-10.63l0,0,0,0c-.32.42-6.18,8.18-3.29,10.77s15.57-13.26,15.57-13.26,40-21,49.84-29.22c6.95-5.81,9.5-12.69,11-22.39A80,80,0,0,1,72,258C70.15,265.83,67.8,273.77,65.34,275.9Z"/><path class="cls-17" d="M75.33,240.4S74,249.13,72,258a80,80,0,0,0,24.45,6c.6-4,1-8.52,1.49-13.66C97.89,250.35,84.62,247.24,75.33,240.4Z"/><path class="cls-17" d="M194.91,187s2.19,9.32,4.46,9-1.47-13.11-1.47-13.11S196.05,183.2,194.91,187Z"/><path class="cls-17" d="M205.32,182.11s-5.07,11-3.15,12.07,5.08-8.22,5.08-8.22-4.29,10.5-2.76,11.72,5.65-3.56,4.82-7.78S208.65,183.34,205.32,182.11Z"/><path d="M80.8,127.58c1.76-2.28,6.34-2.94,8.2-.46,2.2,2.91.58,7-.38,9.94a.49.49,0,0,0,.82.47c2.58-3.06,2.81-9.14-.22-12-2.36-2.22-7.51-1.07-8.94,1.65-.17.31.28.71.52.4Z"/><path d="M84.5,130.83c1.15,0,2.16-.44,3.33-.12a2.88,2.88,0,0,1,1.74,1.54.36.36,0,0,0,.62,0c.57-.91-.69-1.77-1.38-2.13-1.48-.77-2.81-.15-4.31,0a.34.34,0,0,0,0,.67Z"/><path d="M105.07,121.65c1.35-2.14,2.38-4.48,3.8-6.61a16.91,16.91,0,0,1,7.55-6c.6-.23.59-1.28-.16-1.22-2.9.24-5.6,3-7.45,5-2.26,2.42-3.36,5.48-4.51,8.49-.17.46.53.71.77.32Z"/><path d="M144.8,106.42c1.75,1,3.61,1.9,5.41,2.82,2,1,3,3.42,4.78,4.71.79.57,1.53-.74.75-1.3-1.82-1.31-2.76-3.57-4.84-4.59a29.17,29.17,0,0,0-5.8-2.36.4.4,0,0,0-.3.72Z"/><path d="M129.77,137.46h-.06a.44.44,0,0,0-.41.31c-.27.86,1,2,1.54,2.56a5.52,5.52,0,0,0,4.18,1.82c1-.09,1-1.58,0-1.53a4.75,4.75,0,0,1-3.24-1.23,7,7,0,0,1-1.71-1.72v.42l0-.06a.38.38,0,0,0-.33-.57Z"/><path d="M136.2,134.91c2.57-1.64,4.6-3.33,5.31-6.39a2.66,2.66,0,0,0-2.38-3.42c-1,0-1.88.87-2.56,1.43-3.78,3.09-3.74-3.41-3.9-5.35-.45-5.6.11-11.2-.08-16.8a.59.59,0,0,0-1.17,0c.05,4.45-.19,8.9-.11,13.35,0,3-.23,7.33,1.06,10.13.67,1.43,1.1,1.88,2.59,1.62.55-.1,1.48-1.16,1.85-1.53,1.16-1.51,2.07-.65,2.75,2.59-.67,1.38-2.57,2.82-3.66,4-.19.2.06.54.3.39Z"/><path d="M120.83,130.36c-.33-2.62-.88-8.39-4.59-8.41a5.26,5.26,0,0,0-4.85,3.15c-1.34,2.63-.77,5.61-.61,8.41a.76.76,0,0,0,1.51,0c0-2.15-.44-4.23,0-6.36.43-1.92,2.31-4.5,4.6-3.51s2.23,5,3.47,6.84c.12.18.48.13.45-.12Z"/><path d="M144.67,126.35c.44-2.31,1.21-9.68,5.23-7.68,2.51,1.25,2.32,5.83,2.38,8.15,0,.79,1.27,1,1.43.19.59-3.18-.3-8.71-3.75-10-1.9-.7-3.94.69-4.9,2.22-1.34,2.16-.85,4.67-.8,7,0,.23.37.3.41.06Z"/><path d="M97.56,250.93a.44.44,0,0,0,.69.14c.34-.34,0-.82-.18-1.15a53.79,53.79,0,0,0-4.41-7.24c-.31-.4-1-.2-.87.36.59,1.91,2,3.59,3.12,5.26.34.54.67,1.07,1,1.6.16.24.32.48.47.72.25.4.11.45.18.15l.39-.22-.1,0a.28.28,0,0,0-.31.41Z"/><path d="M98.51,251.05c0-1.27-.15-2.53-.06-3.8a29.5,29.5,0,0,0,.25-4.6c0-.39-.65-.54-.74-.1a31.84,31.84,0,0,0-.18,8.5.37.37,0,0,0,.73,0Z"/><path d="M171,226.65a.76.76,0,0,0,0,.11.39.39,0,1,0,.66-.38c-.48-.57-.57-2.61-.79-3.34-.38-1.28-.84-2.53-1.3-3.77a39.44,39.44,0,0,0-2.83-6.57.42.42,0,0,0-.76.32c.65,2.9,2.11,5.66,3.19,8.42.48,1.24.89,2.5,1.29,3.76.18.55.16,1.33.64,1.73a.39.39,0,1,0,.38-.65l-.11-.05a.34.34,0,0,0-.41.42Z"/><path d="M170.86,226.11l-.06.16.81.11c.09-4.08,1.26-8.4.22-12.44-.11-.44-.71-.31-.75.1-.17,1.94.11,3.92.06,5.87,0,2.17-.43,4.3-.35,6.47,0,.62,1,.45.81-.11a1,1,0,0,1,0-.16.36.36,0,0,0-.69,0Z"/><path d="M110.68,290.59c8.71-4.69,20.07-5.26,29.7-6.34,4-.45,8-.64,12-1.25,4.1-.64,8.86-.43,12.74-1.71.7-.23.62-1.4-.19-1.35-9.48.56-19,2-28.42,3.2-8.47,1.05-19,1.68-26.2,6.77a.39.39,0,0,0,.4.68Z"/><path d="M142.19,276.6c1.38,15.33,1.82,30.7,3.33,46,1.45,14.73,1.62,29.83,4.28,44.38a.42.42,0,0,0,.82-.11c-.8-14.72-2.07-29.58-3.6-44.27q-1.19-11.52-1.88-23.1c-.47-7.67-.4-15.51-2.33-23-.09-.35-.66-.28-.62.08Z"/><path d="M150.2,278.61a1.93,1.93,0,1,1-1.92-2A2,2,0,0,1,150.2,278.61Z"/><path d="M151.08,292.26a1.93,1.93,0,1,1-1.93-2A2,2,0,0,1,151.08,292.26Z"/><path d="M153,321.75a1.93,1.93,0,1,1-1.92-2A2,2,0,0,1,153,321.75Z"/><path d="M156.85,356.74a1.93,1.93,0,1,1-1.92-2A2,2,0,0,1,156.85,356.74Z"/><path class="cls-5" d="M112,143a16.21,16.21,0,1,1,16.21-16.21A16.23,16.23,0,0,1,112,143Zm0-31.37a15.16,15.16,0,1,0,15.16,15.16A15.18,15.18,0,0,0,112,111.66Z"/><path class="cls-5" d="M155.37,143a16.21,16.21,0,1,1,16.2-16.21A16.23,16.23,0,0,1,155.37,143Zm0-31.37a15.16,15.16,0,1,0,15.15,15.16A15.18,15.18,0,0,0,155.37,111.66Z"/><path class="cls-5" d="M127.88,125.42l-.7-.78c.14-.13,3.67-3.15,12.9-1.38l-.2,1C131.16,122.62,127.91,125.39,127.88,125.42Z"/><path class="cls-10" d="M116.22,177.51s-31.2,8-37,12.83-17.45,16.5-6.82,24.8,15.74,8,16.4,6.3c1.29-3.34-11-10.24-11-10.24s12.07,7.54,15.09,6.23-9.19-11.22-9.19-11.22,9.19,8.4,12.6,6-9-10.63-9-10.63,11,5.64,13.12,4.33-9.58-10.89-9.58-10.89,10.1-6.6,17.58-7.7C108.38,187.36,115,181.82,116.22,177.51Z"/></g></g></svg>