<svg xmlns="http://www.w3.org/2000/svg" viewBox="0 0 714.82 439.51"><defs><style>.cls-1{fill:#e0e0e0;}.cls-2{fill:#fafafa;}.cls-3{fill:#f5f5f5;}.cls-4{fill:#fff;}.cls-5{fill:#ebebeb;}.cls-6{fill:#263238;}.cls-7{fill:#ae7461;}.cls-8{fill:#6f4439;}.cls-9{fill:#455a64;}.cls-10{fill:#ff725e;}.cls-11{fill:#ffbf9d;}.cls-12{fill:#ff9a6c;}.cls-13{opacity:0.3;}.cls-14{opacity:0.6;}</style></defs><g id="Layer_2" data-name="Layer 2"><g id="Background_Complete" data-name="Background Complete"><path class="cls-1" d="M543.84,157.14a36.18,36.18,0,0,0-15.49-5.33c-2.53-.26-5.3-.19-7.33,1.35a1.48,1.48,0,0,0-.75,1.34,1.63,1.63,0,0,0,.71.91c6.3,4.81,15.84,5.42,22.86,1.73"/><path class="cls-1" d="M543.44,156.7a75.44,75.44,0,0,1-10-8.8,25.34,25.34,0,0,1-6.28-11.6,4.67,4.67,0,0,1,.5-3.88c8,6.23,14.24,14.28,15.78,24.28"/><path class="cls-1" d="M543.76,157.08a36.2,36.2,0,0,1,.18-13.13,17.75,17.75,0,0,1,7-10.84c1.38,3.22.79,6.93-.18,10.29A50.32,50.32,0,0,1,543.82,158"/><path class="cls-1" d="M551.58,171.09c-4.75.58-8.88,3.08-12.43,6.29a23.48,23.48,0,0,0-7.1,12.2c4.65-.29,8.6-3.57,11.47-7.25s4.84-7.72,8-11.16"/><path class="cls-1" d="M553.27,173.33a30.66,30.66,0,0,1,3.54-29c2.71,9.62,1.71,20.48-3.54,29"/><path class="cls-1" d="M563.61,185.64a22.16,22.16,0,0,0-21.19,12.19c-.26.53-.5,1.19-.14,1.66a1.57,1.57,0,0,0,1.4.42c4.18-.28,7.88-2.79,10.93-5.65s5.71-6.16,9.09-8.64"/><path class="cls-1" d="M563.28,185a39.47,39.47,0,0,1-.4-22.05c.78-2.83,2.08-5.82,4.71-7.15a.93.93,0,0,1,.72-.13,1,1,0,0,1,.45.53,13.26,13.26,0,0,1,1.11,6.32,40.75,40.75,0,0,1-1,6.4c-.83,3.92-1.27,8.12-3.41,11.5a23.56,23.56,0,0,0-1.37,2.52c-.4.86-.41,1.16-.78,1.84"/><path class="cls-1" d="M590.62,189c-2-7.71.13-17,5-23.37.36-.46.83-1,1.42-.91.89.09,1.12,1.28,1.08,2.17A42.17,42.17,0,0,1,590.62,189"/><path class="cls-1" d="M593.09,190.72c9.36,2.44,20.1.07,27.89-5.67a22.61,22.61,0,0,0-15.1-1.85c-5,1.15-9.65,3.41-12.79,7.52"/><path class="cls-1" d="M595.17,185.59c5.24-8.55,15.29-14.13,25.31-14.63-1.15,4.07-4.5,7.24-8.28,9.15s-8,2.75-12.15,3.55c-1.62.32-3.83.66-4.88,1.93"/><path class="cls-1" d="M591.14,160.69c1.42-4.86,2.85-9.77,3.24-14.82s-.33-10.33-3-14.67c-4.9,9.48-5.4,20.56-.43,30"/><path class="cls-1" d="M607.63,152.36c5.73-10.41,17.42-18.73,29.24-19.89-4.56,11.35-17,20.13-29.24,19.89"/><path class="cls-1" d="M604,154.4c8.54,1.3,15.82,6.76,23.81,10.06a10.6,10.6,0,0,0,5.38,1,4.21,4.21,0,0,0,2.63-7.45,11.61,11.61,0,0,0-3.9-2.37c-8.7-3.62-18-3.71-27.18-1.51"/><path class="cls-1" d="M599.09,160.39c1.93.55,2.59,1.56,4.12,2.86a44.43,44.43,0,0,0,18,9.27c.69.17,1.6.24,1.94-.38s-.08-1.2-.47-1.69a24.81,24.81,0,0,0-10.9-7.4c-4.16-1.55-7.77-3.42-12.74-3"/><path class="cls-1" d="M593.51,124.2a34.11,34.11,0,0,0,26.19,8.91,1.82,1.82,0,0,0,1.19-.42c.66-.72-.13-1.83-.9-2.43-7.7-6-17-8.49-26.48-6.06"/><path class="cls-1" d="M600.12,121.78a36.52,36.52,0,0,1,32.68-5.39c-4.11,4.06-9.82,6.24-15.57,6.84a49.4,49.4,0,0,1-17.11-1.45"/><path class="cls-1" d="M597.49,105.15c-.75-7.68-.26-13.75-.8-21.47,0-.62-.17-1.36-.75-1.58-.8-.31-1.47.67-1.73,1.49A24.62,24.62,0,0,0,597.48,105"/><path class="cls-1" d="M596.94,106a45.16,45.16,0,0,0,12.73-12.37c2.52-3.44,4.64-7.57,4.07-11.79a12.2,12.2,0,0,0-9.19,4.56,25.8,25.8,0,0,0-4.68,9.42c-1,3.38-1.73,6.86-2.93,10.18"/><path class="cls-1" d="M609.45,102.53a102.65,102.65,0,0,0,31.33-18.48c-3.74-1.51-8-.6-11.77.91-8.55,3.45-15.53,9.27-19.72,17.48"/><path class="cls-1" d="M600.46,110.21c5.78.63,11.66,1,17.4.08s11-3.18,16.24-5.4a1.9,1.9,0,0,0,1.1-.83,1.26,1.26,0,0,0-.39-1.39,3.36,3.36,0,0,0-1.39-.65c-5.73-1.61-11.91-.85-17.55,1a81.3,81.3,0,0,0-15.41,7.14"/><path class="cls-1" d="M567.43,124.47c-3.95-8-3.69-17.27-.28-25.48,2.4,3.66,2.69,8.32,2.25,12.67s-1.76,8.83-1.85,13.2"/><path class="cls-1" d="M551.67,116.51a35.53,35.53,0,0,0-26.4,11.25c4.92.77,10-.5,14.45-2.68a73.17,73.17,0,0,0,12.39-8.29"/><path class="cls-1" d="M541.07,113c-4.82-.39-9.46-1-14.09.43s-8.86,4.65-10.75,9.11a25.42,25.42,0,0,0,13.22-2.5,75.69,75.69,0,0,0,11.62-7"/><path class="cls-1" d="M556.76,113.13c-4.34-2.84-8.79-5.73-13.84-6.91s-10.9-.31-14.42,3.5c4.09,2.4,9,2.68,13.79,2.68s10.54-.06,15,1.52"/><path class="cls-1" d="M556.79,113.36c-7.42-7.28-10.23-20.35-7.24-30.31a46.27,46.27,0,0,1,7.24,30.31"/><path class="cls-1" d="M577.17,92.74c1.4-3.25,2.38-6.66,3.64-10A28.47,28.47,0,0,1,586,73.58a13.62,13.62,0,0,1,9.18-4.76,37,37,0,0,1-17.82,24"/><path class="cls-1" d="M573.48,97c-2.31-3.18-5-7.5-8.12-9.88s-7.23-3.82-11.05-2.9A25.7,25.7,0,0,0,573.48,97"/><path class="cls-1" d="M574.22,93a55.18,55.18,0,0,1-3.66-11.84c-.61-4.1-.24-8.47,1.86-12,4.07,7.69,5.38,15.95,2,24"/><path class="cls-1" d="M577.21,69.12c2.3-7.63,9.28-13.24,16.82-15.82a6.39,6.39,0,0,1,3-.44,2.57,2.57,0,0,1,2.18,1.81c.27,1.3-.8,2.46-1.81,3.32a57.4,57.4,0,0,1-20.14,11.13"/><path class="cls-1" d="M577.29,62.88c.29-4.92.6-9.9,2.2-14.56s4.68-9,9.16-11.07c.77,5-1.42,9.91-4.07,14.18s-5.82,8.31-7.41,13.07"/><path class="cls-1" d="M577.17,66.27c-1.91-5.56-2.1-12.62-5.43-17.46-2.33-3.39-6-5.69-8.06-9.28a14.13,14.13,0,0,0,.47,10.53,30.57,30.57,0,0,0,6.16,8.81c2.46,2.63,4.57,4.61,6.86,7.4"/><path class="cls-1" d="M577.21,229.92c-.15,0-.28-37.07-.29-82.79s.1-82.8.25-82.8.28,37.06.29,82.8S577.35,229.92,577.21,229.92Z"/><path class="cls-1" d="M609.6,118.87a7.18,7.18,0,0,1-1.39.52l-3.84,1.3c-3.23,1.1-7.67,2.7-12.5,4.67s-9.27,3.71-11.84,5.94a8.77,8.77,0,0,0-2.38,3.14c-.37.87-.43,1.41-.48,1.4a1.07,1.07,0,0,1,0-.39,5.21,5.21,0,0,1,.27-1.08,8.33,8.33,0,0,1,2.32-3.36,20.89,20.89,0,0,1,5.14-3.19c2.05-1,4.33-2,6.75-2.95,4.84-2,9.31-3.53,12.59-4.54,1.63-.51,3-.89,3.89-1.14A8.64,8.64,0,0,1,609.6,118.87Z"/><path class="cls-1" d="M620.22,92.79a2.39,2.39,0,0,1-.39.42l-1.19,1.11-4.44,4-14.78,13.16c-5.77,5.13-10.76,10-14.21,13.74-1.73,1.84-3.09,3.37-4,4.44l-1.08,1.22a2.71,2.71,0,0,1-.4.41,3.06,3.06,0,0,1,.32-.47c.22-.3.55-.75,1-1.3.88-1.11,2.2-2.68,3.9-4.56a185.71,185.71,0,0,1,14.13-13.88c5.79-5.13,11.06-9.73,14.89-13.05l4.55-3.9,1.26-1A2,2,0,0,1,620.22,92.79Z"/><path class="cls-1" d="M593.19,116.74c-.15-.07,1.06-2.85,2.26-6.37s1.78-6.49,1.93-6.46a21.63,21.63,0,0,1-1.43,6.63,43.49,43.49,0,0,1-1.79,4.46A6.85,6.85,0,0,1,593.19,116.74Z"/><path class="cls-1" d="M577.24,139.18a7.43,7.43,0,0,1-.89-1c-.6-.78-1.37-1.76-2.28-2.92-1.91-2.48-4.55-5.89-7.52-9.63s-5.69-7.09-7.66-9.51l-2.33-2.88a6.3,6.3,0,0,1-.8-1.1,8.33,8.33,0,0,1,1,1c.59.65,1.43,1.59,2.46,2.78,2.05,2.36,4.82,5.68,7.79,9.42s5.57,7.19,7.41,9.73c.92,1.26,1.65,2.3,2.14,3A7.1,7.1,0,0,1,577.24,139.18Z"/><path class="cls-1" d="M570.14,130.06a13,13,0,0,1-3-5.57,16,16,0,0,1-.67-5.62l.23,0c-.1.43-.18.66-.22.65s0-.25,0-.69l.24,0a24.73,24.73,0,0,0,.95,5.47A39.84,39.84,0,0,0,570.14,130.06Z"/><path class="cls-1" d="M561,118.52a10,10,0,0,0-2.08-1.2,13.79,13.79,0,0,0-5.77-.46,34.88,34.88,0,0,0-5.81.94,18.47,18.47,0,0,1-2.39.57,8.44,8.44,0,0,1,2.29-.94,26.45,26.45,0,0,1,5.87-1.11A12.48,12.48,0,0,1,559,117,3.67,3.67,0,0,1,561,118.52Z"/><path class="cls-1" d="M558.79,115.73c0,.08-1.21-.49-3.18-1.16a31.83,31.83,0,0,0-16-1.22c-2.05.36-3.29.75-3.32.66a3,3,0,0,1,.84-.36,20.21,20.21,0,0,1,2.41-.68,28.38,28.38,0,0,1,16.24,1.24,21.6,21.6,0,0,1,2.27,1C558.53,115.52,558.81,115.69,558.79,115.73Z"/><path class="cls-1" d="M577.17,103.91a67.84,67.84,0,0,1-2.32-8.07,64.25,64.25,0,0,1-1.8-8.19,66.6,66.6,0,0,1,2.32,8.06A65.89,65.89,0,0,1,577.17,103.91Z"/><path class="cls-1" d="M577.32,103.91a38.82,38.82,0,0,0-2.58-4.83A20.89,20.89,0,0,0,571,95.17a3.44,3.44,0,0,1,1.46.75,11.78,11.78,0,0,1,2.76,2.85A10.77,10.77,0,0,1,577.32,103.91Z"/><path class="cls-1" d="M577.21,210.15c-.06,0-.17-.89-.59-2.46a35.35,35.35,0,0,0-2.47-6.42c-2.57-5.23-7.23-11.87-13.15-18.52-2.93-3.35-5.78-6.51-8.2-9.54a67.1,67.1,0,0,1-5.86-8.45,41.15,41.15,0,0,1-3-6.28c-.27-.77-.47-1.37-.58-1.79a2.67,2.67,0,0,1-.15-.64s.32.85.93,2.36a45.36,45.36,0,0,0,3.09,6.15,69.94,69.94,0,0,0,5.92,8.34c2.42,3,5.28,6.14,8.21,9.5,5.94,6.67,10.59,13.39,13.09,18.71a31.85,31.85,0,0,1,2.33,6.53,15.87,15.87,0,0,1,.33,1.86A2.67,2.67,0,0,1,577.21,210.15Z"/><path class="cls-1" d="M606.48,177.09A13.39,13.39,0,0,1,605,178a33.46,33.46,0,0,0-4,2.63,45.88,45.88,0,0,0-5.23,4.77c-1.83,1.94-3.72,4.19-5.65,6.6-3.86,4.84-7.46,9.12-9.62,12.53-1.1,1.7-1.9,3.13-2.42,4.13a13.51,13.51,0,0,1-.84,1.54,1.38,1.38,0,0,1,.14-.43c.11-.28.27-.69.51-1.2a38.9,38.9,0,0,1,2.29-4.24c2.09-3.5,5.67-7.84,9.52-12.67,1.93-2.41,3.85-4.67,5.71-6.6a43,43,0,0,1,5.36-4.73,28.22,28.22,0,0,1,4.11-2.51,12.65,12.65,0,0,1,1.2-.53C606.32,177.12,606.47,177.07,606.48,177.09Z"/><path class="cls-1" d="M607.05,187.82a23.08,23.08,0,0,1-3.24.47,43,43,0,0,0-7.69,1.51,23.36,23.36,0,0,0-6.89,3.62c-1.58,1.22-2.33,2.24-2.41,2.18a2.59,2.59,0,0,1,.48-.75,13.06,13.06,0,0,1,1.69-1.73,21,21,0,0,1,7-3.83,34.73,34.73,0,0,1,7.81-1.38A17.17,17.17,0,0,1,607.05,187.82Z"/><path class="cls-1" d="M587.77,194.42c-.17-.1,1.29-2.33,2.43-5.33s1.31-5.69,1.5-5.66a5.06,5.06,0,0,1-.05,1.74,18.88,18.88,0,0,1-.95,4.1,19.79,19.79,0,0,1-1.88,3.76A5.31,5.31,0,0,1,587.77,194.42Z"/><path class="cls-1" d="M616,148.29a2.29,2.29,0,0,1-.52.28l-1.52.69c-.67.29-1.48.65-2.39,1.13s-2,1-3.1,1.63l-1.77,1c-.61.35-1.22.77-1.87,1.17-1.3.79-2.61,1.77-4,2.76a68.77,68.77,0,0,0-15.43,16c-.94,1.43-1.87,2.77-2.62,4.1-.38.66-.78,1.28-1.11,1.91s-.64,1.22-.94,1.8c-.63,1.13-1.08,2.22-1.52,3.15s-.79,1.75-1,2.43l-.64,1.54a2.35,2.35,0,0,1-.26.53,2.4,2.4,0,0,1,.16-.56l.54-1.59c.24-.69.54-1.52,1-2.47s.85-2,1.46-3.2c.29-.59.6-1.2.92-1.83s.71-1.27,1.09-1.93c.73-1.35,1.66-2.71,2.6-4.16a65.94,65.94,0,0,1,15.54-16.08c1.41-1,2.73-1.95,4.06-2.73.65-.4,1.27-.82,1.89-1.16l1.8-1c1.13-.65,2.22-1.12,3.15-1.57a26.3,26.3,0,0,1,2.44-1.05l1.56-.6A2.68,2.68,0,0,1,616,148.29Z"/><path class="cls-1" d="M592.79,163.82a3.77,3.77,0,0,1,1.28-1.9,8,8,0,0,1,5.13-2,14,14,0,0,1,5.4,1.05,7.33,7.33,0,0,1,2,1,13,13,0,0,1-2.16-.64,16.61,16.61,0,0,0-5.26-.88,8.4,8.4,0,0,0-4.91,1.73A15,15,0,0,0,592.79,163.82Z"/><path class="cls-1" d="M589.33,167.39a19.52,19.52,0,0,0,1.46-4.74,19.18,19.18,0,0,0-.33-5c.06,0,.35.48.6,1.38a9.74,9.74,0,0,1-.83,7.1C589.78,167,589.38,167.43,589.33,167.39Z"/><path class="cls-1" d="M551.6,215.47c.8,14.16,5.07,28.57,11.64,43.14h28.55c6.27-14.42,10.24-28.81,11-43.14Z"/><path class="cls-2" d="M598.11,238.39c0,.15-9.4.27-21,.27s-21-.12-21-.27,9.4-.27,21-.27S598.11,238.24,598.11,238.39Z"/><path class="cls-2" d="M597.47,243.52c0,.15-8.81.27-19.68.27s-19.69-.12-19.69-.27,8.81-.26,19.69-.26S597.47,243.38,597.47,243.52Z"/><path class="cls-2" d="M563.7,224.77a40.15,40.15,0,0,1,.27,6.58,40.07,40.07,0,0,1-.27,6.57,40.07,40.07,0,0,1-.27-6.57A40.15,40.15,0,0,1,563.7,224.77Z"/><path class="cls-2" d="M579,224.77a43.06,43.06,0,0,1,.27,6.81,43.06,43.06,0,0,1-.27,6.81,43.06,43.06,0,0,1-.27-6.81A43.06,43.06,0,0,1,579,224.77Z"/><path class="cls-2" d="M593.36,224.65a44.81,44.81,0,0,1,.27,6.95,44.81,44.81,0,0,1-.27,7,44.81,44.81,0,0,1-.27-7A44.81,44.81,0,0,1,593.36,224.65Z"/><path class="cls-2" d="M601.83,224.77c0,.15-11,.27-24.63.27s-24.63-.12-24.63-.27,11-.27,24.63-.27S601.83,224.62,601.83,224.77Z"/><polygon class="cls-1" points="192.61 4.21 192.61 81.42 81.72 81.42 77.72 4.76 192.61 4.21"/><rect class="cls-3" x="94.92" y="-12.44" width="76.5" height="110.89" transform="translate(90.16 176.18) rotate(-90)"/><path class="cls-1" d="M189.14,81.79H77.2V4.23H189.14ZM78.25,80.73H188.09V5.28H78.25Z"/><rect class="cls-4" x="89.73" y="14.26" width="86.87" height="57.49"/><path class="cls-1" d="M176.6,14.26l-.42,0h-1.24l-4.77,0-17.9.07-62.54.12.26-.25c0,17.57,0,37,0,57.49h0l-.28-.28,86.87.06-.21.22c0-17.5.08-31.85.11-41.84,0-5,0-8.89.06-11.56,0-1.33,0-2.34,0-3s0-1.06,0-1.06,0,.34,0,1,0,1.69,0,3c0,2.66,0,6.55.06,11.52,0,10,.06,24.41.11,42V72h-.22L89.73,72h-.27v-.27h0c0-20.46,0-39.92,0-57.49V14h.25l62.7.12,17.85.07,4.72,0,1.21,0Z"/><path class="cls-1" d="M77.72,4.54a9.17,9.17,0,0,1,1.91,1.24c1.13.81,2.68,2,4.35,3.31s3.13,2.6,4.17,3.55a8.54,8.54,0,0,1,1.58,1.62c-.1.12-2.77-2.08-6.1-4.74A61.51,61.51,0,0,1,77.72,4.54Z"/><path class="cls-1" d="M188.61,4.76a53.21,53.21,0,0,1-5.83,5,52.55,52.55,0,0,1-6.18,4.54,54.54,54.54,0,0,1,5.84-5A54.55,54.55,0,0,1,188.61,4.76Z"/><path class="cls-4" d="M188.53,81.27l-12.37-10"/><path class="cls-1" d="M176.16,71.25a57.28,57.28,0,0,1,6.36,4.8,59.61,59.61,0,0,1,6,5.22,57.28,57.28,0,0,1-6.36-4.8A58.16,58.16,0,0,1,176.16,71.25Z"/><path class="cls-1" d="M77.72,81.26a53.94,53.94,0,0,1,5.78-4.92,53.11,53.11,0,0,1,6.11-4.48,51.37,51.37,0,0,1-5.77,4.91A51.17,51.17,0,0,1,77.72,81.26Z"/><rect class="cls-1" x="125.08" y="14.47" width="19.25" height="54.66" transform="translate(92.9 176.5) rotate(-90)"/><ellipse class="cls-5" cx="363.88" cy="353.2" rx="345.06" ry="86.31"/><path class="cls-4" d="M358.76,428.74c-83.64,0-162.28-7.84-221.44-22.09-59.36-14.29-92-33.39-92-53.77s32.69-39.49,92-53.78C196.48,284.86,275.12,277,358.76,277S521,284.86,580.2,299.1c59.36,14.29,92,33.39,92,53.78s-32.69,39.48-92,53.77C521,420.9,442.4,428.74,358.76,428.74Zm0-150.73C186.45,278,46.27,311.6,46.27,352.88s140.18,74.86,312.49,74.86,312.49-33.58,312.49-74.86S531.07,278,358.76,278Z"/><path class="cls-4" d="M351.68,403.31c-69.74,0-135.3-5.74-184.63-16.17-49.54-10.48-76.82-24.51-76.82-39.52s27.28-29,76.82-39.51c49.33-10.43,114.89-16.18,184.63-16.18S487,297.68,536.31,308.11c49.54,10.48,76.83,24.51,76.83,39.51s-27.29,29-76.83,39.52C487,397.57,421.42,403.31,351.68,403.31Zm0-110.38c-143.61,0-260.45,24.54-260.45,54.69s116.84,54.69,260.45,54.69,260.46-24.53,260.46-54.69S495.3,292.93,351.68,292.93Z"/><path class="cls-4" d="M351.68,386.69c-52.35,0-101.58-4.31-138.61-12.15-37.26-7.87-57.77-18.45-57.77-29.78s20.51-21.9,57.77-29.78c37-7.83,86.26-12.15,138.61-12.15S453.27,307.15,490.3,315c37.25,7.88,57.77,18.45,57.77,29.78s-20.52,21.91-57.77,29.78C453.27,382.38,404,386.69,351.68,386.69Zm0-82.86c-107.73,0-195.38,18.36-195.38,40.93S244,385.69,351.68,385.69s195.39-18.36,195.39-40.93S459.42,303.83,351.68,303.83Z"/><path class="cls-4" d="M342.66,375.87c-36.73,0-71.26-3-97.23-8.52-26.2-5.54-40.63-13-40.63-21s14.43-15.49,40.63-21c26-5.5,60.5-8.52,97.23-8.52s71.25,3,97.23,8.52c26.2,5.54,40.63,13,40.63,21s-14.43,15.49-40.63,21C413.91,372.84,379.38,375.87,342.66,375.87Zm0-58.1c-36.66,0-71.12,3-97,8.49-25.31,5.36-39.83,12.67-39.83,20.06s14.52,14.69,39.83,20.05c25.91,5.48,60.37,8.5,97,8.5s71.11-3,97-8.5c25.32-5.36,39.84-12.66,39.84-20.05s-14.52-14.7-39.84-20.06C413.77,320.78,379.31,317.77,342.66,317.77Z"/><rect class="cls-3" x="148.86" y="151.19" width="48.65" height="12.87"/><path class="cls-1" d="M176.94,177.61a1,1,0,0,1,0-.23v-.66c0-.61,0-1.45,0-2.53,0-2.22-.05-5.42-.08-9.45l.15.15-48.65.1c.11-.11-.25.25.24-.25h0v12.86l-.24-.24,34.67.11,10.23.07,2.77,0,.72,0h.26s-.07,0-.23,0l-.69,0-2.71,0-10.18.07-34.84.11H128V164.75h0c.49-.49.14-.13.25-.24l48.65.09h.15v.15c0,4.07-.06,7.29-.08,9.54,0,1.07,0,1.9,0,2.5,0,.26,0,.46,0,.63A1.23,1.23,0,0,1,176.94,177.61Z"/><rect class="cls-3" x="642.4" y="28.46" width="48.65" height="12.87"/><path class="cls-1" d="M670.48,54.89a2.07,2.07,0,0,1,0-.23l0-.66c0-.61,0-1.45,0-2.54,0-2.22,0-5.41-.09-9.44l.15.15-48.65.1.25-.25h0v6.52q0,3.22,0,6.33l-.24-.24,34.67.11,10.24.07,2.76,0,.73,0h.25s-.07,0-.22,0h-.69l-2.72,0L656.67,55l-34.84.11h-.24V48.56c0-1.07,0-2.16,0-3.25V42h0l.25-.25,48.65.1h.16V42c0,4.07-.07,7.29-.09,9.53,0,1.07,0,1.91,0,2.5,0,.26,0,.47,0,.64S670.49,54.9,670.48,54.89Z"/><rect class="cls-3" x="399.96" y="157.83" width="48.65" height="12.87"/><path class="cls-1" d="M428,184.26a1.35,1.35,0,0,1,0-.24v-.66c0-.6,0-1.45,0-2.53,0-2.22-.05-5.42-.08-9.44l.15.15-48.65.09.24-.24h0v12.85l-.24-.24,34.67.11,10.23.06,2.77,0h.72l.26,0h-.23l-.69,0-2.72,0-10.17.07-34.84.11h-.25V171.41h0l.25-.25,48.65.1h.15v.15c0,4.06-.07,7.29-.08,9.53,0,1.07,0,1.9,0,2.5,0,.26,0,.47,0,.63A1.66,1.66,0,0,1,428,184.26Z"/><path class="cls-1" d="M444.18,92.28a2.07,2.07,0,0,1,0-.23l0-.66c0-.61,0-1.45,0-2.54,0-2.22,0-5.41-.08-9.44l.15.15-48.65.1.25-.25h0V86q0,3.22,0,6.33l-.24-.24,34.67.11,10.23.07,2.77,0h.73l.25,0s-.07,0-.22,0h-.7l-2.71,0-10.18.07-34.84.11h-.24v-.24c0-2.07,0-4.18,0-6.33V79.43h0l.25-.25,48.65.1h.15v.15c0,4.07-.06,7.29-.08,9.53,0,1.07,0,1.9,0,2.5,0,.26,0,.47,0,.64S444.19,92.29,444.18,92.28Z"/><path class="cls-1" d="M60.55,98.37a1.35,1.35,0,0,1,0-.24v-.66c0-.6,0-1.45,0-2.53,0-2.22,0-5.42-.08-9.45l.15.15-48.65.1c.11-.11-.25.25.24-.25h0V98.36l-.25-.24,34.68.11,10.23.07,2.77,0,.72,0a.81.81,0,0,1,.26,0h-.23l-.69,0-2.72,0-10.18.07-34.84.11h-.24V85.5h0c.49-.49.14-.13.25-.24l48.65.09h.15v.15c0,4.07-.07,7.29-.09,9.54,0,1.07,0,1.9,0,2.5,0,.26,0,.47,0,.63A1.66,1.66,0,0,1,60.55,98.37Z"/><path class="cls-1" d="M698.07,149.1a1.35,1.35,0,0,1,0-.24v-.66c0-.6,0-1.45,0-2.53,0-2.22,0-5.42-.08-9.45l.15.16-48.65.09.24-.24h0V149.1l-.25-.25,34.68.11,10.23.07,2.77,0,.72,0,.26,0h-.23l-.69,0-2.72,0-10.18.07-34.84.11h-.24V136.23h0l.25-.25,48.65.09h.15v.15c0,4.07-.07,7.3-.09,9.54,0,1.07,0,1.9,0,2.5,0,.26,0,.47,0,.63A1.66,1.66,0,0,1,698.07,149.1Z"/><path class="cls-1" d="M539.2,12.92s0-.08,0-.23,0-.38,0-.65q0-.9,0-2.49c0-2.18,0-5.32-.09-9.28l.15.14-48.27.1.24-.24h0V6.7q0,3.17,0,6.22l-.24-.24,34.41.11,10.15.07,2.75,0H539l.25,0H539l-.69,0-2.69,0-10.1.07-34.58.11h-.24V.29h0l.25-.25,48.27.1h.15V.27c0,4-.06,7.16-.08,9.37,0,1,0,1.87,0,2.45,0,.26,0,.47,0,.63S539.21,12.92,539.2,12.92Z"/><path class="cls-1" d="M337.34,34.65a1.35,1.35,0,0,1,0-.24v-.66c0-.6,0-1.45,0-2.53,0-2.22,0-5.42-.08-9.44l.15.15L288.69,22l.24-.24h0V34.65l-.25-.25,34.68.11,10.23.07,2.77,0,.72,0,.26,0h-.23l-.69,0-2.72,0-10.18.07-34.84.11h-.24V21.8h0l.25-.25,48.65.09h.15v.16c0,4.06-.07,7.29-.09,9.53,0,1.07,0,1.9,0,2.5l0,.63A1.66,1.66,0,0,1,337.34,34.65Z"/><path class="cls-1" d="M343.93,21.78s0-.09,0-.25,0-.41,0-.68c0-.64,0-1.5,0-2.58,0-2.26-.05-5.45-.09-9.37l.17.18-29.23.07c-.22.22.3-.3.25-.24h0v6.6q0,3.24,0,6.24l-.24-.23,20.91.11,6.09.07,1.65,0,.58,0-.53,0-1.59,0-6,.07L314.7,22h-.23v-.24q0-3,0-6.24c0-1.07,0-2.17,0-3.27V8.93h0l.25-.25,29.23.07h.18V8.9c0,4-.07,7.19-.09,9.48,0,1.07,0,1.91,0,2.54A5,5,0,0,1,343.93,21.78Z"/><path class="cls-1" d="M192,397.42c-10.77-10.39-24.44-20.95-42.12-22a68.07,68.07,0,0,0-21.12,2.6c-20.36,5.33-38.21,15.71-50.1,29-2,2.23-1.59,5.16.92,7.07a189.7,189.7,0,0,0,21.75,14.13c9,5,19.53,8.76,30.74,9.3,10.5.52,21-1.81,30.3-5.38s17.7-8.36,26-13.12c4.37-2.5,9-5.36,10-9.36C199.51,405.25,195.72,401,192,397.42Z"/><path class="cls-4" d="M197.27,407.1l-.27.2-.81.55c-.72.48-1.77,1.2-3.18,2a115.35,115.35,0,0,1-12.26,6.51c-10.63,5-26.07,10.17-43.58,13.9a60.28,60.28,0,0,1-6.58.95,51.74,51.74,0,0,1-6.46.09,54.49,54.49,0,0,1-12-2.06,68.44,68.44,0,0,1-18.65-8.66,132.68,132.68,0,0,1-11.19-8.21L79.36,410l-.75-.63-.25-.23s.1,0,.28.18l.78.6,3,2.31c2.6,2,6.34,4.92,11.27,8.06a69.22,69.22,0,0,0,18.58,8.51,54.88,54.88,0,0,0,11.91,2,48.87,48.87,0,0,0,6.39-.1,59.58,59.58,0,0,0,6.52-1c17.46-3.71,32.89-8.84,43.53-13.72a127.64,127.64,0,0,0,12.31-6.34c1.42-.81,2.49-1.51,3.22-2l.84-.51A1.08,1.08,0,0,1,197.27,407.1Z"/><path class="cls-1" d="M637.19,399.83c-9.22-7.63-20.91-15.39-36-16.14a68,68,0,0,0-18.07,1.91c-17.42,3.92-32.68,11.54-42.86,21.31-1.7,1.64-1.35,3.79.8,5.19a166.63,166.63,0,0,0,18.6,10.38,68.29,68.29,0,0,0,26.3,6.84,74.31,74.31,0,0,0,25.91-4c8-2.63,15.15-6.14,22.26-9.64,3.73-1.83,7.73-3.93,8.58-6.87C643.62,405.58,640.37,402.47,637.19,399.83Z"/><path class="cls-4" d="M641.7,406.94a1.14,1.14,0,0,1-.23.16l-.71.42c-.63.36-1.54.9-2.77,1.53a103.15,103.15,0,0,1-10.58,4.83c-9.13,3.68-22.23,7.43-37,10.14a50.47,50.47,0,0,1-10.94.8,53.11,53.11,0,0,1-10.12-1.4,63.37,63.37,0,0,1-16.07-6.28,112.82,112.82,0,0,1-9.85-6.2l-2.58-1.82-.66-.49a1.19,1.19,0,0,1-.22-.18s.09,0,.25.14l.69.44,2.64,1.75c2.29,1.49,5.59,3.71,9.91,6a63.5,63.5,0,0,0,16,6.14,50.58,50.58,0,0,0,20.86.56,210.74,210.74,0,0,0,36.94-10c4.58-1.76,8.18-3.44,10.63-4.67,1.23-.6,2.17-1.11,2.81-1.45l.73-.37Z"/></g><g id="Floor"><path class="cls-6" d="M714.82,260c0,.14-160,.26-357.39.26S0,260.1,0,260s160-.26,357.43-.26S714.82,259.82,714.82,260Z"/></g><g id="Speech_Bubble_3" data-name="Speech Bubble 3"><path class="cls-4" d="M609.84,183.54l-2.29-7.67a26.65,26.65,0,1,0-6.39,7.12h0Z"/><path class="cls-6" d="M609.84,183.54h-.54l-1.64-.08-6.52-.34A.11.11,0,0,1,601,183a.09.09,0,0,1,0-.06h0l.17.16a26.72,26.72,0,0,1-12,5.31,27.19,27.19,0,0,1-17.71-3.16,26.88,26.88,0,0,1,3.72-48.44,27.52,27.52,0,0,1,12.29-1.66,26.79,26.79,0,0,1,20.14,40.8v-.09c.71,2.5,1.27,4.43,1.65,5.76.17.63.31,1.11.41,1.46a4,4,0,0,1,.12.48l-.17-.51c-.11-.36-.27-.85-.47-1.48-.4-1.31-1-3.2-1.76-5.65a.1.1,0,0,1,0-.09,26.53,26.53,0,0,0-9.14-36.58,26.28,26.28,0,0,0-10.86-3.58,26.87,26.87,0,0,0-12.05,1.64A26.12,26.12,0,0,0,565,144.57,26.41,26.41,0,0,0,580.7,188a26.05,26.05,0,0,0,8.45,0,26.72,26.72,0,0,0,11.93-5.14.12.12,0,0,1,.17,0,.14.14,0,0,1,0,.15h0l-.09-.19,6.43.48,1.68.13Z"/><path class="cls-6" d="M577.33,161.9a2.71,2.71,0,1,1-2.71-2.7A2.71,2.71,0,0,1,577.33,161.9Z"/><path class="cls-6" d="M588.17,161.9a2.71,2.71,0,1,1-2.71-2.7A2.71,2.71,0,0,1,588.17,161.9Z"/><path class="cls-6" d="M599,160.55a2.71,2.71,0,1,1-3.7-1A2.71,2.71,0,0,1,599,160.55Z"/></g><g id="Speech_Bubble_2" data-name="Speech Bubble 2"><path class="cls-4" d="M318,91.85l8,.38a26.69,26.69,0,1,0-4.6-8.39h0Z"/><path class="cls-6" d="M318,91.85l.19-.5c.15-.37.36-.87.62-1.53.57-1.39,1.4-3.41,2.47-6a.12.12,0,0,1,.15-.06.1.1,0,0,1,.06,0h0l-.21.1a26.74,26.74,0,0,1-1-13.1,27.07,27.07,0,0,1,8.84-15.67,26.84,26.84,0,0,1,41,7,26.51,26.51,0,0,1,3.48,12.5,27.25,27.25,0,0,1-2.5,12.14,26.89,26.89,0,0,1-34.71,13.38A26.47,26.47,0,0,1,325.9,92.3l.08,0L320,92l-1.52-.09a4.05,4.05,0,0,1-.49-.05h.54l1.55,0,5.91.21a.12.12,0,0,1,.08,0,26.45,26.45,0,0,0,47-17.49,26.12,26.12,0,0,0-3.42-12.25,26.39,26.39,0,0,0-46.19.46,25.82,25.82,0,0,0-2.82,8,26.64,26.64,0,0,0,.9,13,.12.12,0,0,1-.07.15.11.11,0,0,1-.14,0h0l.21,0c-1.12,2.57-2,4.55-2.58,5.91l-.67,1.54C318.08,91.67,318,91.85,318,91.85Z"/><path class="cls-6" d="M339.24,75.42a2.71,2.71,0,1,1-2.71-2.71A2.71,2.71,0,0,1,339.24,75.42Z"/><path class="cls-6" d="M350.08,75.42a2.71,2.71,0,1,1-2.71-2.71A2.71,2.71,0,0,1,350.08,75.42Z"/><path class="cls-6" d="M360.89,74.06a2.71,2.71,0,1,1-3.7-1A2.71,2.71,0,0,1,360.89,74.06Z"/></g><g id="Speech_Bubble_1" data-name="Speech Bubble 1"><path class="cls-4" d="M116.68,129.84a26.72,26.72,0,0,0,35.26,14.28A27.33,27.33,0,0,0,166,108.4a26.73,26.73,0,0,0-35.26-14.28A27.34,27.34,0,0,0,116.68,129.84Z"/><path class="cls-6" d="M122.91,148.58s.28-.07.8-.08a3.5,3.5,0,0,1,2,.65,3.33,3.33,0,0,1,1,1.09,3,3,0,0,1,.38,1.65,3.46,3.46,0,0,1-2.13,3,3.38,3.38,0,0,1-3.55-1,3,3,0,0,1-.74-1.52,3.35,3.35,0,0,1,.08-1.49,3.67,3.67,0,0,1,1.17-1.82c.4-.32.68-.43.67-.45s-.07,0-.2.07a1,1,0,0,0-.23.11,2.1,2.1,0,0,0-.3.19,3.62,3.62,0,0,0-1.28,1.85,3.56,3.56,0,0,0-.12,1.58,3.16,3.16,0,0,0,.78,1.64,3.69,3.69,0,0,0,1.68,1.07,3.23,3.23,0,0,0,3.78-1.38,3.7,3.7,0,0,0,.62-1.91,3.17,3.17,0,0,0-.43-1.77,3.62,3.62,0,0,0-3.23-1.73,1.69,1.69,0,0,0-.35,0l-.25.06A.78.78,0,0,0,122.91,148.58Z"/><path class="cls-6" d="M117.37,131.86s-.05-.14-.17-.41l-.53-1.18-.39-.88c-.13-.33-.24-.7-.38-1.09l-.42-1.28a4.25,4.25,0,0,1-.2-.72l-.18-.77a26.75,26.75,0,0,1-.69-7.85,27.68,27.68,0,0,1,2.52-10.09l.63-1.33c.24-.43.5-.86.76-1.29l.39-.66a5.42,5.42,0,0,1,.42-.64c.31-.42.61-.84.93-1.26l.47-.64.54-.6,1.08-1.21c.38-.39.8-.74,1.21-1.12l.62-.57.31-.28.34-.25a26,26,0,0,1,2.84-2c.5-.29,1-.62,1.52-.89l1.62-.75a8.58,8.58,0,0,1,.82-.37l.86-.3c.58-.2,1.15-.42,1.75-.59a29.08,29.08,0,0,1,3.67-.75l.94-.12c.16,0,.31-.05.47-.06l.48,0,1.93-.06c.65,0,1.3.07,1.95.1.33,0,.66,0,1,.08l1,.16a29.86,29.86,0,0,1,3.91.9l1.92.7.48.18.46.22.93.45.93.46.89.54.9.54.45.27.42.32,1.69,1.27L160,99.51a28.88,28.88,0,0,1,5.18,7,29.59,29.59,0,0,1,2.72,8.28c.09.71.18,1.42.28,2.13s0,1.43.07,2.14v.53l0,.53-.07,1-.06,1.05-.17,1-.16,1-.09.51-.12.5c-.18.67-.35,1.34-.52,2a29.46,29.46,0,0,1-1.5,3.76l-.42.91a9.17,9.17,0,0,1-.5.86c-.34.57-.66,1.15-1,1.69s-.77,1.05-1.15,1.57l-.28.39-.32.36-.64.72a29,29,0,0,1-2.69,2.63c-.48.4-1,.75-1.47,1.12l-.73.54c-.25.18-.52.32-.77.48l-1.54.92c-.52.29-1.06.51-1.59.77a24.56,24.56,0,0,1-3.2,1.24l-.4.14-.4.1-.81.2c-.54.12-1.07.27-1.61.36l-1.6.22-.79.11-.78,0-1.55.06a6.6,6.6,0,0,1-.77,0l-.75,0c-.5,0-1-.05-1.48-.1l-1.44-.23a26.64,26.64,0,0,1-9.62-3.64l-1-.59-.87-.65-.84-.63c-.14-.11-.28-.2-.4-.31l-.37-.34-1.39-1.27c-.43-.41-.79-.86-1.16-1.25l-.52-.59a3.56,3.56,0,0,1-.47-.57l-.8-1.09c-.24-.33-.48-.64-.67-.93s-.34-.58-.49-.82l-.66-1.12-.24-.38.21.39.65,1.13.47.83c.19.3.43.61.67.95l.79,1.09a4.12,4.12,0,0,0,.47.58l.52.59c.37.4.72.85,1.15,1.27l1.39,1.29.37.34.4.31.84.63.87.66,1,.6a26.68,26.68,0,0,0,9.67,3.69l1.44.24c.49.05,1,.07,1.5.11l.76.05a4.83,4.83,0,0,0,.76,0l1.57,0c.26,0,.52,0,.79,0l.79-.11,1.62-.22c.54-.08,1.07-.24,1.61-.36l.82-.19c.14,0,.28-.06.41-.11l.4-.13a25.66,25.66,0,0,0,3.23-1.26c.53-.25,1.08-.48,1.6-.76l1.55-.93c.26-.16.53-.3.78-.48l.74-.55c.49-.37,1-.72,1.48-1.12a30.86,30.86,0,0,0,2.72-2.65L162,137l.33-.37.28-.39,1.17-1.58c.36-.55.68-1.14,1-1.71.16-.29.36-.56.5-.87l.43-.91a31.68,31.68,0,0,0,1.52-3.8l.51-2,.13-.51.09-.52.16-1,.17-1,.07-1.06.07-1.06,0-.54,0-.53c0-.72,0-1.44-.07-2.16s-.18-1.43-.28-2.15a29.33,29.33,0,0,0-2.74-8.35,29,29,0,0,0-5.22-7l-1.59-1.46-1.71-1.29-.43-.31L156,96l-.9-.55-.9-.54-.94-.46-.94-.45-.47-.23-.48-.18-1.93-.71a30.82,30.82,0,0,0-4-.9l-1-.16c-.33,0-.66,0-1-.08-.66,0-1.31-.09-2-.1l-1.94.06-.49,0-.47.06-1,.13a28.55,28.55,0,0,0-3.7.76c-.59.17-1.17.4-1.75.59l-.87.31c-.28.1-.55.25-.83.37l-1.63.77c-.53.27-1,.6-1.53.89a26.82,26.82,0,0,0-2.86,2l-.34.26-.31.28-.63.57c-.4.39-.83.74-1.21,1.14L120.92,101l-.54.6-.48.65-.93,1.27a5.54,5.54,0,0,0-.42.65l-.39.66c-.26.44-.52.87-.76,1.31l-.63,1.33a27.65,27.65,0,0,0-2.5,10.16,26.4,26.4,0,0,0,.74,7.88q.09.4.18.78a4.91,4.91,0,0,0,.2.71c.16.46.31.89.44,1.28s.26.77.39,1.1l.4.87c.25.51.43.9.56,1.18S117.37,131.86,117.37,131.86Z"/><path class="cls-6" d="M135.68,113.35l3.59.16a3.05,3.05,0,0,1,3.26-2.93,2.91,2.91,0,0,1,2.73,2,3.25,3.25,0,0,1-.39,2.9c-.65,1-2,1.83-4.42,1.29l-.35,8.09,3.55.15.2-4.73a6.93,6.93,0,0,0,5.27-6.55c.23-5.24-4.42-6.66-6.43-6.75C141.15,106.88,135.89,107,135.68,113.35Z"/><rect class="cls-6" x="139.95" y="126.57" width="3.6" height="3.36" transform="translate(5.71 -6.04) rotate(2.49)"/></g><g id="Character_4" data-name="Character 4"><path class="cls-6" d="M428.49,155.25l4.1-28.58c1.86-22.3,1.44-49.39,4.76-56.47C443.48,57.14,462,56.83,462,56.83c24.61-.52,28,18.54,29.64,35.83.27,2.93,1.25,8.17,2.52,14.23,3,12.63,6.91,25.65,15.55,34.57a22.41,22.41,0,0,1,5.95,12.78c.55,4.71-2.22,10.21-6.93,10.75a10.87,10.87,0,0,1-2.58,17c-4.05,2.26-9,1.72-13.62.95s-9.31-1.78-12.77-4.83-5.09-7.67-6.27-12.14a105.32,105.32,0,0,1-3-16.42Z"/><path class="cls-7" d="M458.4,63.6,460,62.21l16.24,7.52a4.63,4.63,0,0,1,4.14,4.7l-5.22,55.36c-.17,3.67,1.28,5.44-1.08,8.25l-16.2,18.7c-5.66,6.74-4.39-8.67-8.2-16.6-.27-.56,1.11-2.5,1-2.89a10.8,10.8,0,0,1-.19-1.22c-.27-4.37-.11-8.14-.11-8.14-.05-4.79-.05-6.75-.05-6.71s-10.1-1.68-12.18-14.85c-1-6.55-.33-15.45.5-24.21C439.84,70,448.64,63.09,458.4,63.6Z"/><path class="cls-6" d="M458,91.58a1.69,1.69,0,0,0,1.63,1.7,1.61,1.61,0,0,0,1.74-1.52,1.69,1.69,0,0,0-1.63-1.7A1.61,1.61,0,0,0,458,91.58Z"/><path class="cls-6" d="M441.23,90.7a1.67,1.67,0,0,0,1.62,1.7,1.63,1.63,0,0,0,1.75-1.52,1.69,1.69,0,0,0-1.63-1.7A1.61,1.61,0,0,0,441.23,90.7Z"/><path class="cls-6" d="M440.25,85.68c.21.22,1.49-.73,3.31-.72s3.15.91,3.35.69-.12-.5-.7-.92a4.68,4.68,0,0,0-2.68-.83,4.53,4.53,0,0,0-2.63.85C440.34,85.18,440.15,85.58,440.25,85.68Z"/><path class="cls-6" d="M458.64,86.8c.23.19,1.41-.88,3.22-1.06s3.23.59,3.4.35-.17-.49-.79-.85a4.64,4.64,0,0,0-2.75-.54,4.45,4.45,0,0,0-2.53,1.11C458.68,86.29,458.53,86.71,458.64,86.8Z"/><path class="cls-6" d="M451.64,99.67a12.65,12.65,0,0,0-2.95-.53c-.46,0-.9-.14-1-.46a2.31,2.31,0,0,1,.31-1.37l1.37-3.54c1.91-5,3.29-9.16,3.09-9.24s-1.92,3.94-3.82,9l-1.32,3.56a2.64,2.64,0,0,0-.24,1.82,1.14,1.14,0,0,0,.76.68,3,3,0,0,0,.79.11A11.26,11.26,0,0,0,451.64,99.67Z"/><path class="cls-8" d="M450.38,121.18A33.48,33.48,0,0,0,468,116.49s-4.44,9.11-17.62,7.87Z"/><path class="cls-8" d="M453.92,103.09c.66-.87,2.6-2.21,3.74-2.09a2.72,2.72,0,0,1,1.79,1.3c.48.64,0,2.41-.46,3a2.26,2.26,0,0,1-2.31,1c-.87-.25-2-1.54-2.7-2.11a1.87,1.87,0,0,1-.52-.53c-.12-.22.31-.37.46-.55"/><path class="cls-6" d="M457.26,79.64c.23.48,2,.06,4.16.1s3.92.44,4.16,0c.11-.22-.24-.65-1-1.06a7.2,7.2,0,0,0-6.34-.05C457.52,79,457.16,79.42,457.26,79.64Z"/><path class="cls-6" d="M440.91,77.9c.32.41,1.57,0,3.08,0s2.78.28,3.07-.16c.13-.2-.07-.62-.63-1a4.27,4.27,0,0,0-2.5-.68,4.38,4.38,0,0,0-2.46.83C440.94,77.28,440.77,77.7,440.91,77.9Z"/><path class="cls-6" d="M478.89,97.47s-9.43,2.42-13.53-20.77C464,68.77,457,62.06,457,62.06l3-.74s18.05,6.09,18.35,6.33,4.14,9.71,4.14,9.71Z"/><path class="cls-7" d="M476.65,96.5c0-1,1.13-3.3,2.1-3.45,2.59-.4,7.25-.19,7.29,6.38.06,9-9,7.18-9,6.93S476.64,99.88,476.65,96.5Z"/><path class="cls-8" d="M479.77,102.94s.16.1.43.22a1.54,1.54,0,0,0,1.17,0c.94-.35,1.73-1.86,1.77-3.48a5.19,5.19,0,0,0-.46-2.24,1.76,1.76,0,0,0-1.18-1.19.8.8,0,0,0-.92.43c-.12.25-.06.43-.11.45s-.19-.15-.12-.52a1,1,0,0,1,.35-.57,1.17,1.17,0,0,1,.86-.23,2.18,2.18,0,0,1,1.64,1.38,5.2,5.2,0,0,1,.56,2.5c0,1.81-1,3.51-2.26,3.89a1.67,1.67,0,0,1-1.43-.23C479.79,103.15,479.74,103,479.77,102.94Z"/><path class="cls-6" d="M472.81,92.76a12.21,12.21,0,0,1-1.32-.33,8.1,8.1,0,0,1-3.1-2,11.19,11.19,0,0,1-1.56-2,15,15,0,0,1-1.22-2.68,55.75,55.75,0,0,1-1.6-6.61,67.88,67.88,0,0,0-1.73-6.61,38.62,38.62,0,0,0-2.08-5.18,28,28,0,0,0-1.89-3.25c-.25-.37-.47-.64-.6-.82a1.75,1.75,0,0,0-.23-.28,1.91,1.91,0,0,0,.19.3c.12.2.33.48.56.85a31.47,31.47,0,0,1,1.82,3.28,39.71,39.71,0,0,1,2,5.17c.63,2,1.19,4.22,1.7,6.59a53.16,53.16,0,0,0,1.63,6.63,14.41,14.41,0,0,0,1.26,2.71,10.75,10.75,0,0,0,1.61,2,7.92,7.92,0,0,0,3.19,2A4.81,4.81,0,0,0,472.81,92.76Z"/><path class="cls-7" d="M431.3,133.84s-13.8,12.55-10.61,28.55,3,49.48,3,49.48-1.37,13-3.23,27.15c-1.78,13.51-5.63,35.75-5.63,35.75l14.84,6.37s13-42.41,14.77-55.76c2.26-17.23-2.34-57.15-2.34-57.15Z"/><path class="cls-7" d="M414.81,272.61l-30.64,5.94s-1.45,1.93,1.45,2.17,43.65,0,43.65,0Z"/><path class="cls-8" d="M439.35,211.55c0,.15-3-.32-6.57-.55s-6.57-.16-6.58-.3a7,7,0,0,1,1.93-.23,43.92,43.92,0,0,1,4.68,0,40.63,40.63,0,0,1,4.65.57A7.09,7.09,0,0,1,439.35,211.55Z"/><path class="cls-7" d="M540.32,283.92s37.17,2.67,55.27,1.51c11-.7,19.62-12.82,9.59-21.46-4.85-4.17-65.71-17.67-65.71-17.67C527.88,254.46,534.65,274.61,540.32,283.92Z"/><path class="cls-8" d="M607.18,265.37c0,.13-8.09-2.48-18-5.83s-17.87-6.16-17.83-6.29,8.09,2.48,18,5.83S607.23,265.24,607.18,265.37Z"/><path class="cls-7" d="M561.85,212.38s33.88,16,48.62,26.54c8.94,6.4,9.88,21.26-3.21,23.28-6.32,1-65.11-19.76-65.11-19.76C536.63,229.38,552.11,217.28,561.85,212.38Z"/><path class="cls-6" d="M513.49,199.46l3.3,3.06s11.86-6,30.83,2.16c11.54,5,40.18,19.26,40.18,19.26s-16.27,5.49-16,19.36-.29,13.94-4.86,16.92-21.41,1.4-23.12,12.39-2.29,11.95-2.29,11.95-48.46-1.56-62.73-7.84-19.48-41.53-19.48-41.53l-1.75-7.06Z"/><path class="cls-9" d="M563.5,251.51a3.31,3.31,0,0,1-.72-.17l-2-.58-7.48-2.21-24.64-7.44a73,73,0,0,0-13.82-2.81,35.82,35.82,0,0,0-11.43.76,24.78,24.78,0,0,0-7.18,2.86c-.79.47-1.38.87-1.77,1.16a4.41,4.41,0,0,1-.61.42,4.77,4.77,0,0,1,.55-.49,15.75,15.75,0,0,1,1.73-1.25,24,24,0,0,1,7.19-3,35.8,35.8,0,0,1,11.56-.87,71.23,71.23,0,0,1,13.92,2.8c9.63,2.88,18.31,5.62,24.6,7.57l7.44,2.36,2,.67Z"/><path class="cls-9" d="M524.54,225.38a30.07,30.07,0,0,0-3,6,27.1,27.1,0,0,0-1,6.59,5.46,5.46,0,0,1-.21-2,15.75,15.75,0,0,1,.77-4.76,16.41,16.41,0,0,1,2.15-4.31A5.85,5.85,0,0,1,524.54,225.38Z"/><path class="cls-10" d="M447.4,206l10.77,22.1s41.65-11.34,48.24-19.15,8.79-11.1,8.79-11.1l-15.93-29.2-3.43-37.58-18.13-2.74c-9.65,4.91-23,6-26.78.47,0,0-10.81.07-18.62,4.44l-7.89,21.11Z"/><path class="cls-10" d="M420.31,184.7h21.31l-7.53-52.2s-11.78,4-13.78,16.24C418.6,159.25,420.31,184.7,420.31,184.7Z"/><path class="cls-6" d="M430.59,151.91a3.25,3.25,0,0,1,.08.54c0,.4.09.91.14,1.54s.13,1.5.24,2.45.21,2,.39,3.22c.31,2.39.79,5.22,1.44,8.34s1.55,6.5,2.65,10,2.37,6.77,3.61,9.7,2.5,5.51,3.63,7.64c.54,1.08,1.09,2,1.54,2.86s.87,1.55,1.22,2.13l.77,1.35a2.36,2.36,0,0,1,.25.49s-.13-.14-.33-.44-.51-.77-.85-1.3-.81-1.26-1.29-2.09-1.06-1.77-1.61-2.84c-1.17-2.11-2.45-4.7-3.74-7.62s-2.54-6.22-3.66-9.74-2-6.93-2.63-10.06-1.08-6-1.34-8.38c-.16-1.2-.23-2.29-.32-3.25s-.13-1.78-.15-2.45,0-1.15-.06-1.56A1.75,1.75,0,0,1,430.59,151.91Z"/><path class="cls-10" d="M495.17,131.07a20.2,20.2,0,0,1,18.26,13c5,12.77,5.93,29.37,5.93,29.37l-26.88,5.7,3-22.94s-3.18-9.35-3.49-14.72C491.22,128.56,495.17,131.07,495.17,131.07Z"/><path class="cls-6" d="M519.36,173.46a2.47,2.47,0,0,1-.48.14l-1.41.31-5.2,1.07-17.36,3.39-.25,0,0-.26c-.06-.44-.11-.91-.17-1.38L492.3,158.3c-.25-2.32-.45-4.22-.6-5.61-.06-.62-.1-1.13-.14-1.53a2.76,2.76,0,0,1,0-.54,2,2,0,0,1,.12.53c.06.4.13.9.23,1.52.18,1.38.44,3.28.75,5.59.6,4.78,1.41,11.29,2.31,18.47.05.47.11.94.16,1.38l-.29-.22,17.39-3.24,5.23-.92,1.42-.23A1.89,1.89,0,0,1,519.36,173.46Z"/><path class="cls-7" d="M518.05,173.73l-19.92,3.55,1.07,6.14-7.67-.68-15.62,7.33s13,14.13,21.17,18,21.24,5.64,22.94-8.57C521.17,189.85,518.05,173.73,518.05,173.73Z"/><path class="cls-8" d="M514.6,193.19c-.06.05-.7-.82-1.88-2.06a24.61,24.61,0,0,0-11.4-6.77c-1.66-.45-2.73-.59-2.72-.67a2.36,2.36,0,0,1,.76,0,15.11,15.11,0,0,1,2,.32A21.78,21.78,0,0,1,513,190.89a15,15,0,0,1,1.26,1.64C514.5,192.94,514.63,193.17,514.6,193.19Z"/><path class="cls-7" d="M480.26,173.59s2.18-2.87,3.82-3.5a21.68,21.68,0,0,1,2.36-.82s-.82-3,2.27-3.27a4.32,4.32,0,0,0,2.18,1,1.72,1.72,0,0,1,2,1.45c.28,1.18,1,4.45,0,6s-2.81,3.09-2,7.27c0,0-1.09,4.63-3.45,5.81a7.64,7.64,0,0,1-3.54,1.08s-2.18,2.64-4,2.27-2.63-.45-2.63-.45-1.45,2.25-4.63.49a3.56,3.56,0,0,1-3.54.24c-.85-.46-5-4.63-5.17-7.81s-.06-5.36.72-6.54c1.17-1.74,2.86-.16,2.86-.16s.41-3,1.59-4.19,2.09-1,2.09-1-.37-3.63,2.45-3.91,2.54,3.09,2.63,4.91l.09,1.81S477.49,171.59,480.26,173.59Z"/><path class="cls-8" d="M480.26,173.59c0,.06-.36-.24-1.08-.5a2.23,2.23,0,0,0-1.37-.05,2.41,2.41,0,0,0-1.32,1.28l-.24.52,0-.57c0-.78-.12-1.64-.15-2.61a7.35,7.35,0,0,0-.52-3c-.41-1-1.82-1.18-2.83-.63s-1.36,2-1.27,3.35l0,.29h-.33a3,3,0,0,0-2.35,1.64,11.1,11.1,0,0,0-1,3.34l-.08.53-.41-.36a1.62,1.62,0,0,0-2-.34,3.51,3.51,0,0,0-1,2.2,16.37,16.37,0,0,0-.15,2.74,12.82,12.82,0,0,0,.25,2.79,13.5,13.5,0,0,0,3.05,4.94c.34.38.7.74,1.07,1.09.18.16.37.33.56.47a2.31,2.31,0,0,0,.61.3,3.2,3.2,0,0,0,2.73-.41l.19-.12.18.1a3.93,3.93,0,0,0,2.83.53,2.49,2.49,0,0,0,1.34-.91l.14-.18.19,0,1.88.33c.3,0,.66.12.91.14a1.92,1.92,0,0,0,.78-.09,7,7,0,0,0,2.76-2.07l.1-.12h.18a7.35,7.35,0,0,0,2.51-.65,4.49,4.49,0,0,0,2.06-1.43,12.76,12.76,0,0,0,2.09-4.56v.14a7.7,7.7,0,0,1,.69-5.48c.44-.79,1-1.46,1.44-2.13a4.59,4.59,0,0,0,.4-2.25,14.2,14.2,0,0,0-.25-2.28,4.24,4.24,0,0,0-.63-2,1.32,1.32,0,0,0-.8-.39,9,9,0,0,1-1.05-.11,5,5,0,0,1-1.81-1l.16.05a2.31,2.31,0,0,0-1.91,1,2.92,2.92,0,0,0-.21,2l0,.17-.17.05-1.65.55a5,5,0,0,0-1.38.59,12.2,12.2,0,0,0-1.82,1.56c-.46.46-.79.84-1,1.09s-.34.38-.35.36a2.31,2.31,0,0,1,.28-.43c.2-.27.51-.66.95-1.15a11.25,11.25,0,0,1,1.81-1.66,5.22,5.22,0,0,1,1.43-.66l1.67-.6-.13.23a3.28,3.28,0,0,1,.19-2.27,2.74,2.74,0,0,1,2.23-1.27h.09l.07.06a4.57,4.57,0,0,0,1.64.88c.51.11,1.49-.06,2.1.61a2.31,2.31,0,0,1,.55,1.09c.09.37.17.74.24,1.12a16.33,16.33,0,0,1,.29,2.37,5.13,5.13,0,0,1-.46,2.54c-.46.78-1,1.4-1.42,2.14a7.05,7.05,0,0,0-.59,5.06v.07l0,.07a13.21,13.21,0,0,1-2.19,4.83,4.92,4.92,0,0,1-1.05,1,9.34,9.34,0,0,1-1.26.64,7.65,7.65,0,0,1-2.82.71l.29-.12a7.62,7.62,0,0,1-3.07,2.29,2.67,2.67,0,0,1-1.06.12c-.37,0-.63-.1-.95-.15l-1.85-.32.33-.15a3.21,3.21,0,0,1-1.74,1.19,4.6,4.6,0,0,1-3.35-.59l.37,0a3.89,3.89,0,0,1-3.34.49,2.82,2.82,0,0,1-.8-.39c-.22-.17-.42-.35-.62-.53-.39-.36-.76-.74-1.11-1.13a14,14,0,0,1-3.18-5.22,12.69,12.69,0,0,1-.25-3,15.88,15.88,0,0,1,.17-2.84A4,4,0,0,1,465,176a1.77,1.77,0,0,1,1.5-.29,3.17,3.17,0,0,1,1.25.68l-.49.18a11.29,11.29,0,0,1,1.09-3.52,3.82,3.82,0,0,1,1.21-1.34,2.56,2.56,0,0,1,1.72-.55l-.31.28a5.56,5.56,0,0,1,.26-2.16,2.86,2.86,0,0,1,1.3-1.65,3,3,0,0,1,2-.3,2,2,0,0,1,1.47,1.15,7.55,7.55,0,0,1,.5,3.14c0,1,.06,1.83.08,2.6l-.27,0a2.63,2.63,0,0,1,1.52-1.38,2.28,2.28,0,0,1,1.48.12A3.71,3.71,0,0,1,480.26,173.59Z"/><path class="cls-8" d="M489.83,172.82c0,.08-.34.15-.84,0a3.33,3.33,0,0,1-1.72-1.06,3.41,3.41,0,0,1-.81-1.84c0-.52.07-.83.16-.83s.27,1.2,1.17,2.22S489.86,172.63,489.83,172.82Z"/><path class="cls-8" d="M485.74,182c-.19.07-1-2.06-2.51-4.4s-3.12-3.92-3-4.07,2,1.26,3.56,3.71S485.91,182,485.74,182Z"/><path class="cls-8" d="M476.44,173.54c.11,0-.06.87.23,2.19a17.37,17.37,0,0,0,2.18,4.84,18.76,18.76,0,0,1,1.31,2.73,22.09,22.09,0,0,1,.61,2.38,3.25,3.25,0,0,0,1.16,1.74s-.25,0-.6-.19a2.76,2.76,0,0,1-1-1.4c-.26-.69-.39-1.48-.74-2.3a22.28,22.28,0,0,0-1.32-2.63,14.42,14.42,0,0,1-2.06-5.08A3.47,3.47,0,0,1,476.44,173.54Z"/><path class="cls-8" d="M474.94,185.94a6.11,6.11,0,0,1-1.83-1.5,7.41,7.41,0,0,1-1.47-2.16,10.49,10.49,0,0,1-.63-3.13c-.41-4.42.08-8,.26-8s0,3.57.43,7.93a11.09,11.09,0,0,0,.53,2.95,7.8,7.8,0,0,0,1.25,2.08C474.38,185.22,475,185.86,474.94,185.94Z"/><path class="cls-8" d="M469.89,186.78c-.09,0-.39-.52-1.11-1.29a12.46,12.46,0,0,1-1.21-1.45,4.71,4.71,0,0,1-.79-2.28,18.3,18.3,0,0,1,.43-4.18,8.52,8.52,0,0,1,.27-1.68c.08,0,.27.65.22,1.73a31.34,31.34,0,0,0-.23,4.07,6.38,6.38,0,0,0,1.69,3.49C469.81,186.07,470,186.76,469.89,186.78Z"/><path class="cls-6" d="M456.81,106.42a4.33,4.33,0,0,0,1.61-.8,2.75,2.75,0,0,0,.9-1.6,2.65,2.65,0,0,0-.66-2.09,2.55,2.55,0,0,0-1.15-.77h.17a37.42,37.42,0,0,0-4.19,2.33,9.93,9.93,0,0,1,4-2.79l.08,0,.09,0a2.91,2.91,0,0,1,1.39.91,3,3,0,0,1,.74,2.51,2.92,2.92,0,0,1-1.14,1.81A2.12,2.12,0,0,1,456.81,106.42Z"/></g><g id="Character_5" data-name="Character 5"><path class="cls-6" d="M691.72,192c-.22-6.82.55-13.66,0-20.46S689,157.68,684.05,153s-13.31-6.17-18.7-2l-.88,5.85c3.37,26.19,4.27,52.92,7.64,79.11.44,3.44,3.39,6.44,5.1,9.46s5,5.43,8.42,5.06c4.51-.48,7.28-5.2,8.49-9.57C698.52,225.08,692.26,208.41,691.72,192Z"/><path class="cls-9" d="M677.08,156.19a17,17,0,0,0-3.05-4.34,5.9,5.9,0,0,0-4.83-1.74,2.44,2.44,0,0,0-2,1.36c-.29.79.27,1.85,1.11,1.8l.17.16q2.73,2.52,5.55,4.94a4.56,4.56,0,0,0,1.56,1,1.69,1.69,0,0,0,1.74-.32C678.06,158.3,677.59,157.09,677.08,156.19Z"/><path class="cls-6" d="M680.44,162.35c-6-7.69-14.18-12.22-23.92-12.61-5.5-.22-7.8.87-11.78,1.85a17.3,17.3,0,0,0-10,6.31c-2.89,3.92-5.35,8.32-6,13.15A81.57,81.57,0,0,0,627.63,186,27.35,27.35,0,0,0,632,200.17l12.64,2.51c7,.4,14.11.79,21-.65s13.59-5,17.38-10.86C688.25,183,686.44,170,680.44,162.35Z"/><path class="cls-11" d="M669.15,162l-16.77-7.12-4.43.41c-10-.19-17.06,10.62-17.32,18.67-.28,8.95-.27,19.89,1,26.52,2.55,13.33,13.85,14.7,13.85,14.7s-.4,7.07-.59,11.52l9.44,15.49,16.52-16.76,2.67-58.78A4.72,4.72,0,0,0,669.15,162Z"/><path class="cls-6" d="M634,184.72a1.72,1.72,0,0,0,1.71,1.68,1.64,1.64,0,0,0,1.72-1.61,1.71,1.71,0,0,0-1.71-1.68A1.64,1.64,0,0,0,634,184.72Z"/><path class="cls-6" d="M633.56,178.51c.22.22,1.49-.79,3.34-.84s3.24.83,3.43.59-.14-.5-.74-.91a4.71,4.71,0,0,0-2.75-.75,4.52,4.52,0,0,0-2.65,1C633.63,178,633.45,178.41,633.56,178.51Z"/><path class="cls-6" d="M645.09,193.27a12.44,12.44,0,0,0-3-.45c-.47,0-.92-.11-1-.43a2.43,2.43,0,0,1,.27-1.41l1.28-3.64c1.78-5.18,3-9.43,2.84-9.5s-1.82,4.07-3.6,9.25c-.42,1.28-.83,2.49-1.22,3.66a2.76,2.76,0,0,0-.19,1.86,1.23,1.23,0,0,0,.8.67,3,3,0,0,0,.81.08A11.85,11.85,0,0,0,645.09,193.27Z"/><path class="cls-12" d="M645.46,215.17a34.14,34.14,0,0,0,17.79-5.36s-4.48,9.44-17.94,8.61Z"/><path class="cls-6" d="M634.34,172.06c.33.44,1.73.09,3.39.18s3,.47,3.4.06c.15-.21,0-.64-.63-1.08A5.28,5.28,0,0,0,635,171C634.42,171.42,634.2,171.84,634.34,172.06Z"/><path class="cls-6" d="M654.28,184.39a1.72,1.72,0,0,1-1.67,1.73,1.65,1.65,0,0,1-1.76-1.56,1.72,1.72,0,0,1,1.67-1.73A1.64,1.64,0,0,1,654.28,184.39Z"/><path class="cls-6" d="M658.57,178.38c-.21.22-1.51-.75-3.36-.76s-3.21.91-3.41.69.12-.51.71-.94a4.79,4.79,0,0,1,2.74-.82,4.47,4.47,0,0,1,2.67.88C658.49,177.87,658.68,178.28,658.57,178.38Z"/><path class="cls-6" d="M657.6,172.43c-.37.42-1.79,0-3.51-.05s-3.17.26-3.5-.18c-.15-.22.08-.64.72-1a5.32,5.32,0,0,1,2.86-.67,5.24,5.24,0,0,1,2.79.86C657.56,171.79,657.76,172.23,657.6,172.43Z"/><path class="cls-11" d="M670.69,189.09c0-1,1-3.39,2-3.58,2.61-.49,7.36-.43,7.62,6.25.35,9.14-8.89,7.61-8.92,7.34S670.8,192.53,670.69,189.09Z"/><path class="cls-12" d="M673.82,195.67s.17.11.44.22a1.57,1.57,0,0,0,1.19,0c.95-.39,1.7-2,1.69-3.6a5.31,5.31,0,0,0-.54-2.27,1.84,1.84,0,0,0-1.24-1.17.81.81,0,0,0-.92.47c-.12.26-.05.44-.1.46s-.2-.15-.14-.53a1,1,0,0,1,.34-.58,1.2,1.2,0,0,1,.87-.27,2.24,2.24,0,0,1,1.71,1.35,5.42,5.42,0,0,1,.65,2.53c0,1.84-.86,3.6-2.17,4a1.72,1.72,0,0,1-1.46-.18C673.85,195.89,673.79,195.69,673.82,195.67Z"/><path class="cls-6" d="M673.1,185.55l-2.38,2.35c-9.78-9.81-28.78-34.25-27.72-32.8a29.14,29.14,0,0,1,14.33-1.22c7.41,1.44,21.44,5.5,21,14.27S673.1,185.55,673.1,185.55Z"/><path class="cls-9" d="M686.4,183.84a3.17,3.17,0,0,0-.13-.53,9.56,9.56,0,0,0-.59-1.45,13.29,13.29,0,0,0-3.71-4.38,25.07,25.07,0,0,0-7.59-3.87c-3-1.06-6.45-1.91-9.79-3.44a45,45,0,0,1-8.9-5.26,46.37,46.37,0,0,1-9.8-10.16c-.37-.52-.66-.94-.89-1.28a2.34,2.34,0,0,0-.33-.43,1.73,1.73,0,0,0,.25.48c.18.31.44.77.82,1.33a40.56,40.56,0,0,0,3.48,4.57,43.79,43.79,0,0,0,15.18,11.17,100.53,100.53,0,0,0,9.84,3.43,25.55,25.55,0,0,1,7.53,3.72,13.78,13.78,0,0,1,3.75,4.21C686.16,183.13,686.35,183.86,686.4,183.84Z"/><path class="cls-9" d="M683.71,185.22a4.76,4.76,0,0,0-.31-2,9.34,9.34,0,0,0-3.33-4.38,20.74,20.74,0,0,0-7.54-3.16,44.9,44.9,0,0,1-9.39-3.22,40.11,40.11,0,0,1-8.31-5.4,41.51,41.51,0,0,1-5.65-5.82,46.33,46.33,0,0,1-3.12-4.5c-.3-.53-.54-1-.74-1.3A2.13,2.13,0,0,0,645,155a2.54,2.54,0,0,0,.21.49c.17.35.39.79.67,1.34a37.75,37.75,0,0,0,3,4.62,39.21,39.21,0,0,0,14,11.43,44.09,44.09,0,0,0,9.48,3.22,20.92,20.92,0,0,1,7.46,3,9.42,9.42,0,0,1,3.35,4.17A10.56,10.56,0,0,1,683.71,185.22Z"/><path class="cls-9" d="M672.44,201c0-.07.77-.15,2.13-.47a13,13,0,0,0,5.17-2.74,18.24,18.24,0,0,0,4.91-7.14,32,32,0,0,0,2.23-10.48,26.6,26.6,0,0,0-.32-5.54,26.93,26.93,0,0,0-1.39-5,26.52,26.52,0,0,0-4.56-7.47,43.18,43.18,0,0,0-6-5.48,2.32,2.32,0,0,1,.5.28c.31.2.79.48,1.36.9a28.19,28.19,0,0,1,4.46,4,26,26,0,0,1,4.75,7.55,26.83,26.83,0,0,1,1.46,5.08,27.15,27.15,0,0,1,.34,5.67,32,32,0,0,1-2.31,10.66,18.57,18.57,0,0,1-5.15,7.26,12.76,12.76,0,0,1-5.39,2.64A13.47,13.47,0,0,1,673,201,2.23,2.23,0,0,1,672.44,201Z"/><path class="cls-12" d="M650.73,194.75a1.48,1.48,0,0,1,.8-.27,1.17,1.17,0,0,1,.68.36,3.13,3.13,0,0,1-2.15,5.41c-1.24,0-2.72-.71-3.47-3C647.89,196.53,649.43,195.51,650.73,194.75Z"/><path class="cls-6" d="M650.06,200.25a4.76,4.76,0,0,0,1.8-.79,3,3,0,0,0,1.06-1.75,3.06,3.06,0,0,0-.58-2.38c-.27-.35-.62-.68-.94-.63a4.35,4.35,0,0,0-1.08.54l-1.91,1.12a8.59,8.59,0,0,1-1.82.93,9.22,9.22,0,0,1,1.66-1.2l1.86-1.2a3.79,3.79,0,0,1,1.24-.63,1.14,1.14,0,0,1,.8.24,2.86,2.86,0,0,1,.55.55,3.41,3.41,0,0,1,.62,2.74,3.13,3.13,0,0,1-1.26,1.92A2.48,2.48,0,0,1,650.06,200.25Z"/><path class="cls-9" d="M610.21,358.3l-30.14-10.56c-5.32-1.18-10.9-2.35-16.15-.89s-9.93,6.51-9,11.88c.74,4.31,4.85,7.41,9.14,8.31s8.71,0,13-.93,8.61-2.06,13-1.59c2.9.31,5.68,1.31,8.54,1.86s6,.65,8.54-.75S611.34,361,610.21,358.3Z"/><path class="cls-6" d="M574.3,277.87c-5.77,4.23-10.92,8-10.84,23.9S565.24,325,565.24,325l64.31,6.2,6.5-18.47S588.24,267.66,574.3,277.87Z"/><path class="cls-9" d="M597.79,322.38a8,8,0,0,1-.6-1.25c-.35-.81-.87-2-1.54-3.43a111.55,111.55,0,0,0-5.79-11,113.47,113.47,0,0,0-7-10.22c-1-1.25-1.77-2.26-2.33-2.95a7.16,7.16,0,0,1-.82-1.11,6.9,6.9,0,0,1,1,1c.61.65,1.45,1.62,2.46,2.85a90.75,90.75,0,0,1,7.17,10.18A88.86,88.86,0,0,1,596,317.55c.62,1.47,1.09,2.67,1.39,3.51A6.23,6.23,0,0,1,597.79,322.38Z"/><path class="cls-6" d="M637.1,309.58l-8.28,10.08-3.77,1.83s-40.69-13-51.68-15.28-33.13-5.73-36.07,12.13,15.28,24.28,22.79,28.39,31.19,9.95,31.19,9.95,32.63,9.24,43.87,9.67c11.8.46,34.69-1.69,40.56-7.77s11.95-26.08,11.95-26.08Z"/><path class="cls-9" d="M598,358.58a2.42,2.42,0,0,1-.56-.1l-1.58-.38c-1.38-.33-3.36-.87-5.79-1.59a189,189,0,0,1-18.64-6.63,193.83,193.83,0,0,1-17.84-8.55c-2.22-1.22-4-2.24-5.2-3l-1.39-.86a2.53,2.53,0,0,1-.46-.33,2.52,2.52,0,0,1,.51.24l1.44.77c1.24.68,3,1.66,5.28,2.83,4.47,2.35,10.74,5.43,17.86,8.4s13.73,5.24,18.55,6.76c2.41.76,4.37,1.35,5.73,1.75l1.56.47A2.43,2.43,0,0,1,598,358.58Z"/><path class="cls-9" d="M626.84,322.36a3,3,0,0,1-.65-.2l-1.82-.68c-1.58-.6-3.87-1.46-6.72-2.48C612,317,604,314.31,595.14,311.87s-17.07-4.19-23-5.31c-3-.57-5.37-1-7-1.28l-1.92-.34a3.57,3.57,0,0,1-.66-.16,3.15,3.15,0,0,1,.68.05l1.93.25c1.68.22,4.1.6,7.08,1.12,6,1,14.16,2.74,23.08,5.17s16.84,5.14,22.5,7.28c2.83,1.07,5.11,2,6.66,2.64l1.79.77A3.54,3.54,0,0,1,626.84,322.36Z"/><path class="cls-10" d="M628.47,316.52l8.18-18.91-4.39-26.82,12.54-44,25.91-9.15s14.68,5.68,19.92,26.39c5.77,22.78,4,51.83,2.78,63.42S686.12,340,686.12,340s-14.57,6.09-40.2-7.08c-19.38-10-20.27-11.92-20.27-11.92S626,317.37,628.47,316.52Z"/><path class="cls-11" d="M638.27,272.55s-28-27.44-32.55-30.05l-7.09,3.62v8.56l25.31,33.75A26.25,26.25,0,0,0,638.27,272.55Z"/><path class="cls-10" d="M681.42,250.06s-24.64,47.4-38.22,47.39a28,28,0,0,1-25.41-15.06l11.26-18.82,5.52,3.68s18.21-36,22.1-41.12,16.08-7.34,21.69-2.25C683.75,228.77,687.69,240.32,681.42,250.06Z"/><path class="cls-6" d="M681.42,250.06l.23-.44.71-1.28c.28-.58.6-1.32.95-2.19l.46-1.45c.17-.52.25-1.09.39-1.69a20.75,20.75,0,0,0-.26-8.87A21.39,21.39,0,0,0,682,228.9a17.92,17.92,0,0,0-3.77-5,12,12,0,0,0-6.27-2.6,19.61,19.61,0,0,0-7.46.51,15,15,0,0,0-7,3.72c-.22.27-.47.51-.67.79l-.6.87c-.39.58-.74,1.21-1.13,1.82-.73,1.24-1.46,2.51-2.18,3.81-5.76,10.39-11.76,22.1-18.07,34.5l-.12.24-.22-.15-5.52-3.68.33-.07-2.49,4.16c-3,5-6,9.95-8.77,14.66v-.21A27.89,27.89,0,0,0,631.7,295a29.43,29.43,0,0,0,8.7,2.11,16.67,16.67,0,0,0,4.3-.05l1-.29c.33-.12.64-.29,1-.42a17.21,17.21,0,0,0,1.84-1,35.93,35.93,0,0,0,6.15-5.31c1.82-1.91,3.47-3.87,5-5.8,3.06-3.89,5.69-7.66,8-11.14,4.6-7,8-12.78,10.26-16.79l2.59-4.62.67-1.2.23-.41s-.06.15-.19.43l-.63,1.22c-.56,1.07-1.41,2.64-2.53,4.66-2.24,4-5.57,9.87-10.14,16.87-2.29,3.51-4.92,7.29-8,11.2-1.54,1.94-3.19,3.92-5,5.85a36.59,36.59,0,0,1-6.22,5.38,17.87,17.87,0,0,1-1.87,1c-.33.14-.66.31-1,.43l-1.06.31a16.77,16.77,0,0,1-4.42.07,29.65,29.65,0,0,1-8.84-2.13,28.26,28.26,0,0,1-13.95-12.9l-.05-.11.07-.11,8.76-14.66,2.49-4.16.12-.21.21.14,5.52,3.68-.33.09c6.32-12.41,12.34-24.11,18.12-34.5.72-1.3,1.46-2.57,2.2-3.82.39-.61.73-1.24,1.14-1.83l.61-.89c.21-.29.47-.54.71-.82a15.31,15.31,0,0,1,7.21-3.8A19.88,19.88,0,0,1,672,221a12.28,12.28,0,0,1,6.43,2.71,18.19,18.19,0,0,1,3.82,5.08,21.48,21.48,0,0,1,1.94,5.3,20.85,20.85,0,0,1,.18,9c-.14.6-.23,1.18-.41,1.7l-.48,1.46c-.36.87-.7,1.6-1,2.18l-.75,1.26A4.49,4.49,0,0,1,681.42,250.06Z"/><path class="cls-11" d="M606.8,243.25s-7.16-5.71-20.91-6.73-21-.58-21,1,.15,1.5,1.32,2.07,11.25.42,12.13,1.88-.14,1.17-.14,1.17-16.54,2.48-16.67,4.24c-.28,3.64,2.19,2.78,2.19,2.78s13.6-3.07,14.48-2.34,1.6.14.87.73-15.79,5.55-15.49,6.58,1.17,2.63,2.77,2,13.75-5.4,14.48-4.67,1,1.75,0,2.34S570,263.5,570.54,264s1.17,1.79,2.78.76,11.26-8.47,13.45-9.06,13.74-1,13.74-1"/><path class="cls-12" d="M600.51,254.65l-.47,0-1.4.08-5.39.33c-1.16.09-2.46.18-3.88.32-.7.07-1.44.15-2.19.29a6.6,6.6,0,0,0-2.14,1c-2.82,1.74-5.86,4-9.24,6.49-.86.61-1.67,1.27-2.65,1.86a2.22,2.22,0,0,1-.85.26,1.46,1.46,0,0,1-.89-.26,3.8,3.8,0,0,1-.66-.6,3.9,3.9,0,0,0-.28-.29l0,0a.25.25,0,0,1-.08-.15.37.37,0,0,1,0-.2,2.18,2.18,0,0,1,.12-.22A21.78,21.78,0,0,1,572.9,261c.86-.83,1.75-1.65,2.67-2.47s1.86-1.65,2.82-2.48c.49-.42,1-.83,1.49-1.24a8.73,8.73,0,0,1,.8-.59,1.06,1.06,0,0,0,.52-.61,1.13,1.13,0,0,0-.12-.81,2.26,2.26,0,0,0-.25-.38l-.15-.17s-.06-.06-.06,0h0a7.06,7.06,0,0,0-1.88.34c-1.29.36-2.58.8-3.89,1.26-2.61.91-5.25,1.93-8,3a3.91,3.91,0,0,1-1.11.31,1.88,1.88,0,0,1-1.17-.35,3.69,3.69,0,0,1-1.25-1.95v0a.39.39,0,0,1,0-.26.83.83,0,0,1,.12-.17,1.5,1.5,0,0,1,.24-.21c.17-.11.33-.21.5-.3.33-.19.67-.35,1-.51.68-.32,1.37-.61,2.07-.9,2.8-1.14,5.68-2.18,8.6-3.27l2.18-.83a3.61,3.61,0,0,0,1-.5l.08-.07s0,0,0,0a.19.19,0,0,0,.06.25l.06,0h0a2,2,0,0,1-.31,0,1.74,1.74,0,0,1-.62-.24,1.31,1.31,0,0,1-.27-.19s0,0,0,0l-.12,0a4.87,4.87,0,0,0-.55,0c-.38,0-.77,0-1.16.09-.79.09-1.57.21-2.36.34-3.41.58-6.77,1.29-10,2h0a1.77,1.77,0,0,1-2.41-1.43,4.9,4.9,0,0,1-.09-1.47.67.67,0,0,1,.15-.44,1.39,1.39,0,0,1,.31-.29,3.17,3.17,0,0,1,.65-.35,32.23,32.23,0,0,1,5.33-1.56c3.55-.78,7-1.38,10.42-1.9h.1a.35.35,0,0,0,.21,0,.3.3,0,0,0,0-.16,2.78,2.78,0,0,0-.31-.69,2.61,2.61,0,0,0-1.32-.59,22.37,22.37,0,0,0-3.15-.47c-2.12-.21-4.2-.29-6.24-.49a4.38,4.38,0,0,1-1.53-.36,5.18,5.18,0,0,1-.7-.36,1,1,0,0,1-.47-.74,5.19,5.19,0,0,1-.05-.78,2,2,0,0,1,0-.41.92.92,0,0,1,.23-.41,3.16,3.16,0,0,1,1.41-.65,28,28,0,0,1,5.67-.54c3.68-.05,7.13.12,10.33.32a75.66,75.66,0,0,1,8.8.92A43.38,43.38,0,0,1,603,240.89a26.65,26.65,0,0,1,2.89,1.67c.31.21.54.38.7.5a1,1,0,0,1,.22.19l-.25-.16c-.16-.11-.39-.27-.71-.47a30,30,0,0,0-2.92-1.6,44,44,0,0,0-11.87-3.72,77.33,77.33,0,0,0-8.77-.86c-3.19-.18-6.64-.34-10.3-.27a28.74,28.74,0,0,0-5.58.54,3,3,0,0,0-1.23.55c-.14.15-.13.26-.13.55a5.24,5.24,0,0,0,.05.7.67.67,0,0,0,.3.49,5.61,5.61,0,0,0,.65.33,3.88,3.88,0,0,0,1.4.31c2,.2,4.11.27,6.24.48a24.28,24.28,0,0,1,3.22.47,6.27,6.27,0,0,1,.81.25,1.61,1.61,0,0,1,.77.54,3.23,3.23,0,0,1,.36.82.59.59,0,0,1-.16.6.71.71,0,0,1-.59.07h.09c-3.37.52-6.86,1.13-10.39,1.91a32.77,32.77,0,0,0-5.24,1.53c-.38.18-.88.42-.84.7a4.89,4.89,0,0,0,.07,1.33,1.56,1.56,0,0,0,.63,1,1.53,1.53,0,0,0,1.19.09h0c3.29-.73,6.64-1.44,10.08-2,.79-.13,1.58-.26,2.37-.35.4,0,.8-.08,1.21-.09a3.37,3.37,0,0,1,.63,0l.18,0a.7.7,0,0,1,.21.11l.21.15a1.64,1.64,0,0,0,.48.18,1.85,1.85,0,0,0,.27,0h.06s0,0,.13.06a.25.25,0,0,1,.08.31l-.06.08-.14.13a3.85,3.85,0,0,1-1.1.57l-2.19.84c-2.92,1.08-5.8,2.12-8.58,3.25-.7.28-1.39.57-2.06.89-.33.15-.67.31-1,.49a3.85,3.85,0,0,0-.45.28c-.14.07-.27.27-.22.18a3.3,3.3,0,0,0,1.08,1.71,1.41,1.41,0,0,0,.89.26,3.33,3.33,0,0,0,1-.28c2.7-1,5.35-2,8-3,1.31-.45,2.61-.89,3.92-1.25a6.73,6.73,0,0,1,2.06-.35.54.54,0,0,1,.33.18,1.63,1.63,0,0,1,.17.2,2.31,2.31,0,0,1,.29.45,1.54,1.54,0,0,1,.16,1.1,1.45,1.45,0,0,1-.72.85,8.57,8.57,0,0,0-.75.56c-.5.4-1,.81-1.48,1.22q-1.46,1.23-2.82,2.46t-2.67,2.46a22.1,22.1,0,0,0-2.37,2.5.79.79,0,0,0-.08.16s0,0-.08,0h0l.07-.08,0,0c.12.11.22.22.31.32a3.35,3.35,0,0,0,.59.55,1.29,1.29,0,0,0,1.4,0c.9-.54,1.76-1.22,2.61-1.82,3.39-2.46,6.44-4.71,9.29-6.44a7.26,7.26,0,0,1,2.23-1c.77-.13,1.51-.21,2.22-.27,1.42-.13,2.72-.21,3.89-.28,2.34-.13,4.16-.2,5.39-.24l1.4,0Z"/><path class="cls-6" d="M635.67,281.67a54.7,54.7,0,0,1-.58-7.15,54.71,54.71,0,0,1-.11-7.16,56.58,56.58,0,0,1,.58,7.14A54.87,54.87,0,0,1,635.67,281.67Z"/><path class="cls-6" d="M640.82,302.61c0-.13,7.74.79,17.25,2s17.21,2.38,17.19,2.51-7.74-.79-17.25-2.05S640.81,302.73,640.82,302.61Z"/><path class="cls-6" d="M650.81,300.68c0-.12,4.36-1.41,9.83-2.88s9.92-2.57,10-2.44-4.37,1.41-9.83,2.88S650.84,300.81,650.81,300.68Z"/></g><g id="Character_2" data-name="Character 2"><path class="cls-11" d="M262.09,60.86l1.19-.07c11.89-.66,22.31,7.67,24,19.13,1.52,10.67,3.06,22.46,3.33,28.22.55,11.91-11.59,14.44-11.59,14.44l.44,4.84c.72,8-3.36,19.68-11.59,20.34L265,146.1c-8.13.65-14.46-8.15-15.24-16l-4.35-44.19C243.56,73.58,249.4,62.3,262.09,60.86Z"/><path class="cls-12" d="M279.07,122.56a30.51,30.51,0,0,1-16.31-3.67s4.28,8.36,16.43,6.6Z"/><path class="cls-6" d="M283.8,91a1.72,1.72,0,0,1-1.59,1.81,1.66,1.66,0,0,1-1.89-1.43,1.71,1.71,0,0,1,1.58-1.81A1.67,1.67,0,0,1,283.8,91Z"/><path class="cls-6" d="M284.94,85.89c-.21.23-1.59-.65-3.47-.54s-3.2,1.1-3.42.89.09-.5.67-1a4.83,4.83,0,0,1,2.72-1,4.68,4.68,0,0,1,2.77.7C284.82,85.39,285,85.78,284.94,85.89Z"/><path class="cls-6" d="M267.53,92.1a1.72,1.72,0,0,1-1.59,1.81,1.65,1.65,0,0,1-1.89-1.43,1.72,1.72,0,0,1,1.58-1.81A1.68,1.68,0,0,1,267.53,92.1Z"/><path class="cls-6" d="M266.46,87.26c-.2.24-1.58-.64-3.46-.53s-3.21,1.1-3.43.89.09-.51.67-1a4.86,4.86,0,0,1,2.72-1,4.69,4.69,0,0,1,2.78.7C266.34,86.77,266.56,87.16,266.46,87.26Z"/><path class="cls-6" d="M274.09,100.44a13.36,13.36,0,0,1,3-.7c.48-.08.92-.2,1-.52a2.37,2.37,0,0,0-.41-1.37c-.51-1.1-1.06-2.26-1.63-3.47-2.27-5-3.94-9-3.74-9.13s2.22,3.86,4.49,8.81l1.57,3.51a2.61,2.61,0,0,1,.36,1.81,1.2,1.2,0,0,1-.75.73,3.4,3.4,0,0,1-.81.16A12.36,12.36,0,0,1,274.09,100.44Z"/><path class="cls-6" d="M266.52,80.07c-.15.5-2,.37-4.24.76s-3.94,1.06-4.26.63c-.14-.2.14-.69.83-1.21a7.64,7.64,0,0,1,6.48-1.06C266.16,79.46,266.59,79.83,266.52,80.07Z"/><path class="cls-6" d="M283.93,80.63c-.3.44-1.63.08-3.19.14s-2.86.44-3.19,0c-.14-.21,0-.63.59-1.06a4.56,4.56,0,0,1,2.55-.83,4.48,4.48,0,0,1,2.59.7C283.86,80,284.07,80.42,283.93,80.63Z"/><path class="cls-6" d="M285.72,74.52s-3.67-7.27-7.47-8.8c-4.6-1.86-6.24,3-10.58,2.11s-8.72-2.71-12.89.74c-4.57,3.78-2.18,6.11-2.17,11.41.07,21.48-3.59,27.76-5.33,17.74-.19-1.1-3.4-1.8-4.14-6.44-1-6-1.64-13.36-.5-17.73,1-3.69,2.93-6.31,6.57-9.28,5.76-4.69,14-5.25,19.65-5S285.68,65.16,285.72,74.52Z"/><path class="cls-11" d="M248,97.35a3.3,3.3,0,0,0-3.77-2.91c-2.27.34-4.74,1.74-4.32,6.32.75,8.12,9,5.71,9,5.48S248.39,100.75,248,97.35Z"/><path class="cls-12" d="M246.83,103.34s-.14.11-.37.24a1.5,1.5,0,0,1-1.09.12c-.91-.24-1.78-1.53-2-3a4.65,4.65,0,0,1,.23-2.06,1.66,1.66,0,0,1,1-1.18.75.75,0,0,1,.89.32c.14.21.1.38.15.39s.16-.15.06-.48a.9.9,0,0,0-.37-.48,1.15,1.15,0,0,0-.83-.14,2,2,0,0,0-1.4,1.39,4.73,4.73,0,0,0-.3,2.31c.21,1.63,1.21,3.09,2.45,3.32a1.56,1.56,0,0,0,1.31-.33C246.83,103.54,246.86,103.35,246.83,103.34Z"/><path class="cls-6" d="M287.5,65.72c-1.29-.94-3.06-1.08-4.33-2C280.84,62,280.74,58,278,57c-1.62-.61-3.44.14-5.16,0-2.8-.28-3.88-2.34-8.12-2.35-5.51,0-7.28,4-7.28,4a6.54,6.54,0,0,0-6.35.58,6.78,6.78,0,0,0-2.66,4.93s-.87-.43-3.52,1.6c-1.68,1.3-3.06,4.08-3.67,6.08-.91,3,.42,6.12,1.73,9,.7,1.54,1.58,3.22,3.22,3.76,2,.66,4.2-.86,5-2.77s2-3.82,3-5.65c1.65-3.18,3.33-6.14,1.95-8.18a9.86,9.86,0,0,1,5.89,0c1.92.62,3.59,1.81,5.5,2.47s4.32.61,5.61-.89a4.17,4.17,0,0,0,6.29,1.32,5.82,5.82,0,0,0,7.5,2.06C289.34,71.38,289.8,67.4,287.5,65.72Z"/><path class="cls-9" d="M242.14,78.83a9.35,9.35,0,0,1,1,1.86,4,4,0,0,0,1.38,1.65,3.77,3.77,0,0,0,2.59.29,6.52,6.52,0,0,0,2.51-1,9.78,9.78,0,0,0,1.63-1.54,15,15,0,0,1,1.4-1.58,6.8,6.8,0,0,1-1.12,1.8A8.82,8.82,0,0,1,249.86,82a6.44,6.44,0,0,1-2.69,1.14,3.51,3.51,0,0,1-4.38-2.26A8.11,8.11,0,0,1,242.14,78.83Z"/><path class="cls-9" d="M242.46,85.11a7.29,7.29,0,0,0,1.65.89,4.74,4.74,0,0,0,2,.16,5.83,5.83,0,0,0,2.3-.85,11.1,11.1,0,0,0,3.14-3.22,9.28,9.28,0,0,1,1.14-1.54,6.1,6.1,0,0,1-.84,1.72,9.91,9.91,0,0,1-3.18,3.45,5.9,5.9,0,0,1-2.51.89,4.73,4.73,0,0,1-2.17-.29C242.81,85.85,242.41,85.12,242.46,85.11Z"/><path class="cls-12" d="M268.75,103.44a10,10,0,0,0-.47,2.73,3.05,3.05,0,0,0,.91,2.4,3.56,3.56,0,0,0,2.71,1.22h0a3.88,3.88,0,0,0,3.86-3.23l.33-2C274.15,104,268.9,103.57,268.75,103.44Z"/><path class="cls-6" d="M273.9,109.21s-.25,0-.67.06a6,6,0,0,1-1.77,0,3.5,3.5,0,0,1-2.15-1.22,4.12,4.12,0,0,1-.85-2.86,4.2,4.2,0,0,1,.45-1.65l-.26.12c1.88.28,3.53.5,4.71.63a9.09,9.09,0,0,0,1.89.14,8.05,8.05,0,0,0-1.84-.44c-1.17-.23-2.8-.51-4.68-.81l-.17,0-.09.15a4.62,4.62,0,0,0,.48,5,3.81,3.81,0,0,0,2.46,1.28,5.07,5.07,0,0,0,1.86-.18A1.6,1.6,0,0,0,273.9,109.21Z"/><path class="cls-6" d="M233.06,233.42l-27-23.11-3,29.52,53.1,39.09,18.37-2.36L289.19,270s30.62-41.67,30.62-44.51l-12.17,4.9Z"/><path class="cls-6" d="M233.06,233.42c.57,1.65,41.91,41.27,41.91,41.27l-24.58,27.12s-47.75-41.52-55.89-47.91-18.86-19.06-19.7-27.4,10.34-19.34,10.34-19.34,11,0,17.2,2S233.06,233.42,233.06,233.42Z"/><path class="cls-9" d="M221.73,295.5c.64-3.38,1.31-6.86,3.16-9.76s5.19-5.13,8.59-4.65c2.27.32,4.24,1.76,6.47,2.28s4.46.13,6.71.1,6.08,0,7.49,1.71l16.72,11.43c-5.15,3.62-13.94,4-20.18,4.88s-12.61,1.3-18.55,3.41c-2.58.92-5.48,2.14-7.93.91a6,6,0,0,1-2.94-4.64A17.81,17.81,0,0,1,221.73,295.5Z"/><path class="cls-6" d="M223.43,304.93a4.36,4.36,0,0,1-.06-1c0-.64,0-1.58,0-2.73a38.2,38.2,0,0,1,1.27-8.93,18.81,18.81,0,0,1,4.39-7.88,12.64,12.64,0,0,1,2.12-1.76,3.39,3.39,0,0,1,.89-.48,28.11,28.11,0,0,0-2.74,2.49,20,20,0,0,0-4.16,7.77,44.44,44.44,0,0,0-1.4,8.81A28.82,28.82,0,0,1,223.43,304.93Z"/><path class="cls-6" d="M237.74,302.13c-.15-.05.7-2.92,1.18-6.55s.45-6.62.6-6.62a6.28,6.28,0,0,1,.2,2,30.61,30.61,0,0,1-.28,4.73,31,31,0,0,1-1,4.64A6.68,6.68,0,0,1,237.74,302.13Z"/><path class="cls-6" d="M243.65,299.52c-.15-.06.81-2.08,1.25-4.76s.22-4.89.38-4.91a10.27,10.27,0,0,1,.13,5A10.48,10.48,0,0,1,243.65,299.52Z"/><path class="cls-6" d="M249.06,295s.37-.22,1-.66a9.12,9.12,0,0,0,2.25-2.28,8.14,8.14,0,0,0,.55-.91,3.85,3.85,0,0,0,.4-1,.54.54,0,0,0-.42-.7,1.85,1.85,0,0,0-1.15.19,4,4,0,0,0-1.91,1.83,4.27,4.27,0,0,0-.37,2.83,5.38,5.38,0,0,0,3.7,4,3.9,3.9,0,0,0,1.21.25c.35,0,.38-.26.14-.55a13.07,13.07,0,0,0-1.75-1.31,35.5,35.5,0,0,0-3.95-2.05,4.24,4.24,0,0,1,1.16.32,16.43,16.43,0,0,1,3,1.42,12.35,12.35,0,0,1,1.89,1.34.92.92,0,0,1,.26.76.74.74,0,0,1-.68.52,4,4,0,0,1-1.4-.24,6.4,6.4,0,0,1-2.55-1.51,5.5,5.5,0,0,1-1.52-2.8,4.82,4.82,0,0,1,.42-3.16,4.53,4.53,0,0,1,2.18-2,2.31,2.31,0,0,1,1.45-.2,1,1,0,0,1,.64.47,1.12,1.12,0,0,1,.1.75,4.47,4.47,0,0,1-.48,1.15,7.81,7.81,0,0,1-.6.93,8.43,8.43,0,0,1-2.44,2.24A3.26,3.26,0,0,1,249.06,295Z"/><path class="cls-6" d="M261.27,269.51s48.78-36.95,56.73-43.45,28-19.59,35.89-2.76-2.62,22.33-7.14,30.45-32.15,31.14-43.09,38.35c-8.83,5.82-24.88,5.82-24.88,5.82l-11.17,7.73-19.94-25.19Z"/><path class="cls-9" d="M303.66,284.61c3.23-2.37,5.64-4,8.1-3s4.13,3.35,5.33,5.73a58.2,58.2,0,0,1,3.53,9.92c.88,3.05,1.62,6.73-.51,9.08a6.39,6.39,0,0,1-5.75,1.62,18.74,18.74,0,0,1-5.73-2.37c-5.45-3-17.36-7.69-22.81-10.69Z"/><path class="cls-6" d="M310.75,283.43a3.65,3.65,0,0,1,.65.76c.38.51.92,1.28,1.53,2.26a40.62,40.62,0,0,1,3.82,8.14,42,42,0,0,1,1.32,4.79,20.76,20.76,0,0,1,.55,4,5.93,5.93,0,0,1-.52,2.71,2.27,2.27,0,0,1-.57.83,6.68,6.68,0,0,0,.72-3.53,24,24,0,0,0-.65-3.93c-.34-1.47-.78-3.07-1.34-4.72a48.79,48.79,0,0,0-3.65-8.12C311.48,284.65,310.68,283.48,310.75,283.43Z"/><path class="cls-6" d="M302.75,298.79a11.42,11.42,0,0,1,0-9.61,40.2,40.2,0,0,0-.52,4.81A39.54,39.54,0,0,0,302.75,298.79Z"/><path class="cls-6" d="M296.39,296.47a3.41,3.41,0,0,1-1.14-2.29,3.3,3.3,0,0,1,.31-2.54c.14,0,0,1.13.2,2.45S296.52,296.38,296.39,296.47Z"/><path class="cls-9" d="M314.19,229.09l-.32.27-.95.76-3.72,2.93-13.91,10.84-47.47,36.77.05-.36c4.48,5.67,9.17,11.58,14,17.64,2,2.54,4,5.06,6,7.55l-.36-.05,9.77-7.14,0,0,0,0a146.86,146.86,0,0,0,15.77-7.62c4.92-2.72,9.51-5.54,13.75-8.39a138,138,0,0,0,11.51-8.67c3.49-2.84,6.72-5.47,9.63-7.9,5.82-4.84,10.35-8.87,13.4-11.71,1.53-1.41,2.69-2.53,3.47-3.29l.9-.85.31-.28s-.09.11-.28.31l-.86.89c-.77.78-1.91,1.91-3.42,3.35-3,2.89-7.52,7-13.31,11.84-2.9,2.44-6.11,5.09-9.59,7.95a137,137,0,0,1-11.51,8.72c-4.24,2.88-8.84,5.72-13.77,8.45a147.77,147.77,0,0,1-15.81,7.68l.06,0q-4.8,3.5-9.77,7.15l-.2.15-.16-.2-6-7.55-14-17.64-.16-.21.2-.15,47.58-36.63,14-10.72,3.77-2.86,1-.73Z"/><path class="cls-9" d="M228.92,232.6c.1-.1,7.9,6.61,17.42,15s17.18,15.28,17.09,15.39-7.9-6.61-17.43-15S228.83,232.71,228.92,232.6Z"/><path class="cls-11" d="M349.49,167.73c-.28-.16-4.91-5-3-11.29s4.9-9.92,6.55-12.38,3.85-9.43,5.34-9,2.81,1.61,2.74,4.11-4,7.26-2.56,9.71a2.2,2.2,0,0,0,3,.76s8.78-4.75,12.12-7.27,7-3.85,7.57-2.55.38,2.38-2.4,4.46-7.65,4.89-7.46,5.7,1.45.61,3.08-.58,9.69-6.25,10.83-5.7a2.08,2.08,0,0,1,.73,3.17l-1.45,1.84s2.09.8,1.73,2.21-2.64,2.42-2.64,2.42l-10.88,6.4s-.19,1,.4,1.25,8.56-5.6,9.22-4.75,1.66.82-.44,3-8.4,6.11-11.06,6.94-12.39,6.34-12.39,6.34Z"/><path class="cls-12" d="M369.18,157c.1.19,3.75-1.32,8-3.62s7.56-4.49,7.44-4.67-3.57,1.69-7.84,4S369.08,156.8,369.18,157Z"/><path class="cls-12" d="M360.8,160.27c.05.06.81-.47,1.4-1.78a6.17,6.17,0,0,0-.25-5.4,15.71,15.71,0,0,0-1.83-2.39,8.52,8.52,0,0,1-1.29-1.9,7.58,7.58,0,0,1-.49-2c-.08-.06-.54.85,0,2.24a7.55,7.55,0,0,0,1.25,2.15,21.52,21.52,0,0,1,1.7,2.31,6.24,6.24,0,0,1,.42,4.84C361.26,159.54,360.69,160.18,360.8,160.27Z"/><path class="cls-11" d="M334.18,184.22l12.55-22,11.9,11.15s-8.8,25.79-13.55,33.24S335,216.77,335,216.77s-9.37-4.47-13.51-10.07-15-24.58-15-24.58l15.4-15.73Z"/><path class="cls-12" d="M333.55,194.84a18.22,18.22,0,0,1-.23-5.76,18.53,18.53,0,0,1,1.1-5.66c.16,0-.34,2.55-.58,5.7S333.7,194.83,333.55,194.84Z"/><path class="cls-10" d="M328.14,172.11s-9.86-20.4-15-29.06-24.07-10.11-24.07-10.11l10.65,48.22,5.42,5.63Z"/><path class="cls-6" d="M307.79,162.24a20.85,20.85,0,0,1-.51,4.4c-.48,2.8-1.1,6.46-1.79,10.51s-1.29,7.7-1.77,10.51c-.2,1.26-.37,2.33-.51,3.19A5.79,5.79,0,0,1,303,192a4.68,4.68,0,0,1,.05-1.19c.06-.76.18-1.86.35-3.21.34-2.71.91-6.44,1.62-10.55s1.41-7.81,1.94-10.49l.63-3.17A11.19,11.19,0,0,1,307.79,162.24Z"/><path class="cls-6" d="M309.91,154.39c-.15,0,.45-2.95.66-6.61s0-6.63.13-6.65a6.29,6.29,0,0,1,.33,1.94,32.55,32.55,0,0,1,.06,4.74,33,33,0,0,1-.62,4.7A6.21,6.21,0,0,1,309.91,154.39Z"/><path class="cls-10" d="M299.7,134.86s6.83,33.25,3.88,46.17l-1.76,31.31s5.41,15.84,4.63,18.08-21.3,21.28-38.86,20.16-30-12.71-31.52-13.83-8.18-5.32-8.18-5.32L229,217.49l-1.3-45.88-3.15-34.69,20.51-5,4.25-6.18,23,19.31,7.58-19.31,2.5,5.49Z"/><path class="cls-6" d="M247,216.93a16.35,16.35,0,0,0,2.28.84,11.59,11.59,0,0,0,6.51-.51,30.69,30.69,0,0,0,8.56-4.85,93.38,93.38,0,0,0,23.24-24.82c1.53-2.37,2.66-4.36,3.44-5.73l.88-1.6a2.86,2.86,0,0,1,.34-.54,2.63,2.63,0,0,1-.25.59l-.79,1.64c-.72,1.41-1.81,3.43-3.31,5.84a88.78,88.78,0,0,1-23.27,25,30.24,30.24,0,0,1-8.72,4.81,11.47,11.47,0,0,1-6.68.36,6.09,6.09,0,0,1-1-.35,4,4,0,0,1-.69-.35A2.47,2.47,0,0,1,247,216.93Z"/><path class="cls-6" d="M271.62,147.8s-.21-.18-.54-.57l-1.39-1.71.23,0c-.78,1.49-1.78,3.51-3.16,5.95a1.44,1.44,0,0,1-1,.62,1.93,1.93,0,0,1-1.16-.36,15.77,15.77,0,0,1-1.73-1.53l-3.52-3.35c-3.79-3.61-7.19-6.89-9.64-9.29l-2.88-2.86a10.37,10.37,0,0,1-1-1.1,8,8,0,0,1,1.15.95l3,2.74c2.52,2.33,6,5.58,9.75,9.19l3.51,3.36a18.14,18.14,0,0,0,1.64,1.49,1,1,0,0,0,1.57-.13c1.34-2.3,2.45-4.39,3.28-5.81l.11-.19.12.17,1.29,1.79A3.75,3.75,0,0,1,271.62,147.8Z"/><path class="cls-6" d="M282.83,132.9a4.32,4.32,0,0,1,0,1.11c-.06.7-.15,1.73-.37,3a41.65,41.65,0,0,1-2.79,9.53c-.52,1.22-1.08,2.38-1.65,3.45l-.28.51-.18-.55c-.94-2.79-1.73-5.2-2.27-6.9l.29,0a17.72,17.72,0,0,1-1.54,2.53,21.14,21.14,0,0,1,1.26-2.68l.17-.32.12.35c.62,1.67,1.47,4.06,2.44,6.84l-.46,0c.55-1.06,1.1-2.2,1.62-3.41a48.68,48.68,0,0,0,2.91-9.4C282.59,134.45,282.75,132.89,282.83,132.9Z"/><path class="cls-11" d="M222,175.36l-15.62,19.79s3.11,6.52,3.88,8.6S224,226.42,224,226.42l-12.76,6.51s-20.3-18.49-26.8-26.05A17.66,17.66,0,0,1,180.5,192c1-4.95,23.62-32.15,23.62-32.15l14.53,1.69Z"/><path class="cls-11" d="M224,226.42s7.9,19.83,8.65,22.13,1.25,16.46.62,18.76-4.12,9.06-5.62,9.57-2.64,1.29-1.75-2.55a36.25,36.25,0,0,1,2.12-6.51l.25-7.65s-1.8,6-3.12,6.76-5.25-.64-5.25-.64V265s-3.5.51-4-.76.45-3.66.45-3.66-2,3.91-4,2.64-.38-2,0-4.59a29.18,29.18,0,0,0,0-9.06c-.58-3.29-1.5-5.61-1.88-7.78s.72-8.87.72-8.87l7.16-7.46Z"/><path class="cls-10" d="M198,164.32s16.46-20.21,20.57-24.49S229.22,137,229.8,137s7.49,10.95,6.31,21.74a25.71,25.71,0,0,1-8.3,16.48l-10,12.48Z"/><path class="cls-12" d="M222.34,256.87a14.82,14.82,0,0,1-.77,4.78,15.1,15.1,0,0,1-1.78,4.5,43.62,43.62,0,0,1,1.28-4.64A43.44,43.44,0,0,1,222.34,256.87Z"/><path class="cls-12" d="M217.18,254.45a9.62,9.62,0,0,1-.12,4.24,9.41,9.41,0,0,1-1.5,4c-.14-.06.55-1.81,1-4.07S217,254.45,217.18,254.45Z"/><path class="cls-6" d="M229.83,171.29a9.87,9.87,0,0,1,.65-1.39c.45-.88,1.1-2.15,1.83-3.75A32.93,32.93,0,0,0,235.74,153a18.8,18.8,0,0,0-1.3-7.32,14.56,14.56,0,0,0-8.05-8.15,1.74,1.74,0,0,1,.39.09,7.91,7.91,0,0,1,1.08.39,12.52,12.52,0,0,1,3.49,2.35,15.26,15.26,0,0,1,3.53,5.14,18.66,18.66,0,0,1,1.38,7.51,31.61,31.61,0,0,1-3.61,13.29c-.79,1.58-1.49,2.83-2,3.68A8.5,8.5,0,0,1,229.83,171.29Z"/><path class="cls-12" d="M200.58,185.07a8.54,8.54,0,0,1,1.65,1.64,24.71,24.71,0,0,1,3.1,4.68,25.17,25.17,0,0,1,2,5.26,7.93,7.93,0,0,1,.36,2.3,55,55,0,0,0-2.8-7.32A54.5,54.5,0,0,0,200.58,185.07Z"/></g><g id="Character_3" data-name="Character 3"><path class="cls-6" d="M414.05,212.07a8,8,0,0,1-8.48,8.49c-.25,0-.49-.06-.73-.1-2.72-.51-5-2.3-7.15-4l-12.28-9.84a27.62,27.62,0,0,1-5.24-5,9.32,9.32,0,0,1-2-6.8l.68-.17a12.77,12.77,0,0,1,10.44-6.23,16.62,16.62,0,0,1,11.6,4.32c2.2,1.95,3.94,4.38,6.15,6.31,0,0,4.25.49,5.7,4.4A35.65,35.65,0,0,1,414.05,212.07Z"/><path class="cls-6" d="M380.77,195.49a13.47,13.47,0,0,0-5.72-2.84,8,8,0,0,0-6.15,1.18c-1.63,1.17-2.62,3-3.76,4.63s-2.56,3.65-4.54,3.94a1.81,1.81,0,0,0-1,.36c-.45.43-.2.8.36,1.06a2.94,2.94,0,0,0,1.83,0,6.52,6.52,0,0,1-3.85,2.17,2.82,2.82,0,0,0,3.46,2,29.31,29.31,0,0,0-1.14,7.06,9.81,9.81,0,0,0,2.31,6.62c1.79,1.93,4.69,3,5.48,5.52"/><path class="cls-11" d="M398,279.76l-32-.41,3.57-27.23s-2.19-.46-2.33-12.31-.69-32-.69-32h0a41.17,41.17,0,0,1,41.36,5.2l1.75,1.35Z"/><path class="cls-11" d="M406,229c.2-.08,8.14-2.4,7.88,5.69s-8.34,6.17-8.34,5.94S406,229,406,229Z"/><path class="cls-11" d="M368,227.27c-.2-.08-7.42-2-7.16,6.07s8.33,6.16,8.34,5.93S368,227.27,368,227.27Z"/><path class="cls-6" d="M408.61,228.06c-1.21,6.78-1,10.35-2.09,14.88-1.77,7.17-5.33,12.67-11.79,16.25s-15.2,3.52-20.75-1.36c-3.85-3.38-6.58-7.2-7.15-12.3s-2.07-14.66-2.11-19.78c-.06-9.25.25-17.54.25-17.54l26.41-4.78,15,8.94Z"/><path class="cls-6" d="M381.37,263.28c0,.19,2,.7,4.63.41s4.51-1.23,4.43-1.41-2,.41-4.51.67S381.4,263.07,381.37,263.28Z"/><path class="cls-6" d="M407.34,239.59c.77-7,1.27-14.9,2.36-22.23.41-2.75,1.39-6.72,1.14-9.49s-1-1.93-2.23-4.44c-1.53-3.14-7.4-5.24-10.83-5.93s-3.86-3.66-6.5-1.35a8.58,8.58,0,0,0-15.63,3.61,6,6,0,0,0-9.82,6,5.82,5.82,0,0,0-3.93,8.91c1.23,1.88,3.43,2.92,4.78,4.72a6.77,6.77,0,0,1,.41,7.31"/><path class="cls-9" d="M373.31,238.15c-.17,0-.54,3.32.91,7.11s3.92,6.09,4,5.94-2-2.55-3.33-6.2S373.54,238.14,373.31,238.15Z"/><path class="cls-9" d="M369.76,232.24c-.16-.08-1.19,2.81-.51,6.41s2.62,6,2.74,5.82-1.42-2.53-2-5.95S370,232.28,369.76,232.24Z"/><path class="cls-6" d="M403,204.25a18.09,18.09,0,0,0-8.24-7.37c-3.48-1.38-7.76-1.1-10.61,1.33"/><path class="cls-9" d="M402.36,222.17a6.6,6.6,0,0,1,.26-2.39,31.15,31.15,0,0,0,.61-5.61A12.57,12.57,0,0,0,402,208.8c-.64-1.27-1.28-1.93-1.17-2s.9.42,1.74,1.72a10.79,10.79,0,0,1,1.58,5.68,20,20,0,0,1-.91,5.78C402.83,221.36,402.48,222.2,402.36,222.17Z"/><path class="cls-9" d="M396.9,224.85c-.24-.13.42-1.73,1.05-3.74s1-3.7,1.3-3.67.27,1.84-.41,3.95S397.11,225,396.9,224.85Z"/><path class="cls-9" d="M371.53,222.77a6.88,6.88,0,0,1-1.81-2.89,14.28,14.28,0,0,1,3.1-15.5c1.52-1.51,2.74-2.06,2.79-2s-1,.86-2.31,2.42a15.21,15.21,0,0,0-3,14.82C371,221.59,371.66,222.69,371.53,222.77Z"/><path class="cls-9" d="M400.4,192.65a11.79,11.79,0,0,1-2.6-1.1,15.39,15.39,0,0,0-6.37-1.56,7.69,7.69,0,0,0-5.78,2.43,18.06,18.06,0,0,0-1.48,2.31c-.09,0-.13-1.22,1-2.73a7.15,7.15,0,0,1,2.46-2.06,8.69,8.69,0,0,1,3.81-.89A13.41,13.41,0,0,1,398.1,191C399.63,191.84,400.46,192.55,400.4,192.65Z"/><path class="cls-9" d="M364.29,200.15c-.1,0,.09-.94.94-2.14a8.73,8.73,0,0,1,10.29-3c1.36.56,2,1.22,1.94,1.3s-.84-.31-2.15-.67a9.3,9.3,0,0,0-9.57,2.78C364.83,199.43,364.42,200.21,364.29,200.15Z"/><path class="cls-9" d="M373,229.91c0-.11,1.3-.47,3.43-1.42a27.32,27.32,0,0,0,7.82-5.29l1.53-1.48-.84,2a17.61,17.61,0,0,0-1.14,3.85c-.13.66-.24,1.5,0,1.61s.91-.16,1.51-.58a24.55,24.55,0,0,0,5.44-4.81l1.4-1.68-.64,2.09c-.64,2.09-1.24,4-1.78,5.8l-.61-.37c3.71-3.51,5-6.64,5.17-6.52a6.7,6.7,0,0,1-.91,2.11,21.9,21.9,0,0,1-3.75,4.94l-1,1,.38-1.35,1.64-5.84.77.41a24.07,24.07,0,0,1-5.61,5,7.86,7.86,0,0,1-1.05.6,1.51,1.51,0,0,1-1.53-.06,1.62,1.62,0,0,1-.52-1.4,9,9,0,0,1,.17-1.13,17.55,17.55,0,0,1,1.25-4l.7.49a25.22,25.22,0,0,1-8.22,5.14A11,11,0,0,1,373,229.91Z"/><path class="cls-6" d="M388.45,198.69a4.12,4.12,0,0,0-2.55-2,7.17,7.17,0,0,0-3.29-.08,11.75,11.75,0,0,0-6.89,4c-.4.48-.75,1.21-.33,1.66a1.38,1.38,0,0,0,.91.31,50.77,50.77,0,0,0,11.94-.42"/><path class="cls-9" d="M321,350.26s-24.26-13.9-32.33-13.45c-7.36.42-15.17,2.67-18.59,8.82s-2.63,15.46,1.31,21.07S315.07,404,315.6,405.35s15.69,19.29,46.55,19.44c30.64.15,47.77.36,50.4-3.59s4.34-46.62,4.34-46.62Z"/><path class="cls-9" d="M463.91,321.9c-5.16-4.79-13.29-4.49-20.41-2.6-7.81,2.07-26.55,22.83-26.55,22.83l-8.07,81.07c15.95-5.26,24.9-26.48,28.48-32.11.76-1.2,29.84-42.2,31.85-48.76S469.07,326.68,463.91,321.9Z"/><path class="cls-10" d="M318,317.48s.2-26.42,5.56-35.17,9.14-10.92,17.09-11.92,27.42-2,27.42-2l34.77,2.38s29-.43,29,7.15c0,1.39-10.71,35.86-10.71,100.53,0,.63,5.35,2.36,2.14,9.65-4.51,10.24-19.77,30.62-46.72,30.62-22.06,0-46.43-10.66-48.42-26.16s5.38-60.6,5.38-60.6V316.89Z"/><path class="cls-10" d="M428.82,274.28s10.19,3,12.78,13.93,8.18,34.89,8.18,34.89l-28.71,2.39s-1.6-18.11-1.2-25.6S426.61,275.7,428.82,274.28Z"/><path class="cls-6" d="M342.26,345.5a2.5,2.5,0,0,1-.21-.59c-.13-.48-.28-1.05-.47-1.74-.39-1.51-.93-3.71-1.56-6.43-1.28-5.43-3-13-4.63-21.32s-3-16-3.74-21.51c-.38-2.77-.62-5-.76-6.58q-.06-1.06-.12-1.8a1.84,1.84,0,0,1,0-.63,2.91,2.91,0,0,1,.13.62l.25,1.78c.21,1.55.53,3.78,1,6.53.87,5.52,2.27,13.1,3.93,21.45s3.26,15.9,4.42,21.36c.56,2.65,1,4.84,1.36,6.47.14.7.25,1.29.34,1.77A2.07,2.07,0,0,1,342.26,345.5Z"/><path class="cls-6" d="M428,292.9a2.9,2.9,0,0,1,0,.65q-.09.74-.24,1.83l-.95,6.76c-.76,5.7-1.66,13.6-2.39,22.35s-1.27,16.69-1.69,22.44c-.21,2.79-.39,5.09-.52,6.8-.08.73-.14,1.34-.18,1.84a2.63,2.63,0,0,1-.11.65,1.89,1.89,0,0,1,0-.65c0-.51,0-1.12.05-1.86.08-1.71.19-4,.32-6.81.29-5.75.74-13.7,1.48-22.47s1.72-16.67,2.6-22.36c.44-2.85.84-5.15,1.16-6.73.15-.72.27-1.32.37-1.82S428,292.89,428,292.9Z"/><path class="cls-6" d="M374,395.81a9.88,9.88,0,0,1-2,0,15.65,15.65,0,0,1-2.29-.16,26.53,26.53,0,0,1-3-.44,30.77,30.77,0,0,1-3.59-.86,41.81,41.81,0,0,1-4-1.38,46.37,46.37,0,0,1-8.53-4.67,45.77,45.77,0,0,1-7.25-6.48,40.79,40.79,0,0,1-2.64-3.33,30.42,30.42,0,0,1-2-3.1,26.83,26.83,0,0,1-1.43-2.69,17.4,17.4,0,0,1-.91-2.11,10.79,10.79,0,0,1-.63-1.86c.14-.06,1,2.6,3.38,6.42a31.88,31.88,0,0,0,2.06,3,40.27,40.27,0,0,0,2.65,3.24,48.5,48.5,0,0,0,7.17,6.35,47.94,47.94,0,0,0,8.38,4.64c1.38.53,2.67,1.07,3.94,1.42a33.29,33.29,0,0,0,3.53.93C371.25,395.7,374.05,395.66,374,395.81Z"/><g class="cls-13"><path d="M344.85,376.84q-3.08-6.9-6.16-13.81a4.77,4.77,0,0,0,3.89,1.56c1.52-11.49,2-20.19-2.94-30.65,2.26,20.07-5.77,40.38-14.52,57.49,2.69.11,6.19-5.37,7.38-7.79s3.51-5.11,6-4.16c2,.77,3.2,3.74,5.34,3.35a2.7,2.7,0,0,0,1.92-2.63A7.77,7.77,0,0,0,344.85,376.84Z"/></g><path class="cls-6" d="M343.38,370.61c-.14.13-2-1.82-3.69-4.71s-2.63-5.35-2.48-5.43,1.45,2.26,3.07,5.09S343.52,370.48,343.38,370.61Z"/><path class="cls-6" d="M421.14,380.34a2.81,2.81,0,0,1-.28.76c-.22.49-.49,1.23-1,2.13a46.22,46.22,0,0,1-4.5,7.3,49.62,49.62,0,0,1-50.3,18.84,46.32,46.32,0,0,1-8.18-2.55c-.95-.37-1.64-.75-2.12-1a3.84,3.84,0,0,1-.71-.39,3.71,3.71,0,0,1,.77.27c.5.18,1.2.52,2.16.84a51.71,51.71,0,0,0,20.73,3.25,48.88,48.88,0,0,0,28.42-10.64,51.1,51.1,0,0,0,8.85-8.94,52.87,52.87,0,0,0,4.65-7.13c.5-.88.81-1.6,1.07-2.06A3.87,3.87,0,0,1,421.14,380.34Z"/><path class="cls-4" d="M422.57,328.17c0,.07-1.15-.58-3.33-1.28a26.67,26.67,0,0,0-9.59-1,50.43,50.43,0,0,0-14,3.2c-5.13,1.77-10.65,4.21-16.83,5.65a37.82,37.82,0,0,1-9.18,1.07,24.9,24.9,0,0,1-8.47-1.59c-5.16-2-9.05-5.19-12.39-7.56a60.08,60.08,0,0,0-8.19-5.25c-2.05-1-3.27-1.4-3.25-1.48a5,5,0,0,1,.89.26,23.89,23.89,0,0,1,2.48,1,55.13,55.13,0,0,1,8.35,5.1c3.38,2.33,7.29,5.41,12.33,7.36s11.22,1.9,17.28.45,11.61-3.83,16.78-5.58a49.39,49.39,0,0,1,14.17-3.09,25.66,25.66,0,0,1,9.69,1.26,18.35,18.35,0,0,1,2.45,1.06A5.39,5.39,0,0,1,422.57,328.17Z"/><path class="cls-11" d="M321,317.41v27.52s-7,17.47-9.64,28-9.63,37.26-9.63,37.26l9.64,8.56s16.75-32.27,21-43a126.53,126.53,0,0,0,6.13-20,76.21,76.21,0,0,0,1.9-13.29c.09-6.06-4.68-25-4.68-25Z"/><path class="cls-11" d="M263.47,424.18s9.5-9.83,10-9.72,15.34-2.7,15.34-2.7l10.47-.86,2.74-1,9.46,8.6s-1.19,4.54-3.89,5.29-14.25,1.3-14.25,1.3l-3.67-1-4.1.32s-6.37,3.24-7.67,3.24a6.76,6.76,0,0,1-2.7-.75s-.22-1.19,1.94-2.49l3.78-2.27-9.5,4.22-8-.22Z"/><path class="cls-12" d="M292.77,419c0,.11-1.07.06-2.73.41a36.31,36.31,0,0,0-6.31,2,41.42,41.42,0,0,0-5.93,3c-1.45.89-2.25,1.58-2.32,1.51a6.83,6.83,0,0,1,2.06-1.9,29.31,29.31,0,0,1,5.93-3.23A27.55,27.55,0,0,1,290,419,5.86,5.86,0,0,1,292.77,419Z"/><path class="cls-12" d="M287.5,415.21a17.84,17.84,0,0,1-3.56.81c-2.19.47-5.13,1.54-8.42,2.5l-.45.14.1-.05c-2.64,2-4.95,3.93-6.64,5.27a19.06,19.06,0,0,1-2.81,2.1,17,17,0,0,1,2.5-2.45c1.62-1.45,3.88-3.42,6.54-5.46l.05,0h.05l.45-.14a82.92,82.92,0,0,1,8.54-2.33A20.54,20.54,0,0,1,287.5,415.21Z"/><polygon class="cls-11" points="424.56 324.9 434.31 368.69 468.51 421.9 476.45 412.5 454.32 358.81 448.7 323.06 424.56 324.9"/><path class="cls-11" d="M507.85,423l-18.08-10.52-15.38-.63-5.88,9.8s1.81,2.48,7.24,2.71,9.95,0,9.95,0,7.91,3.84,9.49,2.71a8,8,0,0,1,3.17-1.36s5.65,3.36,6.55,1.57a6.78,6.78,0,0,1,2.94-2.7Z"/><path class="cls-12" d="M482.58,419.71a7.39,7.39,0,0,1,2.4-.41,11.74,11.74,0,0,1,2.67.08,6.93,6.93,0,0,1,3.07,1.26c3.56,2.91,6.2,5.44,6.1,5.57s-3-2.17-6.49-5a8.8,8.8,0,0,0-5.33-1.41A10.92,10.92,0,0,1,482.58,419.71Z"/><path class="cls-12" d="M484.64,415.72a2.43,2.43,0,0,1,1-.11,12.24,12.24,0,0,1,2.61.25,24.75,24.75,0,0,1,8,3.36c2.87,1.76,5.34,3.49,7.25,4.55s3.14,1.6,3.1,1.7a11,11,0,0,1-3.33-1.28c-2-1-4.54-2.65-7.37-4.39a28.47,28.47,0,0,0-7.7-3.47C486,415.79,484.64,415.84,484.64,415.72Z"/><g class="cls-13"><path d="M421.14,380.34a29.6,29.6,0,0,1-8.49,17c-7.71,7.54-14.54,12.26-25,14.74s-24.85,2-31.9-6.18c0,0,18.37,7.3,33.69,2.32C413.62,400.37,421.14,380.34,421.14,380.34Z"/></g><path class="cls-6" d="M366.46,196.93c-1.06,1.56-2,3.29-3.65,4.26a22.87,22.87,0,0,1-2.79,1.18,4,4,0,0,0-2.23,1.95,1.92,1.92,0,0,0,.93,2.53,3.24,3.24,0,0,0-1.93,3.28,4.36,4.36,0,0,0,2.21,3.26,6.84,6.84,0,0,0,3.95.8l7.82-20.66C368.9,193.8,367.51,195.37,366.46,196.93Z"/></g><g id="Character_1" data-name="Character 1"><path class="cls-6" d="M157,327.06l16.49,37.25L219.94,344c-2.21-4.32-30.13-2.74-30.13-2.74L180.22,317Z"/><g class="cls-14"><path class="cls-4" d="M174.56,345.55a2.07,2.07,0,0,0-.36,2.74,2,2,0,0,0,2.71.39,2.19,2.19,0,0,0,.37-2.9,2.05,2.05,0,0,0-2.86-.09"/></g><path class="cls-9" d="M173.48,364.31,172,360.49l45.11-18s2.46,0,2.86,1.56Z"/><path class="cls-9" d="M190.46,340.73c.09.23-1,.83-1.8,2s-1,2.43-1.22,2.43-.48-1.46.51-2.91S190.42,340.5,190.46,340.73Z"/><path class="cls-9" d="M196.21,340.62c.15.2-.67,1-1,2.31s-.13,2.41-.36,2.5-.93-1.14-.47-2.74S196.11,340.41,196.21,340.62Z"/><path class="cls-9" d="M201.52,345.24c-.18.14-1-.85-1-2.35s.88-2.45,1.06-2.31-.19,1.1-.2,2.33S201.74,345.12,201.52,345.24Z"/><path class="cls-6" d="M187.66,335.44c0,.24-1.18.39-2.43,1s-2.07,1.49-2.27,1.35.41-1.37,1.88-2.12S187.69,335.21,187.66,335.44Z"/><path class="cls-6" d="M184.15,330.41a4.9,4.9,0,0,1-2.34,1,11.11,11.11,0,0,1-2.76.31,11.74,11.74,0,0,1-1.64-.12,2.89,2.89,0,0,1-.94-.24,1.08,1.08,0,0,1-.63-1.16,1.38,1.38,0,0,1,.76-1,3.46,3.46,0,0,1,.93-.26,8.69,8.69,0,0,1,1.66-.13,9.06,9.06,0,0,1,2.76.47c1.51.53,2.25,1.22,2.19,1.29s-.9-.36-2.36-.7a10.43,10.43,0,0,0-2.58-.27,10.25,10.25,0,0,0-1.52.17c-.55.09-1,.27-1,.54,0,.11,0,.14.17.24a2.54,2.54,0,0,0,.69.18,14.21,14.21,0,0,0,1.53.16,13.5,13.5,0,0,0,2.63-.12A15.93,15.93,0,0,1,184.15,330.41Z"/><path class="cls-6" d="M184,330.86c-.06.07-.87-.55-1.59-2a8.23,8.23,0,0,1-.8-2.68,8.53,8.53,0,0,1,0-1.68,2.09,2.09,0,0,1,1-1.82,1.2,1.2,0,0,1,1.26.23,3.41,3.41,0,0,1,.61.75,5.61,5.61,0,0,1,.68,1.56,5.85,5.85,0,0,1,.06,2.84c-.38,1.6-1.21,2.28-1.27,2.21a18.48,18.48,0,0,0,.67-2.32,5.89,5.89,0,0,0-.22-2.51,5.14,5.14,0,0,0-.63-1.32c-.29-.46-.65-.78-.81-.65a1.47,1.47,0,0,0-.48,1.12,8.54,8.54,0,0,0,0,1.51,9.1,9.1,0,0,0,.57,2.52C183.49,330,184.1,330.77,184,330.86Z"/><path class="cls-6" d="M149.88,244.56c-2-.94-11-2.47-20.28,3.64-27.69,18.25-72.44,60.14-72.44,60.14l-.75,9.47,46.43,2.79,32.63-31.29,26.77,56.41c-.59-.68,30.23-12.35,30.23-12.35S161.06,249.81,149.88,244.56Z"/><path class="cls-6" d="M121.4,322c-2.11-.67-5.87-1.23-12.85-2.15-16.31-2.16-42-6.11-42-6.11l-49.67-3.41-4,19.37c-1.35,17.15,8.74,23.8,16.4,25.75,19,4.82,61.32,7,76.47,8.3,22,1.83,35.34-6.43,37-16.12C145.88,329.19,131.84,325.25,121.4,322Z"/><path class="cls-9" d="M131.43,326.71a3.1,3.1,0,0,1-.57-.31c-.37-.21-.88-.56-1.6-.92a36.87,36.87,0,0,0-6.21-2.66,46.65,46.65,0,0,0-9.81-2.09c-3.76-.55-7.87-1.21-12.19-1.91-8.64-1.42-16.48-2.6-22.18-3.22-2.85-.32-5.16-.52-6.75-.66l-1.84-.16a3.29,3.29,0,0,1-.64-.08h.64l1.85.08c1.6.1,3.92.26,6.77.54,5.72.55,13.57,1.68,22.21,3.1l12.18,1.95a46.11,46.11,0,0,1,9.85,2.18,33.61,33.61,0,0,1,6.2,2.8c.7.38,1.21.75,1.56,1A6.41,6.41,0,0,1,131.43,326.71Z"/><path class="cls-9" d="M139.59,264.2a4.83,4.83,0,0,1-.31,1c-.23.62-.55,1.51-.91,2.63a58.21,58.21,0,0,0-2.92,18c0,1.17,0,2.12,0,2.78a4.72,4.72,0,0,1,0,1,6.19,6.19,0,0,1-.14-1c-.07-.66-.12-1.61-.15-2.79a50.74,50.74,0,0,1,2.93-18.1c.4-1.11.76-2,1-2.59A6.19,6.19,0,0,1,139.59,264.2Z"/><path class="cls-9" d="M91.76,317a14,14,0,0,1-2.59-3.8A7.6,7.6,0,0,1,90.62,315,7.21,7.21,0,0,1,91.76,317Z"/><path class="cls-11" d="M82,204.09s6.07-3.25,17.07,3C110.92,213.8,158,235.64,158,235.64s7.64,19.42,8.9,38.08c.6,9,.12,12,.12,12l-13.83-.59S141.54,248.73,136.87,246l-44-10.36Z"/><path class="cls-11" d="M138.8,308.73s-1.42,3.63-.5,4.32,1.54,1.65,3.15,0,3.28-3.48,3.28-3.48a3.62,3.62,0,0,0,2.2,1.71c1.36.22.09.42-.19.56s-3.83,1.84-4,3.79,1.07,1.5,1.07,1.5l8.55-2.78s-2,2.75.37,4.44l8.51-7.5,4.94-15.38,1.07-12.34-14.89.9c.79,0-6.74,7.7-7.65,8.94s-2.74,7.43-2.74,7.43"/><path class="cls-12" d="M141.93,301.66a44.31,44.31,0,0,1-3.12,7.39,20.89,20.89,0,0,1,1.38-3.77A21.6,21.6,0,0,1,141.93,301.66Z"/><path class="cls-12" d="M147.91,304.84a10.19,10.19,0,0,1-1.51,2.61,10.73,10.73,0,0,1-1.94,2.33,14.76,14.76,0,0,1,1.63-2.53A15.55,15.55,0,0,1,147.91,304.84Z"/><path class="cls-12" d="M153.11,305.51a3.73,3.73,0,0,1-.38,1.2,7.9,7.9,0,0,1-1.63,2.61,9,9,0,0,1-2.63,1.69,4.54,4.54,0,0,1-1.23.42,4.77,4.77,0,0,1,1.11-.66,10.55,10.55,0,0,0,2.47-1.7,9.47,9.47,0,0,0,1.67-2.46A4.85,4.85,0,0,1,153.11,305.51Z"/><path class="cls-12" d="M158.8,307.51a3.46,3.46,0,0,1-.29,1.43,8.67,8.67,0,0,1-1.89,3,8.91,8.91,0,0,1-3,2,3.93,3.93,0,0,1-1.45.39,13.35,13.35,0,0,1,1.33-.62,10.48,10.48,0,0,0,2.81-2.06,9.92,9.92,0,0,0,1.91-2.86A12.47,12.47,0,0,1,158.8,307.51Z"/><path class="cls-10" d="M15.77,285.7s4.06-55.36,8.13-64.18c5.38-11.64,22.51-19.88,30.83-21,10.08-1.41,32,1.91,32,1.91l14.51,31.29L90,311.43c2.55,1,3.3,3.15,2.71,6.06l-36.27-3.34a63.09,63.09,0,0,0-31,4.91L14.16,324s-3-1.63-3.5-3.71,1-6.77,5.1-7.38l-.73.33Z"/><path class="cls-10" d="M127.3,219.31l-6.44,27.27L95.65,240l-20.53-38.8a107.26,107.26,0,0,1,18.13,2.41c3.71.9,13.66,3.72,13.66,3.72Z"/><path class="cls-6" d="M83.23,270.37a7.06,7.06,0,0,1-.81,1L80.1,274c-1.95,2.23-4.6,5.36-7.36,8.93s-5.14,6.91-6.81,9.36l-2,2.9a6.24,6.24,0,0,1-.77,1,5.77,5.77,0,0,1,.6-1.15c.41-.72,1-1.74,1.84-3,1.59-2.51,3.92-5.89,6.69-9.48s5.48-6.68,7.51-8.85c1-1.09,1.84-1.95,2.44-2.53A6.35,6.35,0,0,1,83.23,270.37Z"/><path class="cls-6" d="M103.61,217.86c.15,0-.81,8.13-2.14,18.11S99,254,98.81,254s.81-8.13,2.14-18.11S103.47,217.84,103.61,217.86Z"/><path class="cls-11" d="M42.26,252.57s44.91,28.5,51.52,29c14.31,1.15,41.12-37.52,41.12-37.52l-8.64-10.3s-29.87,22.86-32,22.69c-4.24-.33-34.57-22.79-34.57-22.79Z"/><path class="cls-11" d="M125.78,234s3-9.61,4.71-11c.63-.53,1.51-1.33,2.38-2.12a5.3,5.3,0,0,1,6.18-.71l1.21.69s2.76-1.23,3.69-.27a26.34,26.34,0,0,1,2.39,3.53,8,8,0,0,1,3.45,1.38,10.68,10.68,0,0,1,1.66,1.53s2.38.8,3,2.51l.64,1.72s2.09,1.73,1.82,3.71-.88,1.26-.88,1.26l-2.11-.06s-12.79,7.12-15.39,7.58a18.56,18.56,0,0,1-4.25.33Z"/><path class="cls-12" d="M156.61,236.37a3.41,3.41,0,0,0-.77-.13,12.05,12.05,0,0,0-2.29.18h0c-1.63,1-4,2.33-7,4-1.52.81-3.18,1.69-5.05,2.51a9.58,9.58,0,0,1-1.48.53c-.52.12-1.05.21-1.58.3-1.08.17-2.18.32-3.33.43l.12-.07c-3.24,4.27-6.94,9.15-11.05,14.14-3.63,4.39-7.25,8.45-10.76,11.92-1.75,1.75-3.47,3.34-5.12,4.8a35.55,35.55,0,0,1-5,3.54,28.9,28.9,0,0,1-4.48,2.33,13.16,13.16,0,0,1-3.7.9,6.41,6.41,0,0,1-2.4-.22,3.65,3.65,0,0,1-.58-.24l-.19-.11a6,6,0,0,0,3.15.43,13.9,13.9,0,0,0,3.65-.95,29.42,29.42,0,0,0,4.41-2.37,35.53,35.53,0,0,0,4.93-3.55c1.62-1.46,3.34-3.05,5.07-4.8,3.49-3.48,7.1-7.53,10.72-11.92,4.11-5,7.81-9.85,11.07-14.1l.05-.06h.07c1.13-.11,2.24-.25,3.31-.41.53-.09,1.06-.17,1.56-.28a10.12,10.12,0,0,0,1.43-.51c1.85-.8,3.53-1.67,5-2.46,3-1.59,5.44-2.93,7.09-3.84h0a10.55,10.55,0,0,1,2.32-.11,2.58,2.58,0,0,1,.59.11Z"/><path class="cls-12" d="M146.34,224.07a7.35,7.35,0,0,1-1-1.36c-.27-.45-.67-.91-1-1.46a1.88,1.88,0,0,0-1.79-.8,11,11,0,0,0-2.17.3,4.23,4.23,0,0,0-1.6.69,7.33,7.33,0,0,1-1,.73c-.26.14-.41.19-.42.17s.5-.37,1.26-1.1a4,4,0,0,1,1.67-.83,10.31,10.31,0,0,1,2.24-.34,2.19,2.19,0,0,1,2.07,1c.39.58.78,1.08,1,1.54A7.68,7.68,0,0,1,146.34,224.07Z"/><path class="cls-12" d="M147.79,224.52c0,.11-1-.23-2.32-.14s-2.23.55-2.29.45a4.34,4.34,0,0,1,4.61-.31Z"/><path class="cls-12" d="M154,228.82c-.06,0-.25-.35-.77-.75a4.25,4.25,0,0,0-2.35-.83,9.66,9.66,0,0,0-2.56.3,3.65,3.65,0,0,1-1.08.17c0-.05.36-.22,1-.43a7.22,7.22,0,0,1,2.65-.41,4,4,0,0,1,2.51,1C153.92,228.36,154,228.81,154,228.82Z"/><path class="cls-12" d="M155.49,231.73c-.06,0-.11-.23-.37-.49a1.92,1.92,0,0,0-1.26-.53,4.67,4.67,0,0,0-1.44.27c-.37.12-.61.18-.64.13s.18-.19.54-.38a3.23,3.23,0,0,1,1.55-.39,1.84,1.84,0,0,1,1.46.74C155.58,231.45,155.53,231.74,155.49,231.73Z"/><path class="cls-12" d="M94.68,266.14c-.11,0,0-2.17-.09-4.84s-.25-4.83-.14-4.84a19.64,19.64,0,0,1,.51,4.83A20.11,20.11,0,0,1,94.68,266.14Z"/><path class="cls-12" d="M134,220s-.31.16-.8.53a11.61,11.61,0,0,0-1.86,1.81C129.83,224,129,227,127.6,230.1c-.59,1.4-1.15,2.73-1.66,4l0,0,0,0c-1.85,1.42-3.43,2.63-4.56,3.48l-1.33,1a2.85,2.85,0,0,1-.5.32,2.26,2.26,0,0,1,.43-.41l1.27-1.06c1.09-.89,2.64-2.13,4.47-3.58l-.06.07c.51-1.23,1.06-2.57,1.64-4l1.84-4.4a11.8,11.8,0,0,1,2-3.36A6.55,6.55,0,0,1,134,220Z"/><path class="cls-10" d="M23.86,240.64c4.47,5.38,18,14.6,30.49,23.41l21.76-21.57S48.92,214.8,41.66,213.31C35.35,212,19.31,212.21,23.86,240.64Z"/><path class="cls-6" d="M27.27,244.05a4.12,4.12,0,0,1,.52.34l1.49,1.05,5.58,4.05C39.67,253,46.45,258,54.48,263.87l-.3,0,18.43-18.31,3.32-3.29v.37C70.48,237.23,65,232.4,60.19,227.9c-2.41-2.25-4.68-4.41-6.75-6.48a37.85,37.85,0,0,0-6.26-5.07,22.75,22.75,0,0,0-5.91-2.92,11.88,11.88,0,0,0-4.91-.34,9.08,9.08,0,0,0-3,1c-.62.34-.91.59-.93.57a4.51,4.51,0,0,1,.88-.66,8.7,8.7,0,0,1,3-1.09,11.74,11.74,0,0,1,5,.26,23,23,0,0,1,6,2.89,38.67,38.67,0,0,1,6.36,5.07c2.07,2,4.35,4.2,6.77,6.43,4.84,4.49,10.31,9.3,15.79,14.74l.18.19-.18.18L73,246,54.51,264.22l-.14.14-.16-.12L34.7,249.71l-5.51-4.15-1.44-1.11A3.79,3.79,0,0,1,27.27,244.05Z"/><path class="cls-11" d="M54.73,200.48l0-43.32c-.57-12.77,6.39-23.74,19.16-24l1.19.05A22.83,22.83,0,0,1,97,155.17c.44,11.07.78,23.31.46,29.22-.66,12.25-13,13.65-13,13.65s-.08,7.45-.07,11.05l-.23,8.77L54.73,200.48Z"/><path class="cls-12" d="M84.46,198a29.66,29.66,0,0,1-15.76-5.38s3.46,9.37,15.73,8.77Z"/><path class="cls-6" d="M93.45,165.74a1.74,1.74,0,0,1-1.75,1.7A1.67,1.67,0,0,1,90,165.79a1.74,1.74,0,0,1,1.75-1.7A1.67,1.67,0,0,1,93.45,165.74Z"/><path class="cls-6" d="M94.17,160.48c-.23.22-1.52-.82-3.4-.89s-3.3.81-3.49.57.14-.51.76-.92a4.75,4.75,0,0,1,2.81-.74,4.56,4.56,0,0,1,2.69,1C94.1,160,94.28,160.38,94.17,160.48Z"/><path class="cls-6" d="M76.15,165.74a1.74,1.74,0,0,1-1.76,1.7,1.69,1.69,0,0,1-1.74-1.65,1.76,1.76,0,0,1,1.76-1.7A1.67,1.67,0,0,1,76.15,165.74Z"/><path class="cls-6" d="M75.69,160.15c-.22.22-1.51-.82-3.39-.89s-3.3.81-3.5.57.14-.5.76-.92a4.85,4.85,0,0,1,2.81-.74,4.67,4.67,0,0,1,2.69,1C75.62,159.63,75.8,160.05,75.69,160.15Z"/><path class="cls-6" d="M81.85,174.9a12.39,12.39,0,0,1,3.08-.43c.48,0,.94-.11,1-.43a2.54,2.54,0,0,0-.27-1.44c-.4-1.18-.82-2.42-1.27-3.72-1.76-5.29-3-9.64-2.79-9.71s1.81,4.17,3.57,9.46c.42,1.31.82,2.55,1.21,3.74a2.82,2.82,0,0,1,.17,1.9,1.23,1.23,0,0,1-.82.67A3.11,3.11,0,0,1,85,175,13.1,13.1,0,0,1,81.85,174.9Z"/><path class="cls-6" d="M76.54,154.29c-.27.47-2.08-.11-4.3-.25s-4.09.12-4.29-.38c-.09-.24.3-.66,1.1-1a7.07,7.07,0,0,1,3.33-.52,7.16,7.16,0,0,1,3.22,1C76.34,153.59,76.67,154.06,76.54,154.29Z"/><path class="cls-6" d="M94.48,154.94c-.4.42-1.92-.06-3.77-.13s-3.41.2-3.76-.26c-.15-.22.11-.64.8-1a6.3,6.3,0,0,1,6.07.32C94.46,154.29,94.66,154.74,94.48,154.94Z"/><path class="cls-11" d="M55.39,166.27c-.2-.1-8.32-2.84-8.39,5.55s8.35,6.73,8.37,6.49S55.39,166.27,55.39,166.27Z"/><path class="cls-12" d="M52.84,175.11s-.15.1-.4.21a1.47,1.47,0,0,1-1.09,0c-.88-.34-1.61-1.75-1.64-3.26a4.68,4.68,0,0,1,.43-2.09,1.67,1.67,0,0,1,1.11-1.11.74.74,0,0,1,.86.41c.11.23,0,.4.1.41s.18-.14.11-.48a.92.92,0,0,0-.32-.53,1.1,1.1,0,0,0-.81-.22,2.07,2.07,0,0,0-1.54,1.28,5,5,0,0,0-.53,2.34c0,1.69.89,3.28,2.1,3.64a1.55,1.55,0,0,0,1.34-.21C52.82,175.31,52.87,175.13,52.84,175.11Z"/><path class="cls-6" d="M75.93,176.06c.29,0,.31,1.91,2,3.27s3.7,1.14,3.72,1.41c0,.12-.46.37-1.32.4a4.84,4.84,0,0,1-3.11-1.06,4.2,4.2,0,0,1-1.51-2.75C75.59,176.53,75.8,176.05,75.93,176.06Z"/><path class="cls-6" d="M113.92,144.14A2,2,0,0,0,113,143a6.09,6.09,0,0,0-3.13-.55,17.63,17.63,0,0,1-7.65-2,8.65,8.65,0,0,0,2.27-1.56,5.28,5.28,0,0,0,1.58-5.22,1.2,1.2,0,0,0-.65-.81c-.54-.17-1,.36-1.41.78a4.55,4.55,0,0,1-4.29,1.76,7.46,7.46,0,0,1-3.18-1l-.1-.12c-.43-.45-.85-.89-1.27-1.31h0c-3.12-3.17-5.81-5.37-8.59-6.52-4.07-1.7-10.91-2.44-15.2-1.37s-8.15,4.49-8.8,8.86c-2.37-2-6-2.08-8.89-.94l-.07,0c-3.26,1.12-5.15,4.53-6.14,7.83-.06.18-.11.36-.16.55a12.91,12.91,0,0,1-4.42,4.21c-.31.18-.68.4-.72.76s.26.66.55.88a6.52,6.52,0,0,0,2.62,1.12,15.37,15.37,0,0,1-1.11,2.27c-.37.61-.81,1.35-.5,2a1.36,1.36,0,0,0,1.42.64,3.9,3.9,0,0,0,1.52-.66l-1.11,2.58a7.67,7.67,0,0,0,3.53-.19c.66,3.1,1.11,8.85,1.89,10.95,2.22.07,2.76-.17,3.88.22,1.45.5.87,3.06,2.77,2.35,1-.36,2.48-4,2.81-5a48,48,0,0,0,2.31-20.25,15.49,15.49,0,0,1,4.79-3.38l-.15.13c3.45-1.15,7.34-2.28,10.57-.63,2.51,1.28,4,3.91,5.83,6a17.56,17.56,0,0,0,12.88,6.45c.44,3.71.52,9.77.66,13.23l3-6.89v0c.24-.4.44-.81.64-1.21l.06-.13h0a21.3,21.3,0,0,1,1-2l0,0a2.16,2.16,0,0,0,3.19-2.85,5.18,5.18,0,0,0-1-1.06,3.42,3.42,0,0,0,3.24.88,2.68,2.68,0,0,0,1.93-2.63,2.27,2.27,0,0,0-1.34-1.84,7.71,7.71,0,0,0,4.39-.92C113.35,146,114.2,145.23,113.92,144.14Z"/><path class="cls-4" d="M66.43,135.37a10.78,10.78,0,0,0-1.24,1.11,8.82,8.82,0,0,0-1.93,4.06,14.78,14.78,0,0,0-.35,3.11c0,1.13.06,2.34.13,3.62a33.55,33.55,0,0,1,.05,4,14.27,14.27,0,0,1-.31,2.12,4.36,4.36,0,0,1-.89,2.05,1.85,1.85,0,0,1-1.73.56,2.75,2.75,0,0,1-1.55-.9A6.31,6.31,0,0,1,57.46,152l.26,0a10.41,10.41,0,0,1-1.53,2.56,3.66,3.66,0,0,1-2.4,1.27,2.36,2.36,0,0,1-1.26-.24,2,2,0,0,1-.85-.85,2.15,2.15,0,0,1-.25-1.09,1.51,1.51,0,0,1,.41-1l.12.11a7.79,7.79,0,0,1-2.65,1.95,7.45,7.45,0,0,1-.83.31,1.62,1.62,0,0,1-.29.07,1.2,1.2,0,0,1,.28-.12c.18-.07.46-.18.8-.34a8.28,8.28,0,0,0,2.56-2l.13.12a1.56,1.56,0,0,0-.1,1.82,1.88,1.88,0,0,0,.77.76,2.19,2.19,0,0,0,1.14.2A3.4,3.4,0,0,0,56,154.42a10.23,10.23,0,0,0,1.47-2.5l.18-.4.08.43a6.14,6.14,0,0,0,1.09,3,2.48,2.48,0,0,0,1.39.8,1.54,1.54,0,0,0,1.47-.48,4.16,4.16,0,0,0,.83-1.92,16.39,16.39,0,0,0,.3-2.07,33,33,0,0,0,0-4c-.06-1.28-.13-2.5-.1-3.64a15.17,15.17,0,0,1,.39-3.16,8.74,8.74,0,0,1,2-4.08A5,5,0,0,1,66.43,135.37Z"/><path class="cls-4" d="M104.27,147.75l-.1.08-.31.22a6.09,6.09,0,0,1-.52.33,6.71,6.71,0,0,1-.76.38,10.85,10.85,0,0,1-5.26.89,14,14,0,0,1-7.38-2.82,24.22,24.22,0,0,1-6.28-7.41c-.87-1.5-1.58-3-2.37-4.45a16.49,16.49,0,0,0-2.7-3.76A8.31,8.31,0,0,0,75.08,129a6.09,6.09,0,0,0-1.87-.24,6.73,6.73,0,0,0-1.71.31,7.05,7.05,0,0,0-2.57,1.51,7.24,7.24,0,0,0-1.41,1.78,8.17,8.17,0,0,0-.65,1.84s0-.05,0-.13,0-.23.06-.38a6.16,6.16,0,0,1,.48-1.38,7.22,7.22,0,0,1,4-3.43,6.62,6.62,0,0,1,1.76-.34,6.52,6.52,0,0,1,1.94.23A8.51,8.51,0,0,1,78.77,131a15.9,15.9,0,0,1,2.76,3.82c.8,1.42,1.51,2.95,2.38,4.43a23.85,23.85,0,0,0,6.19,7.34,13.82,13.82,0,0,0,7.23,2.83,11,11,0,0,0,5.21-.78C103.69,148.16,104.25,147.71,104.27,147.75Z"/><path class="cls-4" d="M105.45,142.36a1.76,1.76,0,0,1-.45.31,8.92,8.92,0,0,1-1.31.64,12.35,12.35,0,0,1-2.07.66,15.14,15.14,0,0,1-2.64.32,14.79,14.79,0,0,1-2.66-.21,13.62,13.62,0,0,1-2.1-.57,10.87,10.87,0,0,1-1.33-.59,2,2,0,0,1-.46-.29s.7.31,1.86.69a15.19,15.19,0,0,0,2.08.5A16.25,16.25,0,0,0,99,144a15.52,15.52,0,0,0,2.59-.29,14,14,0,0,0,2.06-.59C104.76,142.7,105.42,142.32,105.45,142.36Z"/></g></g></svg>